<?xml version="1.0" encoding="UTF-8" standalone="no"?>
<!DOCTYPE svg PUBLIC "-//W3C//DTD SVG 1.1//EN"
 "http://www.w3.org/Graphics/SVG/1.1/DTD/svg11.dtd">
<!-- Generated by graphviz version 2.38.0 (20140413.2041)
 -->
<!-- Title: include/AStarSolver.hpp Pages: 1 -->
<svg width="386pt" height="252pt"
 viewBox="0.00 0.00 385.50 252.00" xmlns="http://www.w3.org/2000/svg" xmlns:xlink="http://www.w3.org/1999/xlink">
<g id="graph0" class="graph" transform="scale(1 1) rotate(0) translate(4 248)">
<title>include/AStarSolver.hpp</title>
<!-- Node0 -->
<g id="node1" class="node"><title>Node0</title>
<polygon fill="#bfbfbf" stroke="black" points="180.5,-224.5 180.5,-243.5 301.5,-243.5 301.5,-224.5 180.5,-224.5"/>
<text text-anchor="middle" x="241" y="-231.5" font-family="Helvetica,sans-Serif" font-size="10.00">include/AStarSolver.hpp</text>
</g>
<!-- Node1 -->
<g id="node2" class="node"><title>Node1</title>
<g id="a_node2"><a xlink:href="Solver_8hpp.html" target="_top" xlink:title="Solver.hpp">
<polygon fill="none" stroke="black" points="145,-168.5 145,-187.5 207,-187.5 207,-168.5 145,-168.5"/>
<text text-anchor="middle" x="176" y="-175.5" font-family="Helvetica,sans-Serif" font-size="10.00">Solver.hpp</text>
</a>
</g>
</g>
<!-- Node0&#45;&gt;Node1 -->
<g id="edge1" class="edge"><title>Node0&#45;&gt;Node1</title>
<path fill="none" stroke="midnightblue" d="M230.557,-224.324C220.854,-216.263 206.185,-204.077 194.5,-194.369"/>
<polygon fill="midnightblue" stroke="midnightblue" points="196.562,-191.532 186.633,-187.834 192.089,-196.916 196.562,-191.532"/>
</g>
<!-- Node4 -->
<g id="node5" class="node"><title>Node4</title>
<polygon fill="none" stroke="#bfbfbf" points="198,-112.5 198,-131.5 284,-131.5 284,-112.5 198,-112.5"/>
<text text-anchor="middle" x="241" y="-119.5" font-family="Helvetica,sans-Serif" font-size="10.00">OrderedList.hpp</text>
</g>
<!-- Node0&#45;&gt;Node4 -->
<g id="edge14" class="edge"><title>Node0&#45;&gt;Node4</title>
<path fill="none" stroke="midnightblue" d="M241,-224.368C241,-206.617 241,-165.666 241,-141.597"/>
<polygon fill="midnightblue" stroke="midnightblue" points="244.5,-141.591 241,-131.591 237.5,-141.591 244.5,-141.591"/>
</g>
<!-- Node10 -->
<g id="node11" class="node"><title>Node10</title>
<g id="a_node11"><a xlink:href="Heuristic_8hpp.html" target="_top" xlink:title="Heuristic.hpp">
<polygon fill="none" stroke="black" points="282,-168.5 282,-187.5 356,-187.5 356,-168.5 282,-168.5"/>
<text text-anchor="middle" x="319" y="-175.5" font-family="Helvetica,sans-Serif" font-size="10.00">Heuristic.hpp</text>
</a>
</g>
</g>
<!-- Node0&#45;&gt;Node10 -->
<g id="edge12" class="edge"><title>Node0&#45;&gt;Node10</title>
<path fill="none" stroke="midnightblue" d="M253.532,-224.324C265.586,-215.979 284.027,-203.212 298.269,-193.352"/>
<polygon fill="midnightblue" stroke="midnightblue" points="300.269,-196.224 306.499,-187.655 296.285,-190.469 300.269,-196.224"/>
</g>
<!-- Node2 -->
<g id="node3" class="node"><title>Node2</title>
<polygon fill="none" stroke="#bfbfbf" points="0,-112.5 0,-131.5 44,-131.5 44,-112.5 0,-112.5"/>
<text text-anchor="middle" x="22" y="-119.5" font-family="Helvetica,sans-Serif" font-size="10.00">time.h</text>
</g>
<!-- Node1&#45;&gt;Node2 -->
<g id="edge2" class="edge"><title>Node1&#45;&gt;Node2</title>
<path fill="none" stroke="midnightblue" d="M151.598,-168.444C125.196,-159.186 82.9913,-144.387 53.9595,-134.207"/>
<polygon fill="midnightblue" stroke="midnightblue" points="54.8823,-130.821 44.2875,-130.815 52.566,-137.427 54.8823,-130.821"/>
</g>
<!-- Node3 -->
<g id="node4" class="node"><title>Node3</title>
<polygon fill="none" stroke="#bfbfbf" points="62,-112.5 62,-131.5 142,-131.5 142,-112.5 62,-112.5"/>
<text text-anchor="middle" x="102" y="-119.5" font-family="Helvetica,sans-Serif" font-size="10.00">LinkedList.hpp</text>
</g>
<!-- Node1&#45;&gt;Node3 -->
<g id="edge3" class="edge"><title>Node1&#45;&gt;Node3</title>
<path fill="none" stroke="midnightblue" d="M164.111,-168.324C152.85,-160.107 135.713,-147.602 122.291,-137.807"/>
<polygon fill="midnightblue" stroke="midnightblue" points="124.247,-134.901 114.106,-131.834 120.12,-140.556 124.247,-134.901"/>
</g>
<!-- Node1&#45;&gt;Node4 -->
<g id="edge4" class="edge"><title>Node1&#45;&gt;Node4</title>
<path fill="none" stroke="midnightblue" d="M186.443,-168.324C196.146,-160.263 210.815,-148.077 222.5,-138.369"/>
<polygon fill="midnightblue" stroke="midnightblue" points="224.911,-140.916 230.367,-131.834 220.438,-135.532 224.911,-140.916"/>
</g>
<!-- Node5 -->
<g id="node6" class="node"><title>Node5</title>
<g id="a_node6"><a xlink:href="GameState_8hpp.html" target="_top" xlink:title="GameState.hpp">
<polygon fill="none" stroke="black" points="207.5,-56.5 207.5,-75.5 292.5,-75.5 292.5,-56.5 207.5,-56.5"/>
<text text-anchor="middle" x="250" y="-63.5" font-family="Helvetica,sans-Serif" font-size="10.00">GameState.hpp</text>
</a>
</g>
</g>
<!-- Node1&#45;&gt;Node5 -->
<g id="edge5" class="edge"><title>Node1&#45;&gt;Node5</title>
<path fill="none" stroke="midnightblue" d="M175.814,-168.277C175.933,-155.072 177.763,-129.675 189,-112 197.271,-98.9907 210.745,-88.4649 222.928,-80.8737"/>
<polygon fill="midnightblue" stroke="midnightblue" points="225.012,-83.7103 231.886,-75.6482 221.485,-77.6638 225.012,-83.7103"/>
</g>
<!-- Node9 -->
<g id="node10" class="node"><title>Node9</title>
<g id="a_node10"><a xlink:href="Game_8hpp.html" target="_top" xlink:title="Game.hpp">
<polygon fill="none" stroke="black" points="302,-112.5 302,-131.5 364,-131.5 364,-112.5 302,-112.5"/>
<text text-anchor="middle" x="333" y="-119.5" font-family="Helvetica,sans-Serif" font-size="10.00">Game.hpp</text>
</a>
</g>
</g>
<!-- Node1&#45;&gt;Node9 -->
<g id="edge9" class="edge"><title>Node1&#45;&gt;Node9</title>
<path fill="none" stroke="midnightblue" d="M200.877,-168.444C227.289,-159.359 269.215,-144.939 298.742,-134.783"/>
<polygon fill="midnightblue" stroke="midnightblue" points="299.921,-138.079 308.239,-131.516 297.645,-131.459 299.921,-138.079"/>
</g>
<!-- Node6 -->
<g id="node7" class="node"><title>Node6</title>
<polygon fill="none" stroke="#bfbfbf" points="229.5,-0.5 229.5,-19.5 270.5,-19.5 270.5,-0.5 229.5,-0.5"/>
<text text-anchor="middle" x="250" y="-7.5" font-family="Helvetica,sans-Serif" font-size="10.00">string</text>
</g>
<!-- Node5&#45;&gt;Node6 -->
<g id="edge6" class="edge"><title>Node5&#45;&gt;Node6</title>
<path fill="none" stroke="midnightblue" d="M250,-56.083C250,-49.0059 250,-38.8611 250,-29.9865"/>
<polygon fill="midnightblue" stroke="midnightblue" points="253.5,-29.751 250,-19.7511 246.5,-29.7511 253.5,-29.751"/>
</g>
<!-- Node7 -->
<g id="node8" class="node"><title>Node7</title>
<polygon fill="none" stroke="#bfbfbf" points="157,-0.5 157,-19.5 211,-19.5 211,-0.5 157,-0.5"/>
<text text-anchor="middle" x="184" y="-7.5" font-family="Helvetica,sans-Serif" font-size="10.00">iostream</text>
</g>
<!-- Node5&#45;&gt;Node7 -->
<g id="edge7" class="edge"><title>Node5&#45;&gt;Node7</title>
<path fill="none" stroke="midnightblue" d="M239.396,-56.324C229.544,-48.2631 214.649,-36.0765 202.785,-26.3695"/>
<polygon fill="midnightblue" stroke="midnightblue" points="204.753,-23.4575 194.797,-19.8339 200.32,-28.8752 204.753,-23.4575"/>
</g>
<!-- Node8 -->
<g id="node9" class="node"><title>Node8</title>
<g id="a_node9"><a xlink:href="GameAction_8hpp.html" target="_top" xlink:title="GameAction.hpp">
<polygon fill="none" stroke="black" points="288.5,-0.5 288.5,-19.5 377.5,-19.5 377.5,-0.5 288.5,-0.5"/>
<text text-anchor="middle" x="333" y="-7.5" font-family="Helvetica,sans-Serif" font-size="10.00">GameAction.hpp</text>
</a>
</g>
</g>
<!-- Node5&#45;&gt;Node8 -->
<g id="edge8" class="edge"><title>Node5&#45;&gt;Node8</title>
<path fill="none" stroke="midnightblue" d="M263.335,-56.324C276.162,-47.979 295.785,-35.2122 310.94,-25.3524"/>
<polygon fill="midnightblue" stroke="midnightblue" points="313.224,-28.0417 319.698,-19.6545 309.407,-22.1742 313.224,-28.0417"/>
</g>
<!-- Node9&#45;&gt;Node5 -->
<g id="edge10" class="edge"><title>Node9&#45;&gt;Node5</title>
<path fill="none" stroke="midnightblue" d="M319.665,-112.324C306.838,-103.979 287.215,-91.2122 272.06,-81.3524"/>
<polygon fill="midnightblue" stroke="midnightblue" points="273.593,-78.1742 263.302,-75.6545 269.776,-84.0417 273.593,-78.1742"/>
</g>
<!-- Node9&#45;&gt;Node8 -->
<g id="edge11" class="edge"><title>Node9&#45;&gt;Node8</title>
<path fill="none" stroke="midnightblue" d="M333,-112.368C333,-94.617 333,-53.6664 333,-29.5974"/>
<polygon fill="midnightblue" stroke="midnightblue" points="336.5,-29.5914 333,-19.5914 329.5,-29.5915 336.5,-29.5914"/>
</g>
<!-- Node10&#45;&gt;Node9 -->
<g id="edge13" class="edge"><title>Node10&#45;&gt;Node9</title>
<path fill="none" stroke="midnightblue" d="M321.312,-168.083C323.167,-160.927 325.835,-150.635 328.154,-141.691"/>
<polygon fill="midnightblue" stroke="midnightblue" points="331.609,-142.309 330.731,-131.751 324.834,-140.553 331.609,-142.309"/>
</g>
</g>
</svg>
