<?xml version="1.0" encoding="UTF-8" standalone="no"?>
<!DOCTYPE svg PUBLIC "-//W3C//DTD SVG 1.1//EN"
 "http://www.w3.org/Graphics/SVG/1.1/DTD/svg11.dtd">
<!-- Generated by graphviz version 2.38.0 (20140413.2041)
 -->
<!-- Title: AStarSolver Pages: 1 -->
<svg width="335pt" height="463pt"
 viewBox="0.00 0.00 334.50 463.00" xmlns="http://www.w3.org/2000/svg" xmlns:xlink="http://www.w3.org/1999/xlink">
<g id="graph0" class="graph" transform="scale(1 1) rotate(0) translate(4 459)">
<title>AStarSolver</title>
<!-- Node2 -->
<g id="node1" class="node"><title>Node2</title>
<polygon fill="#bfbfbf" stroke="black" points="198.5,-0.5 198.5,-90.5 288.5,-90.5 288.5,-0.5 198.5,-0.5"/>
<text text-anchor="middle" x="243.5" y="-78.5" font-family="Helvetica,sans-Serif" font-size="10.00">AStarSolver</text>
<polyline fill="none" stroke="black" points="198.5,-71.5 288.5,-71.5 "/>
<text text-anchor="middle" x="243.5" y="-59.5" font-family="Helvetica,sans-Serif" font-size="10.00"> </text>
<polyline fill="none" stroke="black" points="198.5,-52.5 288.5,-52.5 "/>
<text text-anchor="start" x="206.5" y="-40.5" font-family="Helvetica,sans-Serif" font-size="10.00">+ AStarSolver()</text>
<text text-anchor="start" x="206.5" y="-29.5" font-family="Helvetica,sans-Serif" font-size="10.00">+ ~AStarSolver()</text>
<text text-anchor="start" x="206.5" y="-18.5" font-family="Helvetica,sans-Serif" font-size="10.00">+ solve()</text>
<text text-anchor="start" x="206.5" y="-7.5" font-family="Helvetica,sans-Serif" font-size="10.00">+ compare()</text>
</g>
<!-- Node3 -->
<g id="node2" class="node"><title>Node3</title>
<g id="a_node2"><a xlink:href="classSolver.html" target="_top" xlink:title="Base class for all 8&#45;puzzle solvers. ">
<polygon fill="none" stroke="black" points="105,-138.5 105,-327.5 224,-327.5 224,-138.5 105,-138.5"/>
<text text-anchor="middle" x="164.5" y="-315.5" font-family="Helvetica,sans-Serif" font-size="10.00">Solver</text>
<polyline fill="none" stroke="black" points="105,-308.5 224,-308.5 "/>
<text text-anchor="middle" x="164.5" y="-296.5" font-family="Helvetica,sans-Serif" font-size="10.00"> </text>
<polyline fill="none" stroke="black" points="105,-289.5 224,-289.5 "/>
<text text-anchor="start" x="113" y="-277.5" font-family="Helvetica,sans-Serif" font-size="10.00">+ getSecondsToSolve()</text>
<text text-anchor="start" x="113" y="-266.5" font-family="Helvetica,sans-Serif" font-size="10.00">+ getVisitedNodes()</text>
<text text-anchor="start" x="113" y="-255.5" font-family="Helvetica,sans-Serif" font-size="10.00">+ getMaxDepth()</text>
<text text-anchor="start" x="113" y="-244.5" font-family="Helvetica,sans-Serif" font-size="10.00">+ getSolutionDepth()</text>
<text text-anchor="start" x="113" y="-233.5" font-family="Helvetica,sans-Serif" font-size="10.00">+ isSolved()</text>
<text text-anchor="start" x="113" y="-222.5" font-family="Helvetica,sans-Serif" font-size="10.00">+ Solver()</text>
<text text-anchor="start" x="113" y="-211.5" font-family="Helvetica,sans-Serif" font-size="10.00">+ solve()</text>
<text text-anchor="start" x="113" y="-200.5" font-family="Helvetica,sans-Serif" font-size="10.00">+ to_string()</text>
<text text-anchor="start" x="113" y="-189.5" font-family="Helvetica,sans-Serif" font-size="10.00"># isVisited()</text>
<text text-anchor="start" x="113" y="-178.5" font-family="Helvetica,sans-Serif" font-size="10.00"># visit()</text>
<text text-anchor="start" x="113" y="-167.5" font-family="Helvetica,sans-Serif" font-size="10.00"># visit()</text>
<text text-anchor="start" x="113" y="-156.5" font-family="Helvetica,sans-Serif" font-size="10.00"># endSearch()</text>
<text text-anchor="start" x="113" y="-145.5" font-family="Helvetica,sans-Serif" font-size="10.00">&#45; compare()</text>
</a>
</g>
</g>
<!-- Node3&#45;&gt;Node2 -->
<g id="edge1" class="edge"><title>Node3&#45;&gt;Node2</title>
<path fill="none" stroke="midnightblue" d="M208.309,-129.133C214.011,-115.743 219.593,-102.637 224.57,-90.9503"/>
<polygon fill="none" stroke="midnightblue" points="205.045,-127.863 204.347,-138.435 211.486,-130.606 205.045,-127.863"/>
</g>
<!-- Node4 -->
<g id="node3" class="node"><title>Node4</title>
<polygon fill="none" stroke="#bfbfbf" points="0,-397.5 0,-454.5 35,-454.5 35,-397.5 0,-397.5"/>
<text text-anchor="middle" x="17.5" y="-442.5" font-family="Helvetica,sans-Serif" font-size="10.00">float</text>
<polyline fill="none" stroke="#bfbfbf" points="0,-435.5 35,-435.5 "/>
<text text-anchor="middle" x="17.5" y="-423.5" font-family="Helvetica,sans-Serif" font-size="10.00"> </text>
<polyline fill="none" stroke="#bfbfbf" points="0,-416.5 35,-416.5 "/>
<text text-anchor="middle" x="17.5" y="-404.5" font-family="Helvetica,sans-Serif" font-size="10.00"> </text>
</g>
<!-- Node4&#45;&gt;Node3 -->
<g id="edge2" class="edge"><title>Node4&#45;&gt;Node3</title>
<path fill="none" stroke="#404040" d="M25.1491,-397.265C30.2821,-381.437 38.0321,-361.687 48.5,-346 61.6658,-326.27 78.8238,-307.331 95.8891,-290.821"/>
<polygon fill="none" stroke="#404040" points="96.0608,-290.659 97.6748,-283.631 104.783,-282.418 103.169,-289.446 96.0608,-290.659"/>
<text text-anchor="middle" x="89" y="-360" font-family="Helvetica,sans-Serif" font-size="10.00"> #secondsToSolve</text>
</g>
<!-- Node5 -->
<g id="node4" class="node"><title>Node5</title>
<polygon fill="none" stroke="#bfbfbf" points="53,-397.5 53,-454.5 194,-454.5 194,-397.5 53,-397.5"/>
<text text-anchor="middle" x="123.5" y="-442.5" font-family="Helvetica,sans-Serif" font-size="10.00">OrderedList&lt; GameState * &gt;</text>
<polyline fill="none" stroke="#bfbfbf" points="53,-435.5 194,-435.5 "/>
<text text-anchor="middle" x="123.5" y="-423.5" font-family="Helvetica,sans-Serif" font-size="10.00"> </text>
<polyline fill="none" stroke="#bfbfbf" points="53,-416.5 194,-416.5 "/>
<text text-anchor="middle" x="123.5" y="-404.5" font-family="Helvetica,sans-Serif" font-size="10.00"> </text>
</g>
<!-- Node5&#45;&gt;Node3 -->
<g id="edge3" class="edge"><title>Node5&#45;&gt;Node3</title>
<path fill="none" stroke="#404040" d="M129.462,-397.227C132.816,-381.601 137.24,-360.99 141.811,-339.696"/>
<polygon fill="none" stroke="#404040" points="141.841,-339.555 139.19,-332.849 144.36,-327.822 147.012,-334.528 141.841,-339.555"/>
<text text-anchor="middle" x="159" y="-360" font-family="Helvetica,sans-Serif" font-size="10.00"> #visited</text>
</g>
<!-- Node6 -->
<g id="node5" class="node"><title>Node6</title>
<polygon fill="none" stroke="#bfbfbf" points="212,-397.5 212,-454.5 241,-454.5 241,-397.5 212,-397.5"/>
<text text-anchor="middle" x="226.5" y="-442.5" font-family="Helvetica,sans-Serif" font-size="10.00">int</text>
<polyline fill="none" stroke="#bfbfbf" points="212,-435.5 241,-435.5 "/>
<text text-anchor="middle" x="226.5" y="-423.5" font-family="Helvetica,sans-Serif" font-size="10.00"> </text>
<polyline fill="none" stroke="#bfbfbf" points="212,-416.5 241,-416.5 "/>
<text text-anchor="middle" x="226.5" y="-404.5" font-family="Helvetica,sans-Serif" font-size="10.00"> </text>
</g>
<!-- Node6&#45;&gt;Node3 -->
<g id="edge4" class="edge"><title>Node6&#45;&gt;Node3</title>
<path fill="none" stroke="#404040" d="M214.578,-397.449C212.119,-391.415 209.632,-385.028 207.5,-379 202.996,-366.268 198.567,-352.799 194.363,-339.403"/>
<polygon fill="none" stroke="#404040" points="194.279,-339.133 188.684,-334.585 190.731,-327.67 196.326,-332.219 194.279,-339.133"/>
<text text-anchor="middle" x="240.5" y="-371" font-family="Helvetica,sans-Serif" font-size="10.00"> #maxDepth</text>
<text text-anchor="middle" x="240.5" y="-360" font-family="Helvetica,sans-Serif" font-size="10.00">#visitedNodes</text>
<text text-anchor="middle" x="240.5" y="-349" font-family="Helvetica,sans-Serif" font-size="10.00">#solutionDepth</text>
</g>
<!-- Node7 -->
<g id="node6" class="node"><title>Node7</title>
<polygon fill="none" stroke="#bfbfbf" points="278,-397.5 278,-454.5 313,-454.5 313,-397.5 278,-397.5"/>
<text text-anchor="middle" x="295.5" y="-442.5" font-family="Helvetica,sans-Serif" font-size="10.00">bool</text>
<polyline fill="none" stroke="#bfbfbf" points="278,-435.5 313,-435.5 "/>
<text text-anchor="middle" x="295.5" y="-423.5" font-family="Helvetica,sans-Serif" font-size="10.00"> </text>
<polyline fill="none" stroke="#bfbfbf" points="278,-416.5 313,-416.5 "/>
<text text-anchor="middle" x="295.5" y="-404.5" font-family="Helvetica,sans-Serif" font-size="10.00"> </text>
</g>
<!-- Node7&#45;&gt;Node3 -->
<g id="edge5" class="edge"><title>Node7&#45;&gt;Node3</title>
<path fill="none" stroke="#404040" d="M293.635,-397.384C291.213,-380.813 285.747,-360.255 273.5,-346 260.796,-331.213 248.656,-340.262 233.5,-328 233.402,-327.92 233.303,-327.841 233.205,-327.761"/>
<polygon fill="none" stroke="#404040" points="233.272,-327.819 226.126,-326.846 224.277,-319.876 231.422,-320.849 233.272,-327.819"/>
<text text-anchor="middle" x="308" y="-360" font-family="Helvetica,sans-Serif" font-size="10.00"> #solved</text>
</g>
<!-- Node8 -->
<g id="node7" class="node"><title>Node8</title>
<g id="a_node7"><a xlink:href="classHeuristic.html" target="_top" xlink:title="Abtract class for heuristic functions. ">
<polygon fill="none" stroke="black" points="242.5,-204.5 242.5,-261.5 298.5,-261.5 298.5,-204.5 242.5,-204.5"/>
<text text-anchor="middle" x="270.5" y="-249.5" font-family="Helvetica,sans-Serif" font-size="10.00">Heuristic</text>
<polyline fill="none" stroke="black" points="242.5,-242.5 298.5,-242.5 "/>
<text text-anchor="middle" x="270.5" y="-230.5" font-family="Helvetica,sans-Serif" font-size="10.00"> </text>
<polyline fill="none" stroke="black" points="242.5,-223.5 298.5,-223.5 "/>
<text text-anchor="start" x="250.5" y="-211.5" font-family="Helvetica,sans-Serif" font-size="10.00">+ calc()</text>
</a>
</g>
</g>
<!-- Node8&#45;&gt;Node2 -->
<g id="edge6" class="edge"><title>Node8&#45;&gt;Node2</title>
<path fill="none" stroke="#404040" d="M266.458,-204.229C262.567,-177.494 256.568,-136.284 251.679,-102.691"/>
<polygon fill="none" stroke="#404040" points="251.662,-102.576 246.839,-97.2144 249.934,-90.7008 254.756,-96.0621 251.662,-102.576"/>
<text text-anchor="middle" x="276" y="-112" font-family="Helvetica,sans-Serif" font-size="10.00"> &#45;heuristic</text>
</g>
</g>
</svg>
