<?xml version="1.0" encoding="UTF-8" standalone="no"?>
<!DOCTYPE svg PUBLIC "-//W3C//DTD SVG 1.1//EN"
 "http://www.w3.org/Graphics/SVG/1.1/DTD/svg11.dtd">
<!-- Generated by graphviz version 2.38.0 (20140413.2041)
 -->
<!-- Title: Solver Pages: 1 -->
<svg width="332pt" height="325pt"
 viewBox="0.00 0.00 331.50 325.00" xmlns="http://www.w3.org/2000/svg" xmlns:xlink="http://www.w3.org/1999/xlink">
<g id="graph0" class="graph" transform="scale(1 1) rotate(0) translate(4 321)">
<title>Solver</title>
<!-- Node7 -->
<g id="node1" class="node"><title>Node7</title>
<polygon fill="#bfbfbf" stroke="black" points="96,-0.5 96,-189.5 215,-189.5 215,-0.5 96,-0.5"/>
<text text-anchor="middle" x="155.5" y="-177.5" font-family="Helvetica,sans-Serif" font-size="10.00">Solver</text>
<polyline fill="none" stroke="black" points="96,-170.5 215,-170.5 "/>
<text text-anchor="middle" x="155.5" y="-158.5" font-family="Helvetica,sans-Serif" font-size="10.00"> </text>
<polyline fill="none" stroke="black" points="96,-151.5 215,-151.5 "/>
<text text-anchor="start" x="104" y="-139.5" font-family="Helvetica,sans-Serif" font-size="10.00">+ getSecondsToSolve()</text>
<text text-anchor="start" x="104" y="-128.5" font-family="Helvetica,sans-Serif" font-size="10.00">+ getVisitedNodes()</text>
<text text-anchor="start" x="104" y="-117.5" font-family="Helvetica,sans-Serif" font-size="10.00">+ getMaxDepth()</text>
<text text-anchor="start" x="104" y="-106.5" font-family="Helvetica,sans-Serif" font-size="10.00">+ getSolutionDepth()</text>
<text text-anchor="start" x="104" y="-95.5" font-family="Helvetica,sans-Serif" font-size="10.00">+ isSolved()</text>
<text text-anchor="start" x="104" y="-84.5" font-family="Helvetica,sans-Serif" font-size="10.00">+ Solver()</text>
<text text-anchor="start" x="104" y="-73.5" font-family="Helvetica,sans-Serif" font-size="10.00">+ solve()</text>
<text text-anchor="start" x="104" y="-62.5" font-family="Helvetica,sans-Serif" font-size="10.00">+ to_string()</text>
<text text-anchor="start" x="104" y="-51.5" font-family="Helvetica,sans-Serif" font-size="10.00"># isVisited()</text>
<text text-anchor="start" x="104" y="-40.5" font-family="Helvetica,sans-Serif" font-size="10.00"># visit()</text>
<text text-anchor="start" x="104" y="-29.5" font-family="Helvetica,sans-Serif" font-size="10.00"># visit()</text>
<text text-anchor="start" x="104" y="-18.5" font-family="Helvetica,sans-Serif" font-size="10.00"># endSearch()</text>
<text text-anchor="start" x="104" y="-7.5" font-family="Helvetica,sans-Serif" font-size="10.00">&#45; compare()</text>
</g>
<!-- Node8 -->
<g id="node2" class="node"><title>Node8</title>
<polygon fill="none" stroke="#bfbfbf" points="0,-259.5 0,-316.5 35,-316.5 35,-259.5 0,-259.5"/>
<text text-anchor="middle" x="17.5" y="-304.5" font-family="Helvetica,sans-Serif" font-size="10.00">float</text>
<polyline fill="none" stroke="#bfbfbf" points="0,-297.5 35,-297.5 "/>
<text text-anchor="middle" x="17.5" y="-285.5" font-family="Helvetica,sans-Serif" font-size="10.00"> </text>
<polyline fill="none" stroke="#bfbfbf" points="0,-278.5 35,-278.5 "/>
<text text-anchor="middle" x="17.5" y="-266.5" font-family="Helvetica,sans-Serif" font-size="10.00"> </text>
</g>
<!-- Node8&#45;&gt;Node7 -->
<g id="edge1" class="edge"><title>Node8&#45;&gt;Node7</title>
<path fill="none" stroke="#404040" d="M24.0975,-259.347C28.63,-243.545 35.63,-223.795 45.5,-208 57.0765,-189.474 72.1878,-171.569 87.4853,-155.712"/>
<polygon fill="none" stroke="#404040" points="87.5428,-155.654 88.9185,-148.575 95.9818,-147.123 94.6061,-154.201 87.5428,-155.654"/>
<text text-anchor="middle" x="86" y="-222" font-family="Helvetica,sans-Serif" font-size="10.00"> #secondsToSolve</text>
</g>
<!-- Node9 -->
<g id="node3" class="node"><title>Node9</title>
<polygon fill="none" stroke="#bfbfbf" points="53,-259.5 53,-316.5 194,-316.5 194,-259.5 53,-259.5"/>
<text text-anchor="middle" x="123.5" y="-304.5" font-family="Helvetica,sans-Serif" font-size="10.00">OrderedList&lt; GameState * &gt;</text>
<polyline fill="none" stroke="#bfbfbf" points="53,-297.5 194,-297.5 "/>
<text text-anchor="middle" x="123.5" y="-285.5" font-family="Helvetica,sans-Serif" font-size="10.00"> </text>
<polyline fill="none" stroke="#bfbfbf" points="53,-278.5 194,-278.5 "/>
<text text-anchor="middle" x="123.5" y="-266.5" font-family="Helvetica,sans-Serif" font-size="10.00"> </text>
</g>
<!-- Node9&#45;&gt;Node7 -->
<g id="edge2" class="edge"><title>Node9&#45;&gt;Node7</title>
<path fill="none" stroke="#404040" d="M128.153,-259.227C130.771,-243.601 134.224,-222.99 137.792,-201.696"/>
<polygon fill="none" stroke="#404040" points="137.798,-201.658 134.845,-195.079 139.781,-189.822 142.735,-196.401 137.798,-201.658"/>
<text text-anchor="middle" x="155" y="-222" font-family="Helvetica,sans-Serif" font-size="10.00"> #visited</text>
</g>
<!-- Node10 -->
<g id="node4" class="node"><title>Node10</title>
<polygon fill="none" stroke="#bfbfbf" points="212,-259.5 212,-316.5 241,-316.5 241,-259.5 212,-259.5"/>
<text text-anchor="middle" x="226.5" y="-304.5" font-family="Helvetica,sans-Serif" font-size="10.00">int</text>
<polyline fill="none" stroke="#bfbfbf" points="212,-297.5 241,-297.5 "/>
<text text-anchor="middle" x="226.5" y="-285.5" font-family="Helvetica,sans-Serif" font-size="10.00"> </text>
<polyline fill="none" stroke="#bfbfbf" points="212,-278.5 241,-278.5 "/>
<text text-anchor="middle" x="226.5" y="-266.5" font-family="Helvetica,sans-Serif" font-size="10.00"> </text>
</g>
<!-- Node10&#45;&gt;Node7 -->
<g id="edge3" class="edge"><title>Node10&#45;&gt;Node7</title>
<path fill="none" stroke="#404040" d="M214.833,-259.355C212.358,-253.326 209.8,-246.966 207.5,-241 202.589,-228.262 197.568,-214.839 192.678,-201.51"/>
<polygon fill="none" stroke="#404040" points="192.533,-201.114 186.719,-196.849 188.42,-189.841 194.234,-194.106 192.533,-201.114"/>
<text text-anchor="middle" x="240.5" y="-233" font-family="Helvetica,sans-Serif" font-size="10.00"> #maxDepth</text>
<text text-anchor="middle" x="240.5" y="-222" font-family="Helvetica,sans-Serif" font-size="10.00">#visitedNodes</text>
<text text-anchor="middle" x="240.5" y="-211" font-family="Helvetica,sans-Serif" font-size="10.00">#solutionDepth</text>
</g>
<!-- Node11 -->
<g id="node5" class="node"><title>Node11</title>
<polygon fill="none" stroke="#bfbfbf" points="278,-259.5 278,-316.5 313,-316.5 313,-259.5 278,-259.5"/>
<text text-anchor="middle" x="295.5" y="-304.5" font-family="Helvetica,sans-Serif" font-size="10.00">bool</text>
<polyline fill="none" stroke="#bfbfbf" points="278,-297.5 313,-297.5 "/>
<text text-anchor="middle" x="295.5" y="-285.5" font-family="Helvetica,sans-Serif" font-size="10.00"> </text>
<polyline fill="none" stroke="#bfbfbf" points="278,-278.5 313,-278.5 "/>
<text text-anchor="middle" x="295.5" y="-266.5" font-family="Helvetica,sans-Serif" font-size="10.00"> </text>
</g>
<!-- Node11&#45;&gt;Node7 -->
<g id="edge4" class="edge"><title>Node11&#45;&gt;Node7</title>
<path fill="none" stroke="#404040" d="M291.545,-259.212C288.393,-243.366 282.893,-223.616 273.5,-208 260.551,-186.472 242.355,-166.384 224.122,-149.333"/>
<polygon fill="none" stroke="#404040" points="224.07,-149.286 216.94,-148.209 215.191,-141.213 222.321,-142.29 224.07,-149.286"/>
<text text-anchor="middle" x="305" y="-222" font-family="Helvetica,sans-Serif" font-size="10.00"> #solved</text>
</g>
</g>
</svg>
