<?xml version="1.0" encoding="UTF-8" standalone="no"?>
<!DOCTYPE svg PUBLIC "-//W3C//DTD SVG 1.1//EN"
 "http://www.w3.org/Graphics/SVG/1.1/DTD/svg11.dtd">
<!-- Generated by graphviz version 2.38.0 (20140413.2041)
 -->
<!-- Title: GameState::isValid Pages: 1 -->
<svg width="407pt" height="47pt"
 viewBox="0.00 0.00 407.00 47.00" xmlns="http://www.w3.org/2000/svg" xmlns:xlink="http://www.w3.org/1999/xlink">
<g id="graph0" class="graph" transform="scale(1 1) rotate(0) translate(4 43)">
<title>GameState::isValid</title>
<!-- Node43 -->
<g id="node1" class="node"><title>Node43</title>
<polygon fill="#bfbfbf" stroke="black" points="0,-19.5 0,-38.5 101,-38.5 101,-19.5 0,-19.5"/>
<text text-anchor="middle" x="50.5" y="-26.5" font-family="Helvetica,sans-Serif" font-size="10.00">GameState::isValid</text>
</g>
<!-- Node44 -->
<g id="node2" class="node"><title>Node44</title>
<g id="a_node2"><a xlink:href="main_8cpp.html#a5b9f767b5cb710c0aaa16939eca00e66" target="_top" xlink:title="Gets a puzzle and performs a series of actions in it to test transitions. ">
<polygon fill="none" stroke="black" points="295,-19.5 295,-38.5 399,-38.5 399,-19.5 295,-19.5"/>
<text text-anchor="middle" x="347" y="-26.5" font-family="Helvetica,sans-Serif" font-size="10.00">testStateTransitions</text>
</a>
</g>
</g>
<!-- Node43&#45;&gt;Node44 -->
<g id="edge1" class="edge"><title>Node43&#45;&gt;Node44</title>
<path fill="none" stroke="midnightblue" d="M111.225,-29C165.118,-29 243.562,-29 294.686,-29"/>
<polygon fill="midnightblue" stroke="midnightblue" points="111.125,-25.5001 101.125,-29 111.125,-32.5001 111.125,-25.5001"/>
</g>
<!-- Node45 -->
<g id="node3" class="node"><title>Node45</title>
<g id="a_node3"><a xlink:href="classGameState.html#a0999d7e2a8ada07f008663ca85930c79" target="_top" xlink:title="Creates a new state based on a given previous state and applying an action to it. ...">
<polygon fill="none" stroke="black" points="137,-0.5 137,-19.5 259,-19.5 259,-0.5 137,-0.5"/>
<text text-anchor="middle" x="198" y="-7.5" font-family="Helvetica,sans-Serif" font-size="10.00">GameState::GameState</text>
</a>
</g>
</g>
<!-- Node43&#45;&gt;Node45 -->
<g id="edge2" class="edge"><title>Node43&#45;&gt;Node45</title>
<path fill="none" stroke="midnightblue" d="M111.345,-21.1852C119.814,-20.0793 128.524,-18.9419 136.996,-17.8356"/>
<polygon fill="midnightblue" stroke="midnightblue" points="110.628,-17.749 101.166,-22.5144 111.535,-24.69 110.628,-17.749"/>
</g>
<!-- Node45&#45;&gt;Node44 -->
<g id="edge3" class="edge"><title>Node45&#45;&gt;Node44</title>
<path fill="none" stroke="midnightblue" d="M269.199,-19.0733C277.751,-20.1787 286.363,-21.2918 294.57,-22.3526"/>
<polygon fill="midnightblue" stroke="midnightblue" points="269.581,-15.5937 259.215,-17.7828 268.683,-22.5359 269.581,-15.5937"/>
</g>
</g>
</svg>
