<?xml version="1.0" encoding="UTF-8" standalone="no"?>
<!DOCTYPE svg PUBLIC "-//W3C//DTD SVG 1.1//EN"
 "http://www.w3.org/Graphics/SVG/1.1/DTD/svg11.dtd">
<!-- Generated by graphviz version 2.38.0 (20140413.2041)
 -->
<!-- Title: DepthFirstSolver::solve Pages: 1 -->
<svg width="314pt" height="46pt"
 viewBox="0.00 0.00 314.00 46.00" xmlns="http://www.w3.org/2000/svg" xmlns:xlink="http://www.w3.org/1999/xlink">
<g id="graph0" class="graph" transform="scale(1 1) rotate(0) translate(4 42)">
<title>DepthFirstSolver::solve</title>
<!-- Node7 -->
<g id="node1" class="node"><title>Node7</title>
<polygon fill="#bfbfbf" stroke="black" points="0,-0.5 0,-19.5 119,-19.5 119,-0.5 0,-0.5"/>
<text text-anchor="middle" x="59.5" y="-7.5" font-family="Helvetica,sans-Serif" font-size="10.00">DepthFirstSolver::solve</text>
</g>
<!-- Node7&#45;&gt;Node7 -->
<g id="edge3" class="edge"><title>Node7&#45;&gt;Node7</title>
<path fill="none" stroke="midnightblue" d="M34.5745,-29.0292C35.9341,-34.128 44.2426,-38 59.5,-38 83.3164,-38 90.2008,-28.5653 80.1533,-19.7571"/>
<polygon fill="midnightblue" stroke="midnightblue" points="37.8407,-30.304 38.8467,-19.7571 31.4831,-27.3747 37.8407,-30.304"/>
</g>
<!-- Node8 -->
<g id="node2" class="node"><title>Node8</title>
<g id="a_node2"><a xlink:href="main_8cpp.html#ac6c9ec3e7bfe3c929009584766bef20d" target="_top" xlink:title="Creates one of each solver, randomly selects a puzzle from the input file and tests all solvers again...">
<polygon fill="none" stroke="black" points="155,-0.5 155,-19.5 232,-19.5 232,-0.5 155,-0.5"/>
<text text-anchor="middle" x="193.5" y="-7.5" font-family="Helvetica,sans-Serif" font-size="10.00">testAllSolvers</text>
</a>
</g>
</g>
<!-- Node7&#45;&gt;Node8 -->
<g id="edge1" class="edge"><title>Node7&#45;&gt;Node8</title>
<path fill="none" stroke="midnightblue" d="M129.433,-10C138.184,-10 146.866,-10 154.862,-10"/>
<polygon fill="midnightblue" stroke="midnightblue" points="129.166,-6.5001 119.166,-10 129.166,-13.5001 129.166,-6.5001"/>
</g>
<!-- Node9 -->
<g id="node3" class="node"><title>Node9</title>
<g id="a_node3"><a xlink:href="main_8cpp.html#ae66f6b31b5ad750f1fe042a706a4e3d4" target="_top" xlink:title="main">
<polygon fill="none" stroke="black" points="268,-0.5 268,-19.5 306,-19.5 306,-0.5 268,-0.5"/>
<text text-anchor="middle" x="287" y="-7.5" font-family="Helvetica,sans-Serif" font-size="10.00">main</text>
</a>
</g>
</g>
<!-- Node8&#45;&gt;Node9 -->
<g id="edge2" class="edge"><title>Node8&#45;&gt;Node9</title>
<path fill="none" stroke="midnightblue" d="M242.362,-10C251.347,-10 260.223,-10 267.601,-10"/>
<polygon fill="midnightblue" stroke="midnightblue" points="242.245,-6.5001 232.245,-10 242.245,-13.5001 242.245,-6.5001"/>
</g>
</g>
</svg>
