<?xml version="1.0" encoding="UTF-8" standalone="no"?>
<!DOCTYPE svg PUBLIC "-//W3C//DTD SVG 1.1//EN"
 "http://www.w3.org/Graphics/SVG/1.1/DTD/svg11.dtd">
<!-- Generated by graphviz version 2.38.0 (20140413.2041)
 -->
<!-- Title: DepthFirstSolver Pages: 1 -->
<svg width="466pt" height="442pt"
 viewBox="0.00 0.00 465.50 442.00" xmlns="http://www.w3.org/2000/svg" xmlns:xlink="http://www.w3.org/1999/xlink">
<g id="graph0" class="graph" transform="scale(1 1) rotate(0) translate(4 438)">
<title>DepthFirstSolver</title>
<!-- Node2 -->
<g id="node1" class="node"><title>Node2</title>
<polygon fill="#bfbfbf" stroke="black" points="327,-0.5 327,-79.5 432,-79.5 432,-0.5 327,-0.5"/>
<text text-anchor="middle" x="379.5" y="-67.5" font-family="Helvetica,sans-Serif" font-size="10.00">DepthFirstSolver</text>
<polyline fill="none" stroke="black" points="327,-60.5 432,-60.5 "/>
<text text-anchor="middle" x="379.5" y="-48.5" font-family="Helvetica,sans-Serif" font-size="10.00"> </text>
<polyline fill="none" stroke="black" points="327,-41.5 432,-41.5 "/>
<text text-anchor="start" x="335" y="-29.5" font-family="Helvetica,sans-Serif" font-size="10.00">+ DepthFirstSolver()</text>
<text text-anchor="start" x="335" y="-18.5" font-family="Helvetica,sans-Serif" font-size="10.00">+ DepthFirstSolver()</text>
<text text-anchor="start" x="335" y="-7.5" font-family="Helvetica,sans-Serif" font-size="10.00">+ solve()</text>
</g>
<!-- Node3 -->
<g id="node2" class="node"><title>Node3</title>
<g id="a_node2"><a xlink:href="classSolver.html" target="_top" xlink:title="Base class for all 8&#45;puzzle solvers. ">
<polygon fill="none" stroke="black" points="221,-117.5 221,-306.5 340,-306.5 340,-117.5 221,-117.5"/>
<text text-anchor="middle" x="280.5" y="-294.5" font-family="Helvetica,sans-Serif" font-size="10.00">Solver</text>
<polyline fill="none" stroke="black" points="221,-287.5 340,-287.5 "/>
<text text-anchor="middle" x="280.5" y="-275.5" font-family="Helvetica,sans-Serif" font-size="10.00"> </text>
<polyline fill="none" stroke="black" points="221,-268.5 340,-268.5 "/>
<text text-anchor="start" x="229" y="-256.5" font-family="Helvetica,sans-Serif" font-size="10.00">+ getSecondsToSolve()</text>
<text text-anchor="start" x="229" y="-245.5" font-family="Helvetica,sans-Serif" font-size="10.00">+ getVisitedNodes()</text>
<text text-anchor="start" x="229" y="-234.5" font-family="Helvetica,sans-Serif" font-size="10.00">+ getMaxDepth()</text>
<text text-anchor="start" x="229" y="-223.5" font-family="Helvetica,sans-Serif" font-size="10.00">+ getSolutionDepth()</text>
<text text-anchor="start" x="229" y="-212.5" font-family="Helvetica,sans-Serif" font-size="10.00">+ isSolved()</text>
<text text-anchor="start" x="229" y="-201.5" font-family="Helvetica,sans-Serif" font-size="10.00">+ Solver()</text>
<text text-anchor="start" x="229" y="-190.5" font-family="Helvetica,sans-Serif" font-size="10.00">+ solve()</text>
<text text-anchor="start" x="229" y="-179.5" font-family="Helvetica,sans-Serif" font-size="10.00">+ to_string()</text>
<text text-anchor="start" x="229" y="-168.5" font-family="Helvetica,sans-Serif" font-size="10.00"># isVisited()</text>
<text text-anchor="start" x="229" y="-157.5" font-family="Helvetica,sans-Serif" font-size="10.00"># visit()</text>
<text text-anchor="start" x="229" y="-146.5" font-family="Helvetica,sans-Serif" font-size="10.00"># visit()</text>
<text text-anchor="start" x="229" y="-135.5" font-family="Helvetica,sans-Serif" font-size="10.00"># endSearch()</text>
<text text-anchor="start" x="229" y="-124.5" font-family="Helvetica,sans-Serif" font-size="10.00">&#45; compare()</text>
</a>
</g>
</g>
<!-- Node3&#45;&gt;Node2 -->
<g id="edge1" class="edge"><title>Node3&#45;&gt;Node2</title>
<path fill="none" stroke="midnightblue" d="M340.405,-108.133C346.265,-98.0708 351.921,-88.3587 357.024,-79.5956"/>
<polygon fill="none" stroke="midnightblue" points="337.22,-106.647 335.212,-117.05 343.269,-110.17 337.22,-106.647"/>
</g>
<!-- Node4 -->
<g id="node3" class="node"><title>Node4</title>
<polygon fill="none" stroke="#bfbfbf" points="159,-376.5 159,-433.5 194,-433.5 194,-376.5 159,-376.5"/>
<text text-anchor="middle" x="176.5" y="-421.5" font-family="Helvetica,sans-Serif" font-size="10.00">float</text>
<polyline fill="none" stroke="#bfbfbf" points="159,-414.5 194,-414.5 "/>
<text text-anchor="middle" x="176.5" y="-402.5" font-family="Helvetica,sans-Serif" font-size="10.00"> </text>
<polyline fill="none" stroke="#bfbfbf" points="159,-395.5 194,-395.5 "/>
<text text-anchor="middle" x="176.5" y="-383.5" font-family="Helvetica,sans-Serif" font-size="10.00"> </text>
</g>
<!-- Node4&#45;&gt;Node3 -->
<g id="edge2" class="edge"><title>Node4&#45;&gt;Node3</title>
<path fill="none" stroke="#404040" d="M180.266,-376.369C183.091,-360.758 187.827,-341.189 195.5,-325 200.729,-313.968 207.159,-302.971 214.122,-292.417"/>
<polygon fill="none" stroke="#404040" points="214.166,-292.353 214.25,-285.143 220.939,-282.448 220.854,-289.658 214.166,-292.353"/>
<text text-anchor="middle" x="236" y="-339" font-family="Helvetica,sans-Serif" font-size="10.00"> #secondsToSolve</text>
</g>
<!-- Node5 -->
<g id="node4" class="node"><title>Node5</title>
<polygon fill="none" stroke="#bfbfbf" points="0,-376.5 0,-433.5 141,-433.5 141,-376.5 0,-376.5"/>
<text text-anchor="middle" x="70.5" y="-421.5" font-family="Helvetica,sans-Serif" font-size="10.00">OrderedList&lt; GameState * &gt;</text>
<polyline fill="none" stroke="#bfbfbf" points="0,-414.5 141,-414.5 "/>
<text text-anchor="middle" x="70.5" y="-402.5" font-family="Helvetica,sans-Serif" font-size="10.00"> </text>
<polyline fill="none" stroke="#bfbfbf" points="0,-395.5 141,-395.5 "/>
<text text-anchor="middle" x="70.5" y="-383.5" font-family="Helvetica,sans-Serif" font-size="10.00"> </text>
</g>
<!-- Node5&#45;&gt;Node3 -->
<g id="edge3" class="edge"><title>Node5&#45;&gt;Node3</title>
<path fill="none" stroke="#404040" d="M94.6744,-376.476C108.746,-360.899 127.094,-341.329 144.5,-325 165.486,-305.312 189.415,-284.968 211.289,-267.11"/>
<polygon fill="none" stroke="#404040" points="211.529,-266.916 213.669,-260.029 220.849,-259.356 218.709,-266.242 211.529,-266.916"/>
<text text-anchor="middle" x="163" y="-339" font-family="Helvetica,sans-Serif" font-size="10.00"> #visited</text>
</g>
<!-- Node6 -->
<g id="node5" class="node"><title>Node6</title>
<polygon fill="none" stroke="#bfbfbf" points="366,-376.5 366,-433.5 395,-433.5 395,-376.5 366,-376.5"/>
<text text-anchor="middle" x="380.5" y="-421.5" font-family="Helvetica,sans-Serif" font-size="10.00">int</text>
<polyline fill="none" stroke="#bfbfbf" points="366,-414.5 395,-414.5 "/>
<text text-anchor="middle" x="380.5" y="-402.5" font-family="Helvetica,sans-Serif" font-size="10.00"> </text>
<polyline fill="none" stroke="#bfbfbf" points="366,-395.5 395,-395.5 "/>
<text text-anchor="middle" x="380.5" y="-383.5" font-family="Helvetica,sans-Serif" font-size="10.00"> </text>
</g>
<!-- Node6&#45;&gt;Node2 -->
<g id="edge6" class="edge"><title>Node6&#45;&gt;Node2</title>
<path fill="none" stroke="#404040" d="M395.081,-384.436C400.044,-376.628 404.974,-367.293 407.5,-358 411.347,-343.847 408.22,-339.649 407.5,-325 403.484,-243.34 393.011,-148.95 386.074,-92.173"/>
<polygon fill="none" stroke="#404040" points="386.037,-91.8675 381.331,-86.4032 384.565,-79.958 389.271,-85.4223 386.037,-91.8675"/>
<text text-anchor="middle" x="431.5" y="-209.5" font-family="Helvetica,sans-Serif" font-size="10.00"> &#45;maxDepth</text>
</g>
<!-- Node6&#45;&gt;Node3 -->
<g id="edge4" class="edge"><title>Node6&#45;&gt;Node3</title>
<path fill="none" stroke="#404040" d="M365.884,-389.158C357.959,-380.561 348.404,-369.242 341.5,-358 333.775,-345.421 326.593,-331.69 320.069,-317.854"/>
<polygon fill="none" stroke="#404040" points="319.982,-317.663 313.845,-313.877 314.98,-306.755 321.117,-310.542 319.982,-317.663"/>
<text text-anchor="middle" x="374.5" y="-350" font-family="Helvetica,sans-Serif" font-size="10.00"> #maxDepth</text>
<text text-anchor="middle" x="374.5" y="-339" font-family="Helvetica,sans-Serif" font-size="10.00">#visitedNodes</text>
<text text-anchor="middle" x="374.5" y="-328" font-family="Helvetica,sans-Serif" font-size="10.00">#solutionDepth</text>
</g>
<!-- Node7 -->
<g id="node6" class="node"><title>Node7</title>
<polygon fill="none" stroke="#bfbfbf" points="263,-376.5 263,-433.5 298,-433.5 298,-376.5 263,-376.5"/>
<text text-anchor="middle" x="280.5" y="-421.5" font-family="Helvetica,sans-Serif" font-size="10.00">bool</text>
<polyline fill="none" stroke="#bfbfbf" points="263,-414.5 298,-414.5 "/>
<text text-anchor="middle" x="280.5" y="-402.5" font-family="Helvetica,sans-Serif" font-size="10.00"> </text>
<polyline fill="none" stroke="#bfbfbf" points="263,-395.5 298,-395.5 "/>
<text text-anchor="middle" x="280.5" y="-383.5" font-family="Helvetica,sans-Serif" font-size="10.00"> </text>
</g>
<!-- Node7&#45;&gt;Node3 -->
<g id="edge5" class="edge"><title>Node7&#45;&gt;Node3</title>
<path fill="none" stroke="#404040" d="M280.5,-376.227C280.5,-360.673 280.5,-340.181 280.5,-318.991"/>
<polygon fill="none" stroke="#404040" points="280.5,-318.822 276.5,-312.822 280.5,-306.822 284.5,-312.822 280.5,-318.822"/>
<text text-anchor="middle" x="299" y="-339" font-family="Helvetica,sans-Serif" font-size="10.00"> #solved</text>
</g>
</g>
</svg>
