<?xml version="1.0" encoding="UTF-8" standalone="no"?>
<!DOCTYPE svg PUBLIC "-//W3C//DTD SVG 1.1//EN"
 "http://www.w3.org/Graphics/SVG/1.1/DTD/svg11.dtd">
<!-- Generated by graphviz version 2.38.0 (20140413.2041)
 -->
<!-- Title: Manhattan::calc Pages: 1 -->
<svg width="249pt" height="116pt"
 viewBox="0.00 0.00 249.00 115.50" xmlns="http://www.w3.org/2000/svg" xmlns:xlink="http://www.w3.org/1999/xlink">
<g id="graph0" class="graph" transform="scale(1 1) rotate(0) translate(4 111.5)">
<title>Manhattan::calc</title>
<!-- Node2 -->
<g id="node1" class="node"><title>Node2</title>
<polygon fill="#bfbfbf" stroke="black" points="0,-50 0,-69 86,-69 86,-50 0,-50"/>
<text text-anchor="middle" x="43" y="-57" font-family="Helvetica,sans-Serif" font-size="10.00">Manhattan::calc</text>
</g>
<!-- Node3 -->
<g id="node2" class="node"><title>Node3</title>
<g id="a_node2"><a xlink:href="classAStarSolver.html#a205be9cf9707844ac04538cf4e4953b6" target="_top" xlink:title="Compares two states using the available heuristic. ">
<polygon fill="none" stroke="black" points="125,-88 125,-107 238,-107 238,-88 125,-88"/>
<text text-anchor="middle" x="181.5" y="-95" font-family="Helvetica,sans-Serif" font-size="10.00">AStarSolver::compare</text>
</a>
</g>
</g>
<!-- Node2&#45;&gt;Node3 -->
<g id="edge1" class="edge"><title>Node2&#45;&gt;Node3</title>
<path fill="none" stroke="midnightblue" d="M88.2487,-71.8183C107.003,-77.0393 128.528,-83.0316 146.066,-87.9141"/>
<polygon fill="midnightblue" stroke="midnightblue" points="89.0171,-68.3992 78.4447,-69.089 87.1397,-75.1428 89.0171,-68.3992"/>
</g>
<!-- Node4 -->
<g id="node3" class="node"><title>Node4</title>
<g id="a_node3"><a xlink:href="classGreedySolver.html#a8ad879d049de3e65288e174a2c235dc2" target="_top" xlink:title="Compares two states using the available heuristic. ">
<polygon fill="none" stroke="black" points="122,-50 122,-69 241,-69 241,-50 122,-50"/>
<text text-anchor="middle" x="181.5" y="-57" font-family="Helvetica,sans-Serif" font-size="10.00">GreedySolver::compare</text>
</a>
</g>
</g>
<!-- Node2&#45;&gt;Node4 -->
<g id="edge2" class="edge"><title>Node2&#45;&gt;Node4</title>
<path fill="none" stroke="midnightblue" d="M96.0953,-59.5C104.486,-59.5 113.223,-59.5 121.758,-59.5"/>
<polygon fill="midnightblue" stroke="midnightblue" points="96.0683,-56.0001 86.0683,-59.5 96.0683,-63.0001 96.0683,-56.0001"/>
</g>
<!-- Node5 -->
<g id="node4" class="node"><title>Node5</title>
<g id="a_node4"><a xlink:href="classHillClimbingSolver.html#ac964fcf629413a82647aad14628f9223" target="_top" xlink:title="Compares two states using the available heuristic. ">
<polygon fill="none" stroke="black" points="133,-0.5 133,-30.5 230,-30.5 230,-0.5 133,-0.5"/>
<text text-anchor="start" x="141" y="-18.5" font-family="Helvetica,sans-Serif" font-size="10.00">HillClimbingSolver</text>
<text text-anchor="middle" x="181.5" y="-7.5" font-family="Helvetica,sans-Serif" font-size="10.00">::compare</text>
</a>
</g>
</g>
<!-- Node2&#45;&gt;Node5 -->
<g id="edge3" class="edge"><title>Node2&#45;&gt;Node5</title>
<path fill="none" stroke="midnightblue" d="M83.5341,-46.7564C99.2352,-41.6952 117.416,-35.8347 133.763,-30.5654"/>
<polygon fill="midnightblue" stroke="midnightblue" points="82.0624,-43.5534 73.6185,-49.9527 84.21,-50.2158 82.0624,-43.5534"/>
</g>
</g>
</svg>
