<?xml version="1.0" encoding="UTF-8" standalone="no"?>
<!DOCTYPE svg PUBLIC "-//W3C//DTD SVG 1.1//EN"
 "http://www.w3.org/Graphics/SVG/1.1/DTD/svg11.dtd">
<!-- Generated by graphviz version 2.38.0 (20140413.2041)
 -->
<!-- Title: HillClimbingSolver::solve Pages: 1 -->
<svg width="292pt" height="57pt"
 viewBox="0.00 0.00 292.00 57.00" xmlns="http://www.w3.org/2000/svg" xmlns:xlink="http://www.w3.org/1999/xlink">
<g id="graph0" class="graph" transform="scale(1 1) rotate(0) translate(4 53)">
<title>HillClimbingSolver::solve</title>
<!-- Node15 -->
<g id="node1" class="node"><title>Node15</title>
<polygon fill="#bfbfbf" stroke="black" points="0,-0.5 0,-30.5 97,-30.5 97,-0.5 0,-0.5"/>
<text text-anchor="start" x="8" y="-18.5" font-family="Helvetica,sans-Serif" font-size="10.00">HillClimbingSolver</text>
<text text-anchor="middle" x="48.5" y="-7.5" font-family="Helvetica,sans-Serif" font-size="10.00">::solve</text>
</g>
<!-- Node15&#45;&gt;Node15 -->
<g id="edge3" class="edge"><title>Node15&#45;&gt;Node15</title>
<path fill="none" stroke="midnightblue" d="M26.8221,-40.9579C29.5126,-45.679 36.7386,-49 48.5,-49 67.8008,-49 74.8878,-40.0566 69.761,-30.659"/>
<polygon fill="midnightblue" stroke="midnightblue" points="30.3315,-40.7924 27.239,-30.659 23.3373,-40.5092 30.3315,-40.7924"/>
</g>
<!-- Node16 -->
<g id="node2" class="node"><title>Node16</title>
<g id="a_node2"><a xlink:href="main_8cpp.html#ac6c9ec3e7bfe3c929009584766bef20d" target="_top" xlink:title="Creates one of each solver, randomly selects a puzzle from the input file and tests all solvers again...">
<polygon fill="none" stroke="black" points="133,-6 133,-25 210,-25 210,-6 133,-6"/>
<text text-anchor="middle" x="171.5" y="-13" font-family="Helvetica,sans-Serif" font-size="10.00">testAllSolvers</text>
</a>
</g>
</g>
<!-- Node15&#45;&gt;Node16 -->
<g id="edge1" class="edge"><title>Node15&#45;&gt;Node16</title>
<path fill="none" stroke="midnightblue" d="M107.36,-15.5C115.975,-15.5 124.661,-15.5 132.718,-15.5"/>
<polygon fill="midnightblue" stroke="midnightblue" points="107.322,-12.0001 97.3224,-15.5 107.322,-19.0001 107.322,-12.0001"/>
</g>
<!-- Node17 -->
<g id="node3" class="node"><title>Node17</title>
<g id="a_node3"><a xlink:href="main_8cpp.html#ae66f6b31b5ad750f1fe042a706a4e3d4" target="_top" xlink:title="main">
<polygon fill="none" stroke="black" points="246,-6 246,-25 284,-25 284,-6 246,-6"/>
<text text-anchor="middle" x="265" y="-13" font-family="Helvetica,sans-Serif" font-size="10.00">main</text>
</a>
</g>
</g>
<!-- Node16&#45;&gt;Node17 -->
<g id="edge2" class="edge"><title>Node16&#45;&gt;Node17</title>
<path fill="none" stroke="midnightblue" d="M220.362,-15.5C229.347,-15.5 238.223,-15.5 245.601,-15.5"/>
<polygon fill="midnightblue" stroke="midnightblue" points="220.245,-12.0001 210.245,-15.5 220.245,-19.0001 220.245,-12.0001"/>
</g>
</g>
</svg>
