<?xml version="1.0" encoding="UTF-8" standalone="no"?>
<!DOCTYPE svg PUBLIC "-//W3C//DTD SVG 1.1//EN"
 "http://www.w3.org/Graphics/SVG/1.1/DTD/svg11.dtd">
<!-- Generated by graphviz version 2.38.0 (20140413.2041)
 -->
<!-- Title: Solver Pages: 1 -->
<svg width="717pt" height="402pt"
 viewBox="0.00 0.00 717.00 402.00" xmlns="http://www.w3.org/2000/svg" xmlns:xlink="http://www.w3.org/1999/xlink">
<g id="graph0" class="graph" transform="scale(1 1) rotate(0) translate(4 398)">
<title>Solver</title>
<!-- Node0 -->
<g id="node1" class="node"><title>Node0</title>
<polygon fill="#bfbfbf" stroke="black" points="276.5,-149.5 276.5,-393.5 395.5,-393.5 395.5,-149.5 276.5,-149.5"/>
<text text-anchor="middle" x="336" y="-381.5" font-family="Helvetica,sans-Serif" font-size="10.00">Solver</text>
<polyline fill="none" stroke="black" points="276.5,-374.5 395.5,-374.5 "/>
<text text-anchor="start" x="284.5" y="-362.5" font-family="Helvetica,sans-Serif" font-size="10.00"># visited</text>
<text text-anchor="start" x="284.5" y="-351.5" font-family="Helvetica,sans-Serif" font-size="10.00"># visitedNodes</text>
<text text-anchor="start" x="284.5" y="-340.5" font-family="Helvetica,sans-Serif" font-size="10.00"># maxDepth</text>
<text text-anchor="start" x="284.5" y="-329.5" font-family="Helvetica,sans-Serif" font-size="10.00"># solutionDepth</text>
<text text-anchor="start" x="284.5" y="-318.5" font-family="Helvetica,sans-Serif" font-size="10.00"># secondsToSolve</text>
<text text-anchor="start" x="284.5" y="-307.5" font-family="Helvetica,sans-Serif" font-size="10.00"># solved</text>
<polyline fill="none" stroke="black" points="276.5,-300.5 395.5,-300.5 "/>
<text text-anchor="start" x="284.5" y="-288.5" font-family="Helvetica,sans-Serif" font-size="10.00">+ getSecondsToSolve()</text>
<text text-anchor="start" x="284.5" y="-277.5" font-family="Helvetica,sans-Serif" font-size="10.00">+ getVisitedNodes()</text>
<text text-anchor="start" x="284.5" y="-266.5" font-family="Helvetica,sans-Serif" font-size="10.00">+ getMaxDepth()</text>
<text text-anchor="start" x="284.5" y="-255.5" font-family="Helvetica,sans-Serif" font-size="10.00">+ getSolutionDepth()</text>
<text text-anchor="start" x="284.5" y="-244.5" font-family="Helvetica,sans-Serif" font-size="10.00">+ isSolved()</text>
<text text-anchor="start" x="284.5" y="-233.5" font-family="Helvetica,sans-Serif" font-size="10.00">+ Solver()</text>
<text text-anchor="start" x="284.5" y="-222.5" font-family="Helvetica,sans-Serif" font-size="10.00">+ solve()</text>
<text text-anchor="start" x="284.5" y="-211.5" font-family="Helvetica,sans-Serif" font-size="10.00">+ to_string()</text>
<text text-anchor="start" x="284.5" y="-200.5" font-family="Helvetica,sans-Serif" font-size="10.00"># isVisited()</text>
<text text-anchor="start" x="284.5" y="-189.5" font-family="Helvetica,sans-Serif" font-size="10.00"># visit()</text>
<text text-anchor="start" x="284.5" y="-178.5" font-family="Helvetica,sans-Serif" font-size="10.00"># visit()</text>
<text text-anchor="start" x="284.5" y="-167.5" font-family="Helvetica,sans-Serif" font-size="10.00"># endSearch()</text>
<text text-anchor="start" x="284.5" y="-156.5" font-family="Helvetica,sans-Serif" font-size="10.00">&#45; compare()</text>
</g>
<!-- Node1 -->
<g id="node2" class="node"><title>Node1</title>
<g id="a_node2"><a xlink:href="classAStarSolver.html" target="_top" xlink:title="8&#45;puzzle exploration based on the A* search algorithm ">
<polygon fill="none" stroke="black" points="0,-11.5 0,-101.5 90,-101.5 90,-11.5 0,-11.5"/>
<text text-anchor="middle" x="45" y="-89.5" font-family="Helvetica,sans-Serif" font-size="10.00">AStarSolver</text>
<polyline fill="none" stroke="black" points="0,-82.5 90,-82.5 "/>
<text text-anchor="start" x="8" y="-70.5" font-family="Helvetica,sans-Serif" font-size="10.00">&#45; heuristic</text>
<polyline fill="none" stroke="black" points="0,-63.5 90,-63.5 "/>
<text text-anchor="start" x="8" y="-51.5" font-family="Helvetica,sans-Serif" font-size="10.00">+ AStarSolver()</text>
<text text-anchor="start" x="8" y="-40.5" font-family="Helvetica,sans-Serif" font-size="10.00">+ ~AStarSolver()</text>
<text text-anchor="start" x="8" y="-29.5" font-family="Helvetica,sans-Serif" font-size="10.00">+ solve()</text>
<text text-anchor="start" x="8" y="-18.5" font-family="Helvetica,sans-Serif" font-size="10.00">+ compare()</text>
</a>
</g>
</g>
<!-- Node0&#45;&gt;Node1 -->
<g id="edge1" class="edge"><title>Node0&#45;&gt;Node1</title>
<path fill="none" stroke="midnightblue" d="M267.481,-230.361C218.637,-200.482 152.431,-157.353 99,-113 94.7589,-109.48 90.4911,-105.663 86.3141,-101.736"/>
<polygon fill="none" stroke="midnightblue" points="265.723,-233.388 276.085,-235.597 269.362,-227.408 265.723,-233.388"/>
</g>
<!-- Node2 -->
<g id="node3" class="node"><title>Node2</title>
<g id="a_node3"><a xlink:href="classBreadthFirstSolver.html" target="_top" xlink:title="8&#45;puzzle exploration based on a breadth&#45;first search strategy ">
<polygon fill="none" stroke="black" points="108,-28 108,-85 206,-85 206,-28 108,-28"/>
<text text-anchor="middle" x="157" y="-73" font-family="Helvetica,sans-Serif" font-size="10.00">BreadthFirstSolver</text>
<polyline fill="none" stroke="black" points="108,-66 206,-66 "/>
<text text-anchor="middle" x="157" y="-54" font-family="Helvetica,sans-Serif" font-size="10.00"> </text>
<polyline fill="none" stroke="black" points="108,-47 206,-47 "/>
<text text-anchor="start" x="116" y="-35" font-family="Helvetica,sans-Serif" font-size="10.00">+ solve()</text>
</a>
</g>
</g>
<!-- Node0&#45;&gt;Node2 -->
<g id="edge2" class="edge"><title>Node0&#45;&gt;Node2</title>
<path fill="none" stroke="midnightblue" d="M269.756,-191.674C238.322,-154.269 202.775,-111.97 180.143,-85.0391"/>
<polygon fill="none" stroke="midnightblue" points="267.282,-194.17 276.396,-199.574 272.641,-189.667 267.282,-194.17"/>
</g>
<!-- Node3 -->
<g id="node4" class="node"><title>Node3</title>
<g id="a_node4"><a xlink:href="classDepthFirstSolver.html" target="_top" xlink:title="8&#45;puzzle exploration based on a depth&#45;first search strategy ">
<polygon fill="none" stroke="black" points="224.5,-17 224.5,-96 329.5,-96 329.5,-17 224.5,-17"/>
<text text-anchor="middle" x="277" y="-84" font-family="Helvetica,sans-Serif" font-size="10.00">DepthFirstSolver</text>
<polyline fill="none" stroke="black" points="224.5,-77 329.5,-77 "/>
<text text-anchor="start" x="232.5" y="-65" font-family="Helvetica,sans-Serif" font-size="10.00">&#45; maxDepth</text>
<polyline fill="none" stroke="black" points="224.5,-58 329.5,-58 "/>
<text text-anchor="start" x="232.5" y="-46" font-family="Helvetica,sans-Serif" font-size="10.00">+ DepthFirstSolver()</text>
<text text-anchor="start" x="232.5" y="-35" font-family="Helvetica,sans-Serif" font-size="10.00">+ DepthFirstSolver()</text>
<text text-anchor="start" x="232.5" y="-24" font-family="Helvetica,sans-Serif" font-size="10.00">+ solve()</text>
</a>
</g>
</g>
<!-- Node0&#45;&gt;Node3 -->
<g id="edge3" class="edge"><title>Node0&#45;&gt;Node3</title>
<path fill="none" stroke="midnightblue" d="M299.713,-139.499C295.357,-123.771 291.209,-108.796 287.678,-96.0505"/>
<polygon fill="none" stroke="midnightblue" points="296.407,-140.674 302.449,-149.377 303.153,-138.805 296.407,-140.674"/>
</g>
<!-- Node4 -->
<g id="node5" class="node"><title>Node4</title>
<g id="a_node5"><a xlink:href="classGreedySolver.html" target="_top" xlink:title="Implementation of a greedy exploration algorithm for the 8&#45;puzzle game. ">
<polygon fill="none" stroke="black" points="347.5,-11.5 347.5,-101.5 444.5,-101.5 444.5,-11.5 347.5,-11.5"/>
<text text-anchor="middle" x="396" y="-89.5" font-family="Helvetica,sans-Serif" font-size="10.00">GreedySolver</text>
<polyline fill="none" stroke="black" points="347.5,-82.5 444.5,-82.5 "/>
<text text-anchor="start" x="355.5" y="-70.5" font-family="Helvetica,sans-Serif" font-size="10.00">&#45; heuristic</text>
<polyline fill="none" stroke="black" points="347.5,-63.5 444.5,-63.5 "/>
<text text-anchor="start" x="355.5" y="-51.5" font-family="Helvetica,sans-Serif" font-size="10.00">+ GreedySolver()</text>
<text text-anchor="start" x="355.5" y="-40.5" font-family="Helvetica,sans-Serif" font-size="10.00">+ ~GreedySolver()</text>
<text text-anchor="start" x="355.5" y="-29.5" font-family="Helvetica,sans-Serif" font-size="10.00">+ solve()</text>
<text text-anchor="start" x="355.5" y="-18.5" font-family="Helvetica,sans-Serif" font-size="10.00">+ compare()</text>
</a>
</g>
</g>
<!-- Node0&#45;&gt;Node4 -->
<g id="edge4" class="edge"><title>Node0&#45;&gt;Node4</title>
<path fill="none" stroke="midnightblue" d="M372.913,-139.46C376.716,-125.958 380.362,-113.013 383.589,-101.558"/>
<polygon fill="none" stroke="midnightblue" points="369.462,-138.802 370.119,-149.377 376.2,-140.7 369.462,-138.802"/>
</g>
<!-- Node5 -->
<g id="node6" class="node"><title>Node5</title>
<g id="a_node6"><a xlink:href="classHillClimbingSolver.html" target="_top" xlink:title="Implementation of a hill&#45;climbing optimization algorithm for the 8&#45;puzzle. ">
<polygon fill="none" stroke="black" points="463,-0.5 463,-112.5 581,-112.5 581,-0.5 463,-0.5"/>
<text text-anchor="middle" x="522" y="-100.5" font-family="Helvetica,sans-Serif" font-size="10.00">HillClimbingSolver</text>
<polyline fill="none" stroke="black" points="463,-93.5 581,-93.5 "/>
<text text-anchor="start" x="471" y="-81.5" font-family="Helvetica,sans-Serif" font-size="10.00">&#45; heuristic</text>
<text text-anchor="start" x="471" y="-70.5" font-family="Helvetica,sans-Serif" font-size="10.00">&#45; steepest</text>
<polyline fill="none" stroke="black" points="463,-63.5 581,-63.5 "/>
<text text-anchor="start" x="471" y="-51.5" font-family="Helvetica,sans-Serif" font-size="10.00">+ HillClimbingSolver()</text>
<text text-anchor="start" x="471" y="-40.5" font-family="Helvetica,sans-Serif" font-size="10.00">+ HillClimbingSolver()</text>
<text text-anchor="start" x="471" y="-29.5" font-family="Helvetica,sans-Serif" font-size="10.00">+ ~HillClimbingSolver()</text>
<text text-anchor="start" x="471" y="-18.5" font-family="Helvetica,sans-Serif" font-size="10.00">+ solve()</text>
<text text-anchor="start" x="471" y="-7.5" font-family="Helvetica,sans-Serif" font-size="10.00">+ compare()</text>
</a>
</g>
</g>
<!-- Node0&#45;&gt;Node5 -->
<g id="edge5" class="edge"><title>Node0&#45;&gt;Node5</title>
<path fill="none" stroke="midnightblue" d="M402.217,-194.67C425.869,-167.585 452.048,-137.606 473.884,-112.601"/>
<polygon fill="none" stroke="midnightblue" points="399.56,-192.392 395.619,-202.227 404.833,-196.996 399.56,-192.392"/>
</g>
<!-- Node6 -->
<g id="node7" class="node"><title>Node6</title>
<g id="a_node7"><a xlink:href="classMonteCarloSolver.html" target="_top" xlink:title="Memoryless solver that randomly searches the state space. ">
<polygon fill="none" stroke="black" points="599,-17 599,-96 709,-96 709,-17 599,-17"/>
<text text-anchor="middle" x="654" y="-84" font-family="Helvetica,sans-Serif" font-size="10.00">MonteCarloSolver</text>
<polyline fill="none" stroke="black" points="599,-77 709,-77 "/>
<text text-anchor="start" x="607" y="-65" font-family="Helvetica,sans-Serif" font-size="10.00">&#45; r</text>
<polyline fill="none" stroke="black" points="599,-58 709,-58 "/>
<text text-anchor="start" x="607" y="-46" font-family="Helvetica,sans-Serif" font-size="10.00">+ MonteCarloSolver()</text>
<text text-anchor="start" x="607" y="-35" font-family="Helvetica,sans-Serif" font-size="10.00">+ solve()</text>
<text text-anchor="start" x="607" y="-24" font-family="Helvetica,sans-Serif" font-size="10.00">&#45; rnd()</text>
</a>
</g>
</g>
<!-- Node0&#45;&gt;Node6 -->
<g id="edge6" class="edge"><title>Node0&#45;&gt;Node6</title>
<path fill="none" stroke="midnightblue" d="M404.589,-231.98C456.826,-201.698 529.768,-157.353 590,-113 597.106,-107.768 604.396,-101.939 611.394,-96.0816"/>
<polygon fill="none" stroke="midnightblue" points="402.647,-229.059 395.738,-237.091 406.148,-235.121 402.647,-229.059"/>
</g>
</g>
</svg>
