<?xml version="1.0" encoding="UTF-8" standalone="no"?>
<!DOCTYPE svg PUBLIC "-//W3C//DTD SVG 1.1//EN"
 "http://www.w3.org/Graphics/SVG/1.1/DTD/svg11.dtd">
<!-- Generated by graphviz version 2.38.0 (20140413.2041)
 -->
<!-- Title: Game Pages: 1 -->
<svg width="171pt" height="518pt"
 viewBox="0.00 0.00 171.00 518.00" xmlns="http://www.w3.org/2000/svg" xmlns:xlink="http://www.w3.org/1999/xlink">
<g id="graph0" class="graph" transform="scale(1 1) rotate(0) translate(4 514)">
<title>Game</title>
<!-- Node1 -->
<g id="node1" class="node"><title>Node1</title>
<polygon fill="#bfbfbf" stroke="black" points="23,-0.5 23,-79.5 88,-79.5 88,-0.5 23,-0.5"/>
<text text-anchor="middle" x="55.5" y="-67.5" font-family="Helvetica,sans-Serif" font-size="10.00">Game</text>
<polyline fill="none" stroke="black" points="23,-60.5 88,-60.5 "/>
<text text-anchor="middle" x="55.5" y="-48.5" font-family="Helvetica,sans-Serif" font-size="10.00"> </text>
<polyline fill="none" stroke="black" points="23,-41.5 88,-41.5 "/>
<text text-anchor="start" x="31" y="-29.5" font-family="Helvetica,sans-Serif" font-size="10.00">+ ~Game()</text>
<text text-anchor="start" x="31" y="-18.5" font-family="Helvetica,sans-Serif" font-size="10.00">+ Game()</text>
<text text-anchor="start" x="31" y="-7.5" font-family="Helvetica,sans-Serif" font-size="10.00">+ getGoal()</text>
</g>
<!-- Node2 -->
<g id="node2" class="node"><title>Node2</title>
<g id="a_node2"><a xlink:href="classGameState.html" target="_top" xlink:title="Describes a single state in the 8&#45;puzzle. ">
<polygon fill="none" stroke="black" points="-7.10543e-15,-127.5 -7.10543e-15,-382.5 111,-382.5 111,-127.5 -7.10543e-15,-127.5"/>
<text text-anchor="middle" x="55.5" y="-370.5" font-family="Helvetica,sans-Serif" font-size="10.00">GameState</text>
<polyline fill="none" stroke="black" points="-7.10543e-15,-363.5 111,-363.5 "/>
<text text-anchor="middle" x="55.5" y="-351.5" font-family="Helvetica,sans-Serif" font-size="10.00"> </text>
<polyline fill="none" stroke="black" points="-7.10543e-15,-344.5 111,-344.5 "/>
<text text-anchor="start" x="8" y="-332.5" font-family="Helvetica,sans-Serif" font-size="10.00">+ GameState()</text>
<text text-anchor="start" x="8" y="-321.5" font-family="Helvetica,sans-Serif" font-size="10.00">+ GameState()</text>
<text text-anchor="start" x="8" y="-310.5" font-family="Helvetica,sans-Serif" font-size="10.00">+ GameState()</text>
<text text-anchor="start" x="8" y="-299.5" font-family="Helvetica,sans-Serif" font-size="10.00">+ GameState()</text>
<text text-anchor="start" x="8" y="-288.5" font-family="Helvetica,sans-Serif" font-size="10.00">+ ~GameState()</text>
<text text-anchor="start" x="8" y="-277.5" font-family="Helvetica,sans-Serif" font-size="10.00">+ isValid()</text>
<text text-anchor="start" x="8" y="-266.5" font-family="Helvetica,sans-Serif" font-size="10.00">+ operator==()</text>
<text text-anchor="start" x="8" y="-255.5" font-family="Helvetica,sans-Serif" font-size="10.00">+ countInversions()</text>
<text text-anchor="start" x="8" y="-244.5" font-family="Helvetica,sans-Serif" font-size="10.00">+ isSolvable()</text>
<text text-anchor="start" x="8" y="-233.5" font-family="Helvetica,sans-Serif" font-size="10.00">+ operator&lt;()</text>
<text text-anchor="start" x="8" y="-222.5" font-family="Helvetica,sans-Serif" font-size="10.00">+ operator!=()</text>
<text text-anchor="start" x="8" y="-211.5" font-family="Helvetica,sans-Serif" font-size="10.00">+ getDimension()</text>
<text text-anchor="start" x="8" y="-200.5" font-family="Helvetica,sans-Serif" font-size="10.00">+ to_string()</text>
<text text-anchor="start" x="8" y="-189.5" font-family="Helvetica,sans-Serif" font-size="10.00">+ to_line_string()</text>
<text text-anchor="start" x="8" y="-178.5" font-family="Helvetica,sans-Serif" font-size="10.00">+ find()</text>
<text text-anchor="start" x="8" y="-167.5" font-family="Helvetica,sans-Serif" font-size="10.00">+ setRepresentation()</text>
<text text-anchor="start" x="8" y="-156.5" font-family="Helvetica,sans-Serif" font-size="10.00">+ getParent()</text>
<text text-anchor="start" x="8" y="-145.5" font-family="Helvetica,sans-Serif" font-size="10.00">+ getDepth()</text>
<text text-anchor="start" x="8" y="-134.5" font-family="Helvetica,sans-Serif" font-size="10.00">&#45; toIntArray()</text>
</a>
</g>
</g>
<!-- Node2&#45;&gt;Node1 -->
<g id="edge1" class="edge"><title>Node2&#45;&gt;Node1</title>
<path fill="none" stroke="#404040" d="M55.5,-127.328C55.5,-115 55.5,-103.046 55.5,-92.1596"/>
<polygon fill="none" stroke="#404040" points="55.5001,-91.9126 51.5,-85.9127 55.5,-79.9126 59.5,-85.9126 55.5001,-91.9126"/>
<text text-anchor="middle" x="68" y="-101" font-family="Helvetica,sans-Serif" font-size="10.00"> &#45;goal</text>
</g>
<!-- Node2&#45;&gt;Node2 -->
<g id="edge3" class="edge"><title>Node2&#45;&gt;Node2</title>
<path fill="none" stroke="#404040" d="M111.267,-281.681C121.672,-278.396 129,-269.502 129,-255 129,-246.163 126.279,-239.408 121.798,-234.736"/>
<polygon fill="none" stroke="#404040" points="121.514,-234.563 114.309,-234.857 111.267,-228.319 118.472,-228.025 121.514,-234.563"/>
<text text-anchor="middle" x="146" y="-252.5" font-family="Helvetica,sans-Serif" font-size="10.00"> &#45;parent</text>
</g>
<!-- Node3 -->
<g id="node3" class="node"><title>Node3</title>
<polygon fill="none" stroke="#bfbfbf" points="41,-452.5 41,-509.5 70,-509.5 70,-452.5 41,-452.5"/>
<text text-anchor="middle" x="55.5" y="-497.5" font-family="Helvetica,sans-Serif" font-size="10.00">int</text>
<polyline fill="none" stroke="#bfbfbf" points="41,-490.5 70,-490.5 "/>
<text text-anchor="middle" x="55.5" y="-478.5" font-family="Helvetica,sans-Serif" font-size="10.00"> </text>
<polyline fill="none" stroke="#bfbfbf" points="41,-471.5 70,-471.5 "/>
<text text-anchor="middle" x="55.5" y="-459.5" font-family="Helvetica,sans-Serif" font-size="10.00"> </text>
</g>
<!-- Node3&#45;&gt;Node2 -->
<g id="edge2" class="edge"><title>Node3&#45;&gt;Node2</title>
<path fill="none" stroke="#404040" d="M55.5,-452.083C55.5,-436.745 55.5,-416.449 55.5,-394.729"/>
<polygon fill="none" stroke="#404040" points="55.5001,-394.538 51.5,-388.538 55.5,-382.538 59.5,-388.538 55.5001,-394.538"/>
<text text-anchor="middle" x="88" y="-426" font-family="Helvetica,sans-Serif" font-size="10.00"> &#45;dimension</text>
<text text-anchor="middle" x="88" y="-415" font-family="Helvetica,sans-Serif" font-size="10.00">&#45;depth</text>
<text text-anchor="middle" x="88" y="-404" font-family="Helvetica,sans-Serif" font-size="10.00">&#45;representation</text>
</g>
</g>
</svg>
