<?xml version="1.0" encoding="UTF-8" standalone="no"?>
<!DOCTYPE svg PUBLIC "-//W3C//DTD SVG 1.1//EN"
 "http://www.w3.org/Graphics/SVG/1.1/DTD/svg11.dtd">
<!-- Generated by graphviz version 2.38.0 (20140413.2041)
 -->
<!-- Title: AStarSolver::solve Pages: 1 -->
<svg width="293pt" height="46pt"
 viewBox="0.00 0.00 293.00 46.00" xmlns="http://www.w3.org/2000/svg" xmlns:xlink="http://www.w3.org/1999/xlink">
<g id="graph0" class="graph" transform="scale(1 1) rotate(0) translate(4 42)">
<title>AStarSolver::solve</title>
<!-- Node12 -->
<g id="node1" class="node"><title>Node12</title>
<polygon fill="#bfbfbf" stroke="black" points="0,-0.5 0,-19.5 98,-19.5 98,-0.5 0,-0.5"/>
<text text-anchor="middle" x="49" y="-7.5" font-family="Helvetica,sans-Serif" font-size="10.00">AStarSolver::solve</text>
</g>
<!-- Node12&#45;&gt;Node12 -->
<g id="edge3" class="edge"><title>Node12&#45;&gt;Node12</title>
<path fill="none" stroke="midnightblue" d="M26.3066,-29.0292C27.5445,-34.128 35.1089,-38 49,-38 70.6836,-38 76.9515,-28.5653 67.8037,-19.7571"/>
<polygon fill="midnightblue" stroke="midnightblue" points="29.5553,-30.3325 30.1963,-19.7571 23.1003,-27.6246 29.5553,-30.3325"/>
</g>
<!-- Node13 -->
<g id="node2" class="node"><title>Node13</title>
<g id="a_node2"><a xlink:href="main_8cpp.html#ac6c9ec3e7bfe3c929009584766bef20d" target="_top" xlink:title="Creates one of each solver, randomly selects a puzzle from the input file and tests all solvers again...">
<polygon fill="none" stroke="black" points="134,-0.5 134,-19.5 211,-19.5 211,-0.5 134,-0.5"/>
<text text-anchor="middle" x="172.5" y="-7.5" font-family="Helvetica,sans-Serif" font-size="10.00">testAllSolvers</text>
</a>
</g>
</g>
<!-- Node12&#45;&gt;Node13 -->
<g id="edge1" class="edge"><title>Node12&#45;&gt;Node13</title>
<path fill="none" stroke="midnightblue" d="M108.213,-10C116.961,-10 125.779,-10 133.941,-10"/>
<polygon fill="midnightblue" stroke="midnightblue" points="108.02,-6.5001 98.02,-10 108.02,-13.5001 108.02,-6.5001"/>
</g>
<!-- Node14 -->
<g id="node3" class="node"><title>Node14</title>
<g id="a_node3"><a xlink:href="main_8cpp.html#ae66f6b31b5ad750f1fe042a706a4e3d4" target="_top" xlink:title="main">
<polygon fill="none" stroke="black" points="247,-0.5 247,-19.5 285,-19.5 285,-0.5 247,-0.5"/>
<text text-anchor="middle" x="266" y="-7.5" font-family="Helvetica,sans-Serif" font-size="10.00">main</text>
</a>
</g>
</g>
<!-- Node13&#45;&gt;Node14 -->
<g id="edge2" class="edge"><title>Node13&#45;&gt;Node14</title>
<path fill="none" stroke="midnightblue" d="M221.362,-10C230.347,-10 239.223,-10 246.601,-10"/>
<polygon fill="midnightblue" stroke="midnightblue" points="221.245,-6.5001 211.245,-10 221.245,-13.5001 221.245,-6.5001"/>
</g>
</g>
</svg>
