<?xml version="1.0" encoding="UTF-8" standalone="no"?>
<!DOCTYPE svg PUBLIC "-//W3C//DTD SVG 1.1//EN"
 "http://www.w3.org/Graphics/SVG/1.1/DTD/svg11.dtd">
<!-- Generated by graphviz version 2.38.0 (20140413.2041)
 -->
<!-- Title: Game::Game Pages: 1 -->
<svg width="283pt" height="104pt"
 viewBox="0.00 0.00 283.00 104.00" xmlns="http://www.w3.org/2000/svg" xmlns:xlink="http://www.w3.org/1999/xlink">
<g id="graph0" class="graph" transform="scale(1 1) rotate(0) translate(4 100)">
<title>Game::Game</title>
<!-- Node5 -->
<g id="node1" class="node"><title>Node5</title>
<polygon fill="#bfbfbf" stroke="black" points="0,-38.5 0,-57.5 75,-57.5 75,-38.5 0,-38.5"/>
<text text-anchor="middle" x="37.5" y="-45.5" font-family="Helvetica,sans-Serif" font-size="10.00">Game::Game</text>
</g>
<!-- Node6 -->
<g id="node2" class="node"><title>Node6</title>
<g id="a_node2"><a xlink:href="main_8cpp.html#ab8923421a0b0b96ad6b6d7cf25d7bc35" target="_top" xlink:title="Checks if the goal state is correctly generated. ">
<polygon fill="none" stroke="black" points="111,-76.5 111,-95.5 201,-95.5 201,-76.5 111,-76.5"/>
<text text-anchor="middle" x="156" y="-83.5" font-family="Helvetica,sans-Serif" font-size="10.00">testGoalCreation</text>
</a>
</g>
</g>
<!-- Node5&#45;&gt;Node6 -->
<g id="edge1" class="edge"><title>Node5&#45;&gt;Node6</title>
<path fill="none" stroke="midnightblue" d="M77.8216,-60.8259C93.4534,-65.9247 111.126,-71.6891 125.612,-76.4141"/>
<polygon fill="midnightblue" stroke="midnightblue" points="78.4903,-57.3626 67.8979,-57.589 76.3195,-64.0175 78.4903,-57.3626"/>
</g>
<!-- Node7 -->
<g id="node3" class="node"><title>Node7</title>
<g id="a_node3"><a xlink:href="main_8cpp.html#a114d586c6a5d1a4ea66a6793eb6a1fcc" target="_top" xlink:title="Tests the fastest solvers against all of the puzzles. ">
<polygon fill="none" stroke="black" points="113,-38.5 113,-57.5 199,-57.5 199,-38.5 113,-38.5"/>
<text text-anchor="middle" x="156" y="-45.5" font-family="Helvetica,sans-Serif" font-size="10.00">testFastSolvers</text>
</a>
</g>
</g>
<!-- Node5&#45;&gt;Node7 -->
<g id="edge2" class="edge"><title>Node5&#45;&gt;Node7</title>
<path fill="none" stroke="midnightblue" d="M85.1661,-48C94.3285,-48 103.889,-48 112.892,-48"/>
<polygon fill="midnightblue" stroke="midnightblue" points="85.0417,-44.5001 75.0417,-48 85.0417,-51.5001 85.0417,-44.5001"/>
</g>
<!-- Node8 -->
<g id="node4" class="node"><title>Node8</title>
<g id="a_node4"><a xlink:href="main_8cpp.html#ac6c9ec3e7bfe3c929009584766bef20d" target="_top" xlink:title="Creates one of each solver, randomly selects a puzzle from the input file and tests all solvers again...">
<polygon fill="none" stroke="black" points="117.5,-0.5 117.5,-19.5 194.5,-19.5 194.5,-0.5 117.5,-0.5"/>
<text text-anchor="middle" x="156" y="-7.5" font-family="Helvetica,sans-Serif" font-size="10.00">testAllSolvers</text>
</a>
</g>
</g>
<!-- Node5&#45;&gt;Node8 -->
<g id="edge3" class="edge"><title>Node5&#45;&gt;Node8</title>
<path fill="none" stroke="midnightblue" d="M77.8216,-35.1741C93.4534,-30.0753 111.126,-24.3109 125.612,-19.5859"/>
<polygon fill="midnightblue" stroke="midnightblue" points="76.3195,-31.9825 67.8979,-38.411 78.4903,-38.6374 76.3195,-31.9825"/>
</g>
<!-- Node9 -->
<g id="node5" class="node"><title>Node9</title>
<g id="a_node5"><a xlink:href="main_8cpp.html#ae66f6b31b5ad750f1fe042a706a4e3d4" target="_top" xlink:title="main">
<polygon fill="none" stroke="black" points="237,-0.5 237,-19.5 275,-19.5 275,-0.5 237,-0.5"/>
<text text-anchor="middle" x="256" y="-7.5" font-family="Helvetica,sans-Serif" font-size="10.00">main</text>
</a>
</g>
</g>
<!-- Node8&#45;&gt;Node9 -->
<g id="edge4" class="edge"><title>Node8&#45;&gt;Node9</title>
<path fill="none" stroke="midnightblue" d="M204.942,-10C216.292,-10 227.718,-10 236.782,-10"/>
<polygon fill="midnightblue" stroke="midnightblue" points="204.609,-6.5001 194.609,-10 204.609,-13.5001 204.609,-6.5001"/>
</g>
</g>
</svg>
