<?xml version="1.0" encoding="UTF-8" standalone="no"?>
<!DOCTYPE svg PUBLIC "-//W3C//DTD SVG 1.1//EN"
 "http://www.w3.org/Graphics/SVG/1.1/DTD/svg11.dtd">
<!-- Generated by graphviz version 2.38.0 (20140413.2041)
 -->
<!-- Title: HillClimbingSolver::compare Pages: 1 -->
<svg width="395pt" height="39pt"
 viewBox="0.00 0.00 395.00 39.00" xmlns="http://www.w3.org/2000/svg" xmlns:xlink="http://www.w3.org/1999/xlink">
<g id="graph0" class="graph" transform="scale(1 1) rotate(0) translate(4 35)">
<title>HillClimbingSolver::compare</title>
<!-- Node10 -->
<g id="node1" class="node"><title>Node10</title>
<polygon fill="#bfbfbf" stroke="black" points="0,-0.5 0,-30.5 97,-30.5 97,-0.5 0,-0.5"/>
<text text-anchor="start" x="8" y="-18.5" font-family="Helvetica,sans-Serif" font-size="10.00">HillClimbingSolver</text>
<text text-anchor="middle" x="48.5" y="-7.5" font-family="Helvetica,sans-Serif" font-size="10.00">::compare</text>
</g>
<!-- Node11 -->
<g id="node2" class="node"><title>Node11</title>
<g id="a_node2"><a xlink:href="classManhattan.html#a3160ab4be17834ebe0ffc1b2c3a39a80" target="_top" xlink:title="Calculates the heuristic value for a state. ">
<polygon fill="none" stroke="black" points="133,-6 133,-25 219,-25 219,-6 133,-6"/>
<text text-anchor="middle" x="176" y="-13" font-family="Helvetica,sans-Serif" font-size="10.00">Manhattan::calc</text>
</a>
</g>
</g>
<!-- Node10&#45;&gt;Node11 -->
<g id="edge1" class="edge"><title>Node10&#45;&gt;Node11</title>
<path fill="none" stroke="midnightblue" d="M97.3042,-15.5C105.578,-15.5 114.219,-15.5 122.607,-15.5"/>
<polygon fill="midnightblue" stroke="midnightblue" points="122.67,-19.0001 132.67,-15.5 122.67,-12.0001 122.67,-19.0001"/>
</g>
<!-- Node12 -->
<g id="node3" class="node"><title>Node12</title>
<g id="a_node3"><a xlink:href="classGameState.html#ac331f87dcabb71ca7a9d4c316b384a14" target="_top" xlink:title="GameState::getDimension">
<polygon fill="none" stroke="black" points="255,-6 255,-25 387,-25 387,-6 255,-6"/>
<text text-anchor="middle" x="321" y="-13" font-family="Helvetica,sans-Serif" font-size="10.00">GameState::getDimension</text>
</a>
</g>
</g>
<!-- Node11&#45;&gt;Node12 -->
<g id="edge2" class="edge"><title>Node11&#45;&gt;Node12</title>
<path fill="none" stroke="midnightblue" d="M219.131,-15.5C227.184,-15.5 235.839,-15.5 244.573,-15.5"/>
<polygon fill="midnightblue" stroke="midnightblue" points="244.829,-19.0001 254.829,-15.5 244.829,-12.0001 244.829,-19.0001"/>
</g>
</g>
</svg>
