<?xml version="1.0" encoding="UTF-8" standalone="no"?>
<!DOCTYPE svg PUBLIC "-//W3C//DTD SVG 1.1//EN"
 "http://www.w3.org/Graphics/SVG/1.1/DTD/svg11.dtd">
<!-- Generated by graphviz version 2.38.0 (20140413.2041)
 -->
<!-- Title: GameState::find Pages: 1 -->
<svg width="531pt" height="66pt"
 viewBox="0.00 0.00 531.00 66.00" xmlns="http://www.w3.org/2000/svg" xmlns:xlink="http://www.w3.org/1999/xlink">
<g id="graph0" class="graph" transform="scale(1 1) rotate(0) translate(4 62)">
<title>GameState::find</title>
<!-- Node22 -->
<g id="node1" class="node"><title>Node22</title>
<polygon fill="#bfbfbf" stroke="black" points="0,-19.5 0,-38.5 88,-38.5 88,-19.5 0,-19.5"/>
<text text-anchor="middle" x="44" y="-26.5" font-family="Helvetica,sans-Serif" font-size="10.00">GameState::find</text>
</g>
<!-- Node23 -->
<g id="node2" class="node"><title>Node23</title>
<g id="a_node2"><a xlink:href="classGameState.html#a0999d7e2a8ada07f008663ca85930c79" target="_top" xlink:title="Creates a new state based on a given previous state and applying an action to it. ...">
<polygon fill="none" stroke="black" points="261,-38.5 261,-57.5 383,-57.5 383,-38.5 261,-38.5"/>
<text text-anchor="middle" x="322" y="-45.5" font-family="Helvetica,sans-Serif" font-size="10.00">GameState::GameState</text>
</a>
</g>
</g>
<!-- Node22&#45;&gt;Node23 -->
<g id="edge1" class="edge"><title>Node22&#45;&gt;Node23</title>
<path fill="none" stroke="midnightblue" d="M98.305,-32.6695C144.833,-35.8725 212.304,-40.5173 260.772,-43.8538"/>
<polygon fill="midnightblue" stroke="midnightblue" points="98.3418,-29.1639 88.125,-31.9688 97.861,-36.1474 98.3418,-29.1639"/>
</g>
<!-- Node25 -->
<g id="node4" class="node"><title>Node25</title>
<g id="a_node4"><a xlink:href="classGameState.html#a1a5a65954a51e691971f626dcb9e0f40" target="_top" xlink:title="Checks whether an action is valid for this state. ">
<polygon fill="none" stroke="black" points="124,-0.5 124,-19.5 225,-19.5 225,-0.5 124,-0.5"/>
<text text-anchor="middle" x="174.5" y="-7.5" font-family="Helvetica,sans-Serif" font-size="10.00">GameState::isValid</text>
</a>
</g>
</g>
<!-- Node22&#45;&gt;Node25 -->
<g id="edge3" class="edge"><title>Node22&#45;&gt;Node25</title>
<path fill="none" stroke="midnightblue" d="M98.2184,-21.1311C106.614,-19.8898 115.269,-18.6101 123.586,-17.3803"/>
<polygon fill="midnightblue" stroke="midnightblue" points="97.5266,-17.6953 88.1461,-22.6204 98.5505,-24.62 97.5266,-17.6953"/>
</g>
<!-- Node24 -->
<g id="node3" class="node"><title>Node24</title>
<g id="a_node3"><a xlink:href="main_8cpp.html#a5b9f767b5cb710c0aaa16939eca00e66" target="_top" xlink:title="Gets a puzzle and performs a series of actions in it to test transitions. ">
<polygon fill="none" stroke="black" points="419,-19.5 419,-38.5 523,-38.5 523,-19.5 419,-19.5"/>
<text text-anchor="middle" x="471" y="-26.5" font-family="Helvetica,sans-Serif" font-size="10.00">testStateTransitions</text>
</a>
</g>
</g>
<!-- Node23&#45;&gt;Node24 -->
<g id="edge2" class="edge"><title>Node23&#45;&gt;Node24</title>
<path fill="none" stroke="midnightblue" d="M393.199,-38.9267C401.751,-37.8213 410.363,-36.7082 418.57,-35.6474"/>
<polygon fill="midnightblue" stroke="midnightblue" points="392.683,-35.4641 383.215,-40.2172 393.581,-42.4063 392.683,-35.4641"/>
</g>
<!-- Node25&#45;&gt;Node23 -->
<g id="edge5" class="edge"><title>Node25&#45;&gt;Node23</title>
<path fill="none" stroke="midnightblue" d="M222.153,-22.1843C242.353,-27.46 265.648,-33.5438 284.548,-38.4799"/>
<polygon fill="midnightblue" stroke="midnightblue" points="222.776,-18.7296 212.216,-19.589 221.007,-25.5024 222.776,-18.7296"/>
</g>
<!-- Node25&#45;&gt;Node24 -->
<g id="edge4" class="edge"><title>Node25&#45;&gt;Node24</title>
<path fill="none" stroke="midnightblue" d="M235.225,-13.8532C289.118,-17.3302 367.562,-22.3911 418.686,-25.6894"/>
<polygon fill="midnightblue" stroke="midnightblue" points="235.33,-10.3528 225.125,-13.2016 234.879,-17.3383 235.33,-10.3528"/>
</g>
</g>
</svg>
