<?xml version="1.0" encoding="UTF-8" standalone="no"?>
<!DOCTYPE svg PUBLIC "-//W3C//DTD SVG 1.1//EN"
 "http://www.w3.org/Graphics/SVG/1.1/DTD/svg11.dtd">
<!-- Generated by graphviz version 2.38.0 (20140413.2041)
 -->
<!-- Title: GameState::setRepresentation Pages: 1 -->
<svg width="471pt" height="104pt"
 viewBox="0.00 0.00 471.00 104.00" xmlns="http://www.w3.org/2000/svg" xmlns:xlink="http://www.w3.org/1999/xlink">
<g id="graph0" class="graph" transform="scale(1 1) rotate(0) translate(4 100)">
<title>GameState::setRepresentation</title>
<!-- Node58 -->
<g id="node1" class="node"><title>Node58</title>
<polygon fill="#bfbfbf" stroke="black" points="0,-38.5 0,-57.5 152,-57.5 152,-38.5 0,-38.5"/>
<text text-anchor="middle" x="76" y="-45.5" font-family="Helvetica,sans-Serif" font-size="10.00">GameState::setRepresentation</text>
</g>
<!-- Node59 -->
<g id="node2" class="node"><title>Node59</title>
<g id="a_node2"><a xlink:href="classGame.html#ad3adcd1c4d46c6412e1fd2958bb2f72b" target="_top" xlink:title="Creates a game representation and keeps a GameState of the goal state. ">
<polygon fill="none" stroke="black" points="188,-38.5 188,-57.5 263,-57.5 263,-38.5 188,-38.5"/>
<text text-anchor="middle" x="225.5" y="-45.5" font-family="Helvetica,sans-Serif" font-size="10.00">Game::Game</text>
</a>
</g>
</g>
<!-- Node58&#45;&gt;Node59 -->
<g id="edge1" class="edge"><title>Node58&#45;&gt;Node59</title>
<path fill="none" stroke="midnightblue" d="M162.165,-48C171.067,-48 179.741,-48 187.653,-48"/>
<polygon fill="midnightblue" stroke="midnightblue" points="162.046,-44.5001 152.046,-48 162.046,-51.5001 162.046,-44.5001"/>
</g>
<!-- Node60 -->
<g id="node3" class="node"><title>Node60</title>
<g id="a_node3"><a xlink:href="main_8cpp.html#ab8923421a0b0b96ad6b6d7cf25d7bc35" target="_top" xlink:title="Checks if the goal state is correctly generated. ">
<polygon fill="none" stroke="black" points="299,-76.5 299,-95.5 389,-95.5 389,-76.5 299,-76.5"/>
<text text-anchor="middle" x="344" y="-83.5" font-family="Helvetica,sans-Serif" font-size="10.00">testGoalCreation</text>
</a>
</g>
</g>
<!-- Node59&#45;&gt;Node60 -->
<g id="edge2" class="edge"><title>Node59&#45;&gt;Node60</title>
<path fill="none" stroke="midnightblue" d="M265.822,-60.8259C281.453,-65.9247 299.126,-71.6891 313.612,-76.4141"/>
<polygon fill="midnightblue" stroke="midnightblue" points="266.49,-57.3626 255.898,-57.589 264.32,-64.0175 266.49,-57.3626"/>
</g>
<!-- Node61 -->
<g id="node4" class="node"><title>Node61</title>
<g id="a_node4"><a xlink:href="main_8cpp.html#a114d586c6a5d1a4ea66a6793eb6a1fcc" target="_top" xlink:title="Tests the fastest solvers against all of the puzzles. ">
<polygon fill="none" stroke="black" points="301,-38.5 301,-57.5 387,-57.5 387,-38.5 301,-38.5"/>
<text text-anchor="middle" x="344" y="-45.5" font-family="Helvetica,sans-Serif" font-size="10.00">testFastSolvers</text>
</a>
</g>
</g>
<!-- Node59&#45;&gt;Node61 -->
<g id="edge3" class="edge"><title>Node59&#45;&gt;Node61</title>
<path fill="none" stroke="midnightblue" d="M273.166,-48C282.329,-48 291.889,-48 300.892,-48"/>
<polygon fill="midnightblue" stroke="midnightblue" points="273.042,-44.5001 263.042,-48 273.042,-51.5001 273.042,-44.5001"/>
</g>
<!-- Node62 -->
<g id="node5" class="node"><title>Node62</title>
<g id="a_node5"><a xlink:href="main_8cpp.html#ac6c9ec3e7bfe3c929009584766bef20d" target="_top" xlink:title="Creates one of each solver, randomly selects a puzzle from the input file and tests all solvers again...">
<polygon fill="none" stroke="black" points="305.5,-0.5 305.5,-19.5 382.5,-19.5 382.5,-0.5 305.5,-0.5"/>
<text text-anchor="middle" x="344" y="-7.5" font-family="Helvetica,sans-Serif" font-size="10.00">testAllSolvers</text>
</a>
</g>
</g>
<!-- Node59&#45;&gt;Node62 -->
<g id="edge4" class="edge"><title>Node59&#45;&gt;Node62</title>
<path fill="none" stroke="midnightblue" d="M265.822,-35.1741C281.453,-30.0753 299.126,-24.3109 313.612,-19.5859"/>
<polygon fill="midnightblue" stroke="midnightblue" points="264.32,-31.9825 255.898,-38.411 266.49,-38.6374 264.32,-31.9825"/>
</g>
<!-- Node63 -->
<g id="node6" class="node"><title>Node63</title>
<g id="a_node6"><a xlink:href="main_8cpp.html#ae66f6b31b5ad750f1fe042a706a4e3d4" target="_top" xlink:title="main">
<polygon fill="none" stroke="black" points="425,-0.5 425,-19.5 463,-19.5 463,-0.5 425,-0.5"/>
<text text-anchor="middle" x="444" y="-7.5" font-family="Helvetica,sans-Serif" font-size="10.00">main</text>
</a>
</g>
</g>
<!-- Node62&#45;&gt;Node63 -->
<g id="edge5" class="edge"><title>Node62&#45;&gt;Node63</title>
<path fill="none" stroke="midnightblue" d="M392.942,-10C404.292,-10 415.718,-10 424.782,-10"/>
<polygon fill="midnightblue" stroke="midnightblue" points="392.609,-6.5001 382.609,-10 392.609,-13.5001 392.609,-6.5001"/>
</g>
</g>
</svg>
