<?xml version="1.0" encoding="UTF-8" standalone="no"?>
<!DOCTYPE svg PUBLIC "-//W3C//DTD SVG 1.1//EN"
 "http://www.w3.org/Graphics/SVG/1.1/DTD/svg11.dtd">
<!-- Generated by graphviz version 2.38.0 (20140413.2041)
 -->
<!-- Title: Heuristic Pages: 1 -->
<svg width="166pt" height="160pt"
 viewBox="0.00 0.00 165.50 160.00" xmlns="http://www.w3.org/2000/svg" xmlns:xlink="http://www.w3.org/1999/xlink">
<g id="graph0" class="graph" transform="scale(1 1) rotate(0) translate(4 156)">
<title>Heuristic</title>
<!-- Node0 -->
<g id="node1" class="node"><title>Node0</title>
<polygon fill="#bfbfbf" stroke="black" points="47,-94.5 47,-151.5 103,-151.5 103,-94.5 47,-94.5"/>
<text text-anchor="middle" x="75" y="-139.5" font-family="Helvetica,sans-Serif" font-size="10.00">Heuristic</text>
<polyline fill="none" stroke="black" points="47,-132.5 103,-132.5 "/>
<text text-anchor="middle" x="75" y="-120.5" font-family="Helvetica,sans-Serif" font-size="10.00"> </text>
<polyline fill="none" stroke="black" points="47,-113.5 103,-113.5 "/>
<text text-anchor="start" x="55" y="-101.5" font-family="Helvetica,sans-Serif" font-size="10.00">+ calc()</text>
</g>
<!-- Node1 -->
<g id="node2" class="node"><title>Node1</title>
<g id="a_node2"><a xlink:href="classManhattan.html" target="_top" xlink:title="Implementation of the Manhattan distance for the 8&#45;puzzle. ">
<polygon fill="none" stroke="black" points="0,-0.5 0,-57.5 62,-57.5 62,-0.5 0,-0.5"/>
<text text-anchor="middle" x="31" y="-45.5" font-family="Helvetica,sans-Serif" font-size="10.00">Manhattan</text>
<polyline fill="none" stroke="black" points="0,-38.5 62,-38.5 "/>
<text text-anchor="middle" x="31" y="-26.5" font-family="Helvetica,sans-Serif" font-size="10.00"> </text>
<polyline fill="none" stroke="black" points="0,-19.5 62,-19.5 "/>
<text text-anchor="start" x="8" y="-7.5" font-family="Helvetica,sans-Serif" font-size="10.00">+ calc()</text>
</a>
</g>
</g>
<!-- Node0&#45;&gt;Node1 -->
<g id="edge1" class="edge"><title>Node0&#45;&gt;Node1</title>
<path fill="none" stroke="midnightblue" d="M57.4811,-85.3697C53.0512,-76.107 48.3681,-66.3151 44.1921,-57.5836"/>
<polygon fill="none" stroke="midnightblue" points="54.3265,-86.8857 61.7985,-94.397 60.6414,-83.8655 54.3265,-86.8857"/>
</g>
<!-- Node2 -->
<g id="node3" class="node"><title>Node2</title>
<g id="a_node3"><a xlink:href="classTileDifference.html" target="_top" xlink:title="Implementation of the tile difference heuristic for the 8&#45;puzzle. ">
<polygon fill="none" stroke="black" points="80.5,-0.5 80.5,-57.5 157.5,-57.5 157.5,-0.5 80.5,-0.5"/>
<text text-anchor="middle" x="119" y="-45.5" font-family="Helvetica,sans-Serif" font-size="10.00">TileDifference</text>
<polyline fill="none" stroke="black" points="80.5,-38.5 157.5,-38.5 "/>
<text text-anchor="middle" x="119" y="-26.5" font-family="Helvetica,sans-Serif" font-size="10.00"> </text>
<polyline fill="none" stroke="black" points="80.5,-19.5 157.5,-19.5 "/>
<text text-anchor="start" x="88.5" y="-7.5" font-family="Helvetica,sans-Serif" font-size="10.00">+ calc()</text>
</a>
</g>
</g>
<!-- Node0&#45;&gt;Node2 -->
<g id="edge2" class="edge"><title>Node0&#45;&gt;Node2</title>
<path fill="none" stroke="midnightblue" d="M92.5189,-85.3697C96.9488,-76.107 101.632,-66.3151 105.808,-57.5836"/>
<polygon fill="none" stroke="midnightblue" points="89.3586,-83.8655 88.2015,-94.397 95.6735,-86.8857 89.3586,-83.8655"/>
</g>
</g>
</svg>
