<?xml version="1.0" encoding="UTF-8" standalone="no"?>
<!DOCTYPE svg PUBLIC "-//W3C//DTD SVG 1.1//EN"
 "http://www.w3.org/Graphics/SVG/1.1/DTD/svg11.dtd">
<!-- Generated by graphviz version 2.38.0 (20140413.2041)
 -->
<!-- Title: BreadthFirstSolver::solve Pages: 1 -->
<svg width="293pt" height="57pt"
 viewBox="0.00 0.00 293.00 57.00" xmlns="http://www.w3.org/2000/svg" xmlns:xlink="http://www.w3.org/1999/xlink">
<g id="graph0" class="graph" transform="scale(1 1) rotate(0) translate(4 53)">
<title>BreadthFirstSolver::solve</title>
<!-- Node1 -->
<g id="node1" class="node"><title>Node1</title>
<polygon fill="#bfbfbf" stroke="black" points="0,-0.5 0,-30.5 98,-30.5 98,-0.5 0,-0.5"/>
<text text-anchor="start" x="8" y="-18.5" font-family="Helvetica,sans-Serif" font-size="10.00">BreadthFirstSolver</text>
<text text-anchor="middle" x="49" y="-7.5" font-family="Helvetica,sans-Serif" font-size="10.00">::solve</text>
</g>
<!-- Node1&#45;&gt;Node1 -->
<g id="edge3" class="edge"><title>Node1&#45;&gt;Node1</title>
<path fill="none" stroke="midnightblue" d="M27.3221,-40.9579C30.0126,-45.679 37.2386,-49 49,-49 68.3008,-49 75.3878,-40.0566 70.261,-30.659"/>
<polygon fill="midnightblue" stroke="midnightblue" points="30.8315,-40.7924 27.739,-30.659 23.8373,-40.5092 30.8315,-40.7924"/>
</g>
<!-- Node2 -->
<g id="node2" class="node"><title>Node2</title>
<g id="a_node2"><a xlink:href="main_8cpp.html#ac6c9ec3e7bfe3c929009584766bef20d" target="_top" xlink:title="Creates one of each solver, randomly selects a puzzle from the input file and tests all solvers again...">
<polygon fill="none" stroke="black" points="134,-6 134,-25 211,-25 211,-6 134,-6"/>
<text text-anchor="middle" x="172.5" y="-13" font-family="Helvetica,sans-Serif" font-size="10.00">testAllSolvers</text>
</a>
</g>
</g>
<!-- Node1&#45;&gt;Node2 -->
<g id="edge1" class="edge"><title>Node1&#45;&gt;Node2</title>
<path fill="none" stroke="midnightblue" d="M108.213,-15.5C116.961,-15.5 125.779,-15.5 133.941,-15.5"/>
<polygon fill="midnightblue" stroke="midnightblue" points="108.02,-12.0001 98.02,-15.5 108.02,-19.0001 108.02,-12.0001"/>
</g>
<!-- Node3 -->
<g id="node3" class="node"><title>Node3</title>
<g id="a_node3"><a xlink:href="main_8cpp.html#ae66f6b31b5ad750f1fe042a706a4e3d4" target="_top" xlink:title="main">
<polygon fill="none" stroke="black" points="247,-6 247,-25 285,-25 285,-6 247,-6"/>
<text text-anchor="middle" x="266" y="-13" font-family="Helvetica,sans-Serif" font-size="10.00">main</text>
</a>
</g>
</g>
<!-- Node2&#45;&gt;Node3 -->
<g id="edge2" class="edge"><title>Node2&#45;&gt;Node3</title>
<path fill="none" stroke="midnightblue" d="M221.362,-15.5C230.347,-15.5 239.223,-15.5 246.601,-15.5"/>
<polygon fill="midnightblue" stroke="midnightblue" points="221.245,-12.0001 211.245,-15.5 221.245,-19.0001 221.245,-12.0001"/>
</g>
</g>
</svg>
