<?xml version="1.0" encoding="UTF-8" standalone="no"?>
<!DOCTYPE svg PUBLIC "-//W3C//DTD SVG 1.1//EN"
 "http://www.w3.org/Graphics/SVG/1.1/DTD/svg11.dtd">
<!-- Generated by graphviz version 2.38.0 (20140413.2041)
 -->
<!-- Title: AStarSolver::compare Pages: 1 -->
<svg width="437pt" height="66pt"
 viewBox="0.00 0.00 437.00 66.00" xmlns="http://www.w3.org/2000/svg" xmlns:xlink="http://www.w3.org/1999/xlink">
<g id="graph0" class="graph" transform="scale(1 1) rotate(0) translate(4 62)">
<title>AStarSolver::compare</title>
<!-- Node6 -->
<g id="node1" class="node"><title>Node6</title>
<polygon fill="#bfbfbf" stroke="black" points="0,-19.5 0,-38.5 113,-38.5 113,-19.5 0,-19.5"/>
<text text-anchor="middle" x="56.5" y="-26.5" font-family="Helvetica,sans-Serif" font-size="10.00">AStarSolver::compare</text>
</g>
<!-- Node7 -->
<g id="node2" class="node"><title>Node7</title>
<g id="a_node2"><a xlink:href="classManhattan.html#a3160ab4be17834ebe0ffc1b2c3a39a80" target="_top" xlink:title="Calculates the heuristic value for a state. ">
<polygon fill="none" stroke="black" points="162,-38.5 162,-57.5 248,-57.5 248,-38.5 162,-38.5"/>
<text text-anchor="middle" x="205" y="-45.5" font-family="Helvetica,sans-Serif" font-size="10.00">Manhattan::calc</text>
</a>
</g>
</g>
<!-- Node6&#45;&gt;Node7 -->
<g id="edge1" class="edge"><title>Node6&#45;&gt;Node7</title>
<path fill="none" stroke="midnightblue" d="M113.303,-36.2373C125.811,-37.8595 139.04,-39.5752 151.413,-41.1798"/>
<polygon fill="midnightblue" stroke="midnightblue" points="151.202,-44.6817 161.569,-42.497 152.103,-37.7399 151.202,-44.6817"/>
</g>
<!-- Node9 -->
<g id="node4" class="node"><title>Node9</title>
<g id="a_node4"><a xlink:href="classGameState.html#a41c95142240883acdc188607649143c3" target="_top" xlink:title="GameState::getDepth">
<polygon fill="none" stroke="black" points="149,-0.5 149,-19.5 261,-19.5 261,-0.5 149,-0.5"/>
<text text-anchor="middle" x="205" y="-7.5" font-family="Helvetica,sans-Serif" font-size="10.00">GameState::getDepth</text>
</a>
</g>
</g>
<!-- Node6&#45;&gt;Node9 -->
<g id="edge3" class="edge"><title>Node6&#45;&gt;Node9</title>
<path fill="none" stroke="midnightblue" d="M113.303,-21.7627C121.672,-20.6773 130.364,-19.55 138.906,-18.4422"/>
<polygon fill="midnightblue" stroke="midnightblue" points="139.37,-21.9115 148.836,-17.1543 138.469,-14.9696 139.37,-21.9115"/>
</g>
<!-- Node8 -->
<g id="node3" class="node"><title>Node8</title>
<g id="a_node3"><a xlink:href="classGameState.html#ac331f87dcabb71ca7a9d4c316b384a14" target="_top" xlink:title="GameState::getDimension">
<polygon fill="none" stroke="black" points="297,-38.5 297,-57.5 429,-57.5 429,-38.5 297,-38.5"/>
<text text-anchor="middle" x="363" y="-45.5" font-family="Helvetica,sans-Serif" font-size="10.00">GameState::getDimension</text>
</a>
</g>
</g>
<!-- Node7&#45;&gt;Node8 -->
<g id="edge2" class="edge"><title>Node7&#45;&gt;Node8</title>
<path fill="none" stroke="midnightblue" d="M248.216,-48C260.152,-48 273.516,-48 286.773,-48"/>
<polygon fill="midnightblue" stroke="midnightblue" points="286.864,-51.5001 296.864,-48 286.864,-44.5001 286.864,-51.5001"/>
</g>
</g>
</svg>
