<?xml version="1.0" encoding="UTF-8" standalone="no"?>
<!DOCTYPE svg PUBLIC "-//W3C//DTD SVG 1.1//EN"
 "http://www.w3.org/Graphics/SVG/1.1/DTD/svg11.dtd">
<!-- Generated by graphviz version 2.38.0 (20140413.2041)
 -->
<!-- Title: Manhattan Pages: 1 -->
<svg width="70pt" height="160pt"
 viewBox="0.00 0.00 70.00 160.00" xmlns="http://www.w3.org/2000/svg" xmlns:xlink="http://www.w3.org/1999/xlink">
<g id="graph0" class="graph" transform="scale(1 1) rotate(0) translate(4 156)">
<title>Manhattan</title>
<!-- Node2 -->
<g id="node1" class="node"><title>Node2</title>
<polygon fill="#bfbfbf" stroke="black" points="-3.55271e-15,-0.5 -3.55271e-15,-57.5 62,-57.5 62,-0.5 -3.55271e-15,-0.5"/>
<text text-anchor="middle" x="31" y="-45.5" font-family="Helvetica,sans-Serif" font-size="10.00">Manhattan</text>
<polyline fill="none" stroke="black" points="-3.55271e-15,-38.5 62,-38.5 "/>
<text text-anchor="middle" x="31" y="-26.5" font-family="Helvetica,sans-Serif" font-size="10.00"> </text>
<polyline fill="none" stroke="black" points="-3.55271e-15,-19.5 62,-19.5 "/>
<text text-anchor="start" x="8" y="-7.5" font-family="Helvetica,sans-Serif" font-size="10.00">+ calc()</text>
</g>
<!-- Node3 -->
<g id="node2" class="node"><title>Node3</title>
<g id="a_node2"><a xlink:href="classHeuristic.html" target="_top" xlink:title="Abtract class for heuristic functions. ">
<polygon fill="none" stroke="black" points="3,-94.5 3,-151.5 59,-151.5 59,-94.5 3,-94.5"/>
<text text-anchor="middle" x="31" y="-139.5" font-family="Helvetica,sans-Serif" font-size="10.00">Heuristic</text>
<polyline fill="none" stroke="black" points="3,-132.5 59,-132.5 "/>
<text text-anchor="middle" x="31" y="-120.5" font-family="Helvetica,sans-Serif" font-size="10.00"> </text>
<polyline fill="none" stroke="black" points="3,-113.5 59,-113.5 "/>
<text text-anchor="start" x="11" y="-101.5" font-family="Helvetica,sans-Serif" font-size="10.00">+ calc()</text>
</a>
</g>
</g>
<!-- Node3&#45;&gt;Node2 -->
<g id="edge1" class="edge"><title>Node3&#45;&gt;Node2</title>
<path fill="none" stroke="midnightblue" d="M31,-84.2092C31,-75.2929 31,-65.9513 31,-57.5836"/>
<polygon fill="none" stroke="midnightblue" points="27.5001,-84.3969 31,-94.397 34.5001,-84.397 27.5001,-84.3969"/>
</g>
</g>
</svg>
