<?xml version="1.0" encoding="UTF-8" standalone="no"?>
<!DOCTYPE svg PUBLIC "-//W3C//DTD SVG 1.1//EN"
 "http://www.w3.org/Graphics/SVG/1.1/DTD/svg11.dtd">
<!-- Generated by graphviz version 2.38.0 (20140413.2041)
 -->
<!-- Title: HillClimbingSolver Pages: 1 -->
<svg width="453pt" height="474pt"
 viewBox="0.00 0.00 452.50 474.00" xmlns="http://www.w3.org/2000/svg" xmlns:xlink="http://www.w3.org/1999/xlink">
<g id="graph0" class="graph" transform="scale(1 1) rotate(0) translate(4 470)">
<title>HillClimbingSolver</title>
<!-- Node2 -->
<g id="node1" class="node"><title>Node2</title>
<polygon fill="#bfbfbf" stroke="black" points="267.5,-0.5 267.5,-101.5 385.5,-101.5 385.5,-0.5 267.5,-0.5"/>
<text text-anchor="middle" x="326.5" y="-89.5" font-family="Helvetica,sans-Serif" font-size="10.00">HillClimbingSolver</text>
<polyline fill="none" stroke="black" points="267.5,-82.5 385.5,-82.5 "/>
<text text-anchor="middle" x="326.5" y="-70.5" font-family="Helvetica,sans-Serif" font-size="10.00"> </text>
<polyline fill="none" stroke="black" points="267.5,-63.5 385.5,-63.5 "/>
<text text-anchor="start" x="275.5" y="-51.5" font-family="Helvetica,sans-Serif" font-size="10.00">+ HillClimbingSolver()</text>
<text text-anchor="start" x="275.5" y="-40.5" font-family="Helvetica,sans-Serif" font-size="10.00">+ HillClimbingSolver()</text>
<text text-anchor="start" x="275.5" y="-29.5" font-family="Helvetica,sans-Serif" font-size="10.00">+ ~HillClimbingSolver()</text>
<text text-anchor="start" x="275.5" y="-18.5" font-family="Helvetica,sans-Serif" font-size="10.00">+ solve()</text>
<text text-anchor="start" x="275.5" y="-7.5" font-family="Helvetica,sans-Serif" font-size="10.00">+ compare()</text>
</g>
<!-- Node3 -->
<g id="node2" class="node"><title>Node3</title>
<g id="a_node2"><a xlink:href="classSolver.html" target="_top" xlink:title="Base class for all 8&#45;puzzle solvers. ">
<polygon fill="none" stroke="black" points="126,-149.5 126,-338.5 245,-338.5 245,-149.5 126,-149.5"/>
<text text-anchor="middle" x="185.5" y="-326.5" font-family="Helvetica,sans-Serif" font-size="10.00">Solver</text>
<polyline fill="none" stroke="black" points="126,-319.5 245,-319.5 "/>
<text text-anchor="middle" x="185.5" y="-307.5" font-family="Helvetica,sans-Serif" font-size="10.00"> </text>
<polyline fill="none" stroke="black" points="126,-300.5 245,-300.5 "/>
<text text-anchor="start" x="134" y="-288.5" font-family="Helvetica,sans-Serif" font-size="10.00">+ getSecondsToSolve()</text>
<text text-anchor="start" x="134" y="-277.5" font-family="Helvetica,sans-Serif" font-size="10.00">+ getVisitedNodes()</text>
<text text-anchor="start" x="134" y="-266.5" font-family="Helvetica,sans-Serif" font-size="10.00">+ getMaxDepth()</text>
<text text-anchor="start" x="134" y="-255.5" font-family="Helvetica,sans-Serif" font-size="10.00">+ getSolutionDepth()</text>
<text text-anchor="start" x="134" y="-244.5" font-family="Helvetica,sans-Serif" font-size="10.00">+ isSolved()</text>
<text text-anchor="start" x="134" y="-233.5" font-family="Helvetica,sans-Serif" font-size="10.00">+ Solver()</text>
<text text-anchor="start" x="134" y="-222.5" font-family="Helvetica,sans-Serif" font-size="10.00">+ solve()</text>
<text text-anchor="start" x="134" y="-211.5" font-family="Helvetica,sans-Serif" font-size="10.00">+ to_string()</text>
<text text-anchor="start" x="134" y="-200.5" font-family="Helvetica,sans-Serif" font-size="10.00"># isVisited()</text>
<text text-anchor="start" x="134" y="-189.5" font-family="Helvetica,sans-Serif" font-size="10.00"># visit()</text>
<text text-anchor="start" x="134" y="-178.5" font-family="Helvetica,sans-Serif" font-size="10.00"># visit()</text>
<text text-anchor="start" x="134" y="-167.5" font-family="Helvetica,sans-Serif" font-size="10.00"># endSearch()</text>
<text text-anchor="start" x="134" y="-156.5" font-family="Helvetica,sans-Serif" font-size="10.00">&#45; compare()</text>
</a>
</g>
</g>
<!-- Node3&#45;&gt;Node2 -->
<g id="edge1" class="edge"><title>Node3&#45;&gt;Node2</title>
<path fill="none" stroke="midnightblue" d="M251.171,-154.041C264.452,-136.051 277.963,-117.749 289.805,-101.707"/>
<polygon fill="none" stroke="midnightblue" points="248.216,-152.152 245.092,-162.276 253.847,-156.309 248.216,-152.152"/>
</g>
<!-- Node4 -->
<g id="node3" class="node"><title>Node4</title>
<polygon fill="none" stroke="#bfbfbf" points="0,-408.5 0,-465.5 35,-465.5 35,-408.5 0,-408.5"/>
<text text-anchor="middle" x="17.5" y="-453.5" font-family="Helvetica,sans-Serif" font-size="10.00">float</text>
<polyline fill="none" stroke="#bfbfbf" points="0,-446.5 35,-446.5 "/>
<text text-anchor="middle" x="17.5" y="-434.5" font-family="Helvetica,sans-Serif" font-size="10.00"> </text>
<polyline fill="none" stroke="#bfbfbf" points="0,-427.5 35,-427.5 "/>
<text text-anchor="middle" x="17.5" y="-415.5" font-family="Helvetica,sans-Serif" font-size="10.00"> </text>
</g>
<!-- Node4&#45;&gt;Node3 -->
<g id="edge2" class="edge"><title>Node4&#45;&gt;Node3</title>
<path fill="none" stroke="#404040" d="M23.72,-408.271C28.2377,-392.255 35.5156,-372.315 46.5,-357 65.156,-330.988 91.3855,-307.734 116.04,-289.247"/>
<polygon fill="none" stroke="#404040" points="116.068,-289.226 118.549,-282.455 125.754,-282.141 123.273,-288.912 116.068,-289.226"/>
<text text-anchor="middle" x="87" y="-371" font-family="Helvetica,sans-Serif" font-size="10.00"> #secondsToSolve</text>
</g>
<!-- Node5 -->
<g id="node4" class="node"><title>Node5</title>
<polygon fill="none" stroke="#bfbfbf" points="53,-408.5 53,-465.5 194,-465.5 194,-408.5 53,-408.5"/>
<text text-anchor="middle" x="123.5" y="-453.5" font-family="Helvetica,sans-Serif" font-size="10.00">OrderedList&lt; GameState * &gt;</text>
<polyline fill="none" stroke="#bfbfbf" points="53,-446.5 194,-446.5 "/>
<text text-anchor="middle" x="123.5" y="-434.5" font-family="Helvetica,sans-Serif" font-size="10.00"> </text>
<polyline fill="none" stroke="#bfbfbf" points="53,-427.5 194,-427.5 "/>
<text text-anchor="middle" x="123.5" y="-415.5" font-family="Helvetica,sans-Serif" font-size="10.00"> </text>
</g>
<!-- Node5&#45;&gt;Node3 -->
<g id="edge3" class="edge"><title>Node5&#45;&gt;Node3</title>
<path fill="none" stroke="#404040" d="M127.311,-408.238C129.774,-392.936 133.469,-373.709 138.5,-357 139.184,-354.728 139.899,-352.44 140.64,-350.141"/>
<polygon fill="none" stroke="#404040" points="140.704,-349.951 138.838,-342.985 144.55,-338.583 146.416,-345.549 140.704,-349.951"/>
<text text-anchor="middle" x="157" y="-371" font-family="Helvetica,sans-Serif" font-size="10.00"> #visited</text>
</g>
<!-- Node6 -->
<g id="node5" class="node"><title>Node6</title>
<polygon fill="none" stroke="#bfbfbf" points="212,-408.5 212,-465.5 241,-465.5 241,-408.5 212,-408.5"/>
<text text-anchor="middle" x="226.5" y="-453.5" font-family="Helvetica,sans-Serif" font-size="10.00">int</text>
<polyline fill="none" stroke="#bfbfbf" points="212,-446.5 241,-446.5 "/>
<text text-anchor="middle" x="226.5" y="-434.5" font-family="Helvetica,sans-Serif" font-size="10.00"> </text>
<polyline fill="none" stroke="#bfbfbf" points="212,-427.5 241,-427.5 "/>
<text text-anchor="middle" x="226.5" y="-415.5" font-family="Helvetica,sans-Serif" font-size="10.00"> </text>
</g>
<!-- Node6&#45;&gt;Node3 -->
<g id="edge4" class="edge"><title>Node6&#45;&gt;Node3</title>
<path fill="none" stroke="#404040" d="M211.826,-418.781C208.756,-415.207 205.531,-411.473 202.5,-408 195.461,-399.936 190.338,-399.992 186.5,-390 181.765,-377.675 178.929,-364.315 177.411,-350.86"/>
<polygon fill="none" stroke="#404040" points="177.378,-350.462 172.889,-344.819 176.372,-338.505 180.861,-344.148 177.378,-350.462"/>
<text text-anchor="middle" x="219.5" y="-382" font-family="Helvetica,sans-Serif" font-size="10.00"> #maxDepth</text>
<text text-anchor="middle" x="219.5" y="-371" font-family="Helvetica,sans-Serif" font-size="10.00">#visitedNodes</text>
<text text-anchor="middle" x="219.5" y="-360" font-family="Helvetica,sans-Serif" font-size="10.00">#solutionDepth</text>
</g>
<!-- Node7 -->
<g id="node6" class="node"><title>Node7</title>
<polygon fill="none" stroke="#bfbfbf" points="284,-408.5 284,-465.5 319,-465.5 319,-408.5 284,-408.5"/>
<text text-anchor="middle" x="301.5" y="-453.5" font-family="Helvetica,sans-Serif" font-size="10.00">bool</text>
<polyline fill="none" stroke="#bfbfbf" points="284,-446.5 319,-446.5 "/>
<text text-anchor="middle" x="301.5" y="-434.5" font-family="Helvetica,sans-Serif" font-size="10.00"> </text>
<polyline fill="none" stroke="#bfbfbf" points="284,-427.5 319,-427.5 "/>
<text text-anchor="middle" x="301.5" y="-415.5" font-family="Helvetica,sans-Serif" font-size="10.00"> </text>
</g>
<!-- Node7&#45;&gt;Node2 -->
<g id="edge6" class="edge"><title>Node7&#45;&gt;Node2</title>
<path fill="none" stroke="#404040" d="M309.006,-408.435C310.392,-402.401 311.664,-396.019 312.5,-390 325.816,-294.164 327.791,-181.696 327.507,-113.693"/>
<polygon fill="none" stroke="#404040" points="327.506,-113.526 323.468,-107.552 327.43,-101.526 331.468,-107.501 327.506,-113.526"/>
<text text-anchor="middle" x="349.5" y="-241.5" font-family="Helvetica,sans-Serif" font-size="10.00"> &#45;steepest</text>
</g>
<!-- Node7&#45;&gt;Node3 -->
<g id="edge5" class="edge"><title>Node7&#45;&gt;Node3</title>
<path fill="none" stroke="#404040" d="M284.633,-408.227C274.923,-392.239 262.044,-371.033 248.793,-349.216"/>
<polygon fill="none" stroke="#404040" points="248.71,-349.079 242.177,-346.027 242.481,-338.822 249.015,-341.874 248.71,-349.079"/>
<text text-anchor="middle" x="292" y="-371" font-family="Helvetica,sans-Serif" font-size="10.00"> #solved</text>
</g>
<!-- Node8 -->
<g id="node7" class="node"><title>Node8</title>
<g id="a_node7"><a xlink:href="classHeuristic.html" target="_top" xlink:title="Abtract class for heuristic functions. ">
<polygon fill="none" stroke="black" points="388.5,-215.5 388.5,-272.5 444.5,-272.5 444.5,-215.5 388.5,-215.5"/>
<text text-anchor="middle" x="416.5" y="-260.5" font-family="Helvetica,sans-Serif" font-size="10.00">Heuristic</text>
<polyline fill="none" stroke="black" points="388.5,-253.5 444.5,-253.5 "/>
<text text-anchor="middle" x="416.5" y="-241.5" font-family="Helvetica,sans-Serif" font-size="10.00"> </text>
<polyline fill="none" stroke="black" points="388.5,-234.5 444.5,-234.5 "/>
<text text-anchor="start" x="396.5" y="-222.5" font-family="Helvetica,sans-Serif" font-size="10.00">+ calc()</text>
</a>
</g>
</g>
<!-- Node8&#45;&gt;Node2 -->
<g id="edge7" class="edge"><title>Node8&#45;&gt;Node2</title>
<path fill="none" stroke="#404040" d="M404.47,-215.312C396.222,-196.52 384.927,-171.157 374.5,-149 368.926,-137.155 362.83,-124.573 356.91,-112.532"/>
<polygon fill="none" stroke="#404040" points="356.856,-112.423 350.613,-108.814 351.543,-101.663 357.786,-105.272 356.856,-112.423"/>
<text text-anchor="middle" x="388" y="-123" font-family="Helvetica,sans-Serif" font-size="10.00"> &#45;heuristic</text>
</g>
</g>
</svg>
