<?xml version="1.0" encoding="UTF-8" standalone="no"?>
<!DOCTYPE svg PUBLIC "-//W3C//DTD SVG 1.1//EN"
 "http://www.w3.org/Graphics/SVG/1.1/DTD/svg11.dtd">
<!-- Generated by graphviz version 2.38.0 (20140413.2041)
 -->
<!-- Title: GameState::GameState Pages: 1 -->
<svg width="391pt" height="47pt"
 viewBox="0.00 0.00 391.00 47.00" xmlns="http://www.w3.org/2000/svg" xmlns:xlink="http://www.w3.org/1999/xlink">
<g id="graph0" class="graph" transform="scale(1 1) rotate(0) translate(4 43)">
<title>GameState::GameState</title>
<!-- Node11 -->
<g id="node1" class="node"><title>Node11</title>
<polygon fill="#bfbfbf" stroke="black" points="0,-19.5 0,-38.5 122,-38.5 122,-19.5 0,-19.5"/>
<text text-anchor="middle" x="61" y="-26.5" font-family="Helvetica,sans-Serif" font-size="10.00">GameState::GameState</text>
</g>
<!-- Node12 -->
<g id="node2" class="node"><title>Node12</title>
<g id="a_node2"><a xlink:href="classGameState.html#ab769bcbb1102f37bf943b207d57ed1fe" target="_top" xlink:title="Finds the position of a tile in the board. ">
<polygon fill="none" stroke="black" points="295,-19.5 295,-38.5 383,-38.5 383,-19.5 295,-19.5"/>
<text text-anchor="middle" x="339" y="-26.5" font-family="Helvetica,sans-Serif" font-size="10.00">GameState::find</text>
</a>
</g>
</g>
<!-- Node11&#45;&gt;Node12 -->
<g id="edge1" class="edge"><title>Node11&#45;&gt;Node12</title>
<path fill="none" stroke="midnightblue" d="M122.228,-29C170.595,-29 237.887,-29 284.405,-29"/>
<polygon fill="midnightblue" stroke="midnightblue" points="284.586,-32.5001 294.586,-29 284.586,-25.5001 284.586,-32.5001"/>
</g>
<!-- Node13 -->
<g id="node3" class="node"><title>Node13</title>
<g id="a_node3"><a xlink:href="classGameState.html#a1a5a65954a51e691971f626dcb9e0f40" target="_top" xlink:title="Checks whether an action is valid for this state. ">
<polygon fill="none" stroke="black" points="158,-0.5 158,-19.5 259,-19.5 259,-0.5 158,-0.5"/>
<text text-anchor="middle" x="208.5" y="-7.5" font-family="Helvetica,sans-Serif" font-size="10.00">GameState::isValid</text>
</a>
</g>
</g>
<!-- Node11&#45;&gt;Node13 -->
<g id="edge2" class="edge"><title>Node11&#45;&gt;Node13</title>
<path fill="none" stroke="midnightblue" d="M122.02,-21.1623C130.48,-20.0576 139.176,-18.9221 147.632,-17.8178"/>
<polygon fill="midnightblue" stroke="midnightblue" points="148.333,-21.256 157.796,-16.4906 147.427,-14.315 148.333,-21.256"/>
</g>
<!-- Node13&#45;&gt;Node12 -->
<g id="edge3" class="edge"><title>Node13&#45;&gt;Node12</title>
<path fill="none" stroke="midnightblue" d="M259.181,-17.3459C267.516,-18.5783 276.196,-19.8617 284.62,-21.1072"/>
<polygon fill="midnightblue" stroke="midnightblue" points="284.322,-24.6012 294.727,-22.6016 285.346,-17.6765 284.322,-24.6012"/>
</g>
</g>
</svg>
