<?xml version="1.0" encoding="UTF-8" standalone="no"?>
<!DOCTYPE svg PUBLIC "-//W3C//DTD SVG 1.1//EN"
 "http://www.w3.org/Graphics/SVG/1.1/DTD/svg11.dtd">
<!-- Generated by graphviz version 2.38.0 (20140413.2041)
 -->
<!-- Title: GameState::operator== Pages: 1 -->
<svg width="383pt" height="47pt"
 viewBox="0.00 0.00 383.00 47.00" xmlns="http://www.w3.org/2000/svg" xmlns:xlink="http://www.w3.org/1999/xlink">
<g id="graph0" class="graph" transform="scale(1 1) rotate(0) translate(4 43)">
<title>GameState::operator==</title>
<!-- Node54 -->
<g id="node1" class="node"><title>Node54</title>
<polygon fill="#bfbfbf" stroke="black" points="0,-19.5 0,-38.5 119,-38.5 119,-19.5 0,-19.5"/>
<text text-anchor="middle" x="59.5" y="-26.5" font-family="Helvetica,sans-Serif" font-size="10.00">GameState::operator==</text>
</g>
<!-- Node55 -->
<g id="node2" class="node"><title>Node55</title>
<g id="a_node2"><a xlink:href="main_8cpp.html#aab34259fc44d1039fb340224251f1f8e" target="_top" xlink:title="Tests the overloaded equality operator for GameState. ">
<polygon fill="none" stroke="black" points="307,-19.5 307,-38.5 375,-38.5 375,-19.5 307,-19.5"/>
<text text-anchor="middle" x="341" y="-26.5" font-family="Helvetica,sans-Serif" font-size="10.00">testEquality</text>
</a>
</g>
</g>
<!-- Node54&#45;&gt;Node55 -->
<g id="edge1" class="edge"><title>Node54&#45;&gt;Node55</title>
<path fill="none" stroke="midnightblue" d="M129.38,-29C185.854,-29 263.327,-29 306.844,-29"/>
<polygon fill="midnightblue" stroke="midnightblue" points="129.092,-25.5001 119.092,-29 129.092,-32.5001 129.092,-25.5001"/>
</g>
<!-- Node56 -->
<g id="node3" class="node"><title>Node56</title>
<g id="a_node3"><a xlink:href="classGameState.html#a75e2a00378cd25343d7ff72e5a61a319" target="_top" xlink:title="Inequality operator for GameState. ">
<polygon fill="none" stroke="black" points="155,-0.5 155,-19.5 271,-19.5 271,-0.5 155,-0.5"/>
<text text-anchor="middle" x="213" y="-7.5" font-family="Helvetica,sans-Serif" font-size="10.00">GameState::operator!=</text>
</a>
</g>
</g>
<!-- Node54&#45;&gt;Node56 -->
<g id="edge2" class="edge"><title>Node54&#45;&gt;Node56</title>
<path fill="none" stroke="midnightblue" d="M129.019,-20.4068C137.562,-19.3354 146.229,-18.2485 154.579,-17.2013"/>
<polygon fill="midnightblue" stroke="midnightblue" points="128.561,-16.9368 119.074,-21.6541 129.432,-23.8824 128.561,-16.9368"/>
</g>
<!-- Node56&#45;&gt;Node55 -->
<g id="edge3" class="edge"><title>Node56&#45;&gt;Node55</title>
<path fill="none" stroke="midnightblue" d="M281.172,-20.1291C290.084,-21.4729 298.883,-22.7999 306.854,-24.0018"/>
<polygon fill="midnightblue" stroke="midnightblue" points="281.512,-16.6408 271.101,-18.6105 280.468,-23.5626 281.512,-16.6408"/>
</g>
</g>
</svg>
