<?xml version="1.0" encoding="UTF-8" standalone="no"?>
<!DOCTYPE svg PUBLIC "-//W3C//DTD SVG 1.1//EN"
 "http://www.w3.org/Graphics/SVG/1.1/DTD/svg11.dtd">
<!-- Generated by graphviz version 2.38.0 (20140413.2041)
 -->
<!-- Title: GreedySolver::compare Pages: 1 -->
<svg width="417pt" height="28pt"
 viewBox="0.00 0.00 417.00 28.00" xmlns="http://www.w3.org/2000/svg" xmlns:xlink="http://www.w3.org/1999/xlink">
<g id="graph0" class="graph" transform="scale(1 1) rotate(0) translate(4 24)">
<title>GreedySolver::compare</title>
<!-- Node6 -->
<g id="node1" class="node"><title>Node6</title>
<polygon fill="#bfbfbf" stroke="black" points="0,-0.5 0,-19.5 119,-19.5 119,-0.5 0,-0.5"/>
<text text-anchor="middle" x="59.5" y="-7.5" font-family="Helvetica,sans-Serif" font-size="10.00">GreedySolver::compare</text>
</g>
<!-- Node7 -->
<g id="node2" class="node"><title>Node7</title>
<g id="a_node2"><a xlink:href="classManhattan.html#a3160ab4be17834ebe0ffc1b2c3a39a80" target="_top" xlink:title="Calculates the heuristic value for a state. ">
<polygon fill="none" stroke="black" points="155,-0.5 155,-19.5 241,-19.5 241,-0.5 155,-0.5"/>
<text text-anchor="middle" x="198" y="-7.5" font-family="Helvetica,sans-Serif" font-size="10.00">Manhattan::calc</text>
</a>
</g>
</g>
<!-- Node6&#45;&gt;Node7 -->
<g id="edge1" class="edge"><title>Node6&#45;&gt;Node7</title>
<path fill="none" stroke="midnightblue" d="M119.18,-10C127.708,-10 136.439,-10 144.826,-10"/>
<polygon fill="midnightblue" stroke="midnightblue" points="144.85,-13.5001 154.85,-10 144.85,-6.5001 144.85,-13.5001"/>
</g>
<!-- Node8 -->
<g id="node3" class="node"><title>Node8</title>
<g id="a_node3"><a xlink:href="classGameState.html#ac331f87dcabb71ca7a9d4c316b384a14" target="_top" xlink:title="GameState::getDimension">
<polygon fill="none" stroke="black" points="277,-0.5 277,-19.5 409,-19.5 409,-0.5 277,-0.5"/>
<text text-anchor="middle" x="343" y="-7.5" font-family="Helvetica,sans-Serif" font-size="10.00">GameState::getDimension</text>
</a>
</g>
</g>
<!-- Node7&#45;&gt;Node8 -->
<g id="edge2" class="edge"><title>Node7&#45;&gt;Node8</title>
<path fill="none" stroke="midnightblue" d="M241.131,-10C249.184,-10 257.839,-10 266.573,-10"/>
<polygon fill="midnightblue" stroke="midnightblue" points="266.829,-13.5001 276.829,-10 266.829,-6.5001 266.829,-13.5001"/>
</g>
</g>
</svg>
