<?xml version="1.0" encoding="UTF-8" standalone="no"?>
<!DOCTYPE svg PUBLIC "-//W3C//DTD SVG 1.1//EN"
 "http://www.w3.org/Graphics/SVG/1.1/DTD/svg11.dtd">
<!-- Generated by graphviz version 2.38.0 (20140413.2041)
 -->
<!-- Title: Solver::solve Pages: 1 -->
<svg width="255pt" height="294pt"
 viewBox="0.00 0.00 255.00 294.00" xmlns="http://www.w3.org/2000/svg" xmlns:xlink="http://www.w3.org/1999/xlink">
<g id="graph0" class="graph" transform="scale(1 1) rotate(0) translate(4 290)">
<title>Solver::solve</title>
<!-- Node27 -->
<g id="node1" class="node"><title>Node27</title>
<polygon fill="#bfbfbf" stroke="black" points="0,-133.5 0,-152.5 74,-152.5 74,-133.5 0,-133.5"/>
<text text-anchor="middle" x="37" y="-140.5" font-family="Helvetica,sans-Serif" font-size="10.00">Solver::solve</text>
</g>
<!-- Node28 -->
<g id="node2" class="node"><title>Node28</title>
<g id="a_node2"><a xlink:href="classSolver.html#a65544f792e0849efd30d5a5d117497fc" target="_top" xlink:title="Solver::visit">
<polygon fill="none" stroke="black" points="144.5,-266.5 144.5,-285.5 212.5,-285.5 212.5,-266.5 144.5,-266.5"/>
<text text-anchor="middle" x="178.5" y="-273.5" font-family="Helvetica,sans-Serif" font-size="10.00">Solver::visit</text>
</a>
</g>
</g>
<!-- Node27&#45;&gt;Node28 -->
<g id="edge1" class="edge"><title>Node27&#45;&gt;Node28</title>
<path fill="none" stroke="midnightblue" d="M45.0466,-162.278C55.3603,-187.784 77.0008,-232.383 110,-257 119.953,-264.425 132.691,-268.95 144.414,-271.706"/>
<polygon fill="midnightblue" stroke="midnightblue" points="48.1879,-160.696 41.3198,-152.629 41.6581,-163.219 48.1879,-160.696"/>
</g>
<!-- Node29 -->
<g id="node3" class="node"><title>Node29</title>
<g id="a_node3"><a xlink:href="classSolver.html#a2936d1e3bf36dbcc6e841c3a0b82fa9d" target="_top" xlink:title="End the search, generating the steps from the initial state to the goal. ">
<polygon fill="none" stroke="black" points="130,-228.5 130,-247.5 227,-247.5 227,-228.5 130,-228.5"/>
<text text-anchor="middle" x="178.5" y="-235.5" font-family="Helvetica,sans-Serif" font-size="10.00">Solver::endSearch</text>
</a>
</g>
</g>
<!-- Node27&#45;&gt;Node29 -->
<g id="edge2" class="edge"><title>Node27&#45;&gt;Node29</title>
<path fill="none" stroke="midnightblue" d="M50.4643,-160.95C63.4138,-178.281 85.2262,-204.035 110,-219 116.357,-222.84 123.516,-225.928 130.736,-228.406"/>
<polygon fill="midnightblue" stroke="midnightblue" points="53.2316,-158.804 44.5318,-152.757 47.5618,-162.91 53.2316,-158.804"/>
</g>
<!-- Node30 -->
<g id="node4" class="node"><title>Node30</title>
<g id="a_node4"><a xlink:href="classSolver.html#a6f9dd6adcf27bf08cd8c7b509960b5d3" target="_top" xlink:title="Solver::getSecondsToSolve">
<polygon fill="none" stroke="black" points="110,-190.5 110,-209.5 247,-209.5 247,-190.5 110,-190.5"/>
<text text-anchor="middle" x="178.5" y="-197.5" font-family="Helvetica,sans-Serif" font-size="10.00">Solver::getSecondsToSolve</text>
</a>
</g>
</g>
<!-- Node27&#45;&gt;Node30 -->
<g id="edge3" class="edge"><title>Node27&#45;&gt;Node30</title>
<path fill="none" stroke="midnightblue" d="M62.6022,-157.647C76.235,-165.334 93.6829,-174.483 110,-181 118.931,-184.567 128.779,-187.742 138.126,-190.427"/>
<polygon fill="midnightblue" stroke="midnightblue" points="64.2486,-154.557 53.8343,-152.609 60.761,-160.626 64.2486,-154.557"/>
</g>
<!-- Node31 -->
<g id="node5" class="node"><title>Node31</title>
<g id="a_node5"><a xlink:href="classSolver.html#a1a582ce69bec9b0d14d9511b4e1fdad3" target="_top" xlink:title="Solver::getVisitedNodes">
<polygon fill="none" stroke="black" points="117.5,-152.5 117.5,-171.5 239.5,-171.5 239.5,-152.5 117.5,-152.5"/>
<text text-anchor="middle" x="178.5" y="-159.5" font-family="Helvetica,sans-Serif" font-size="10.00">Solver::getVisitedNodes</text>
</a>
</g>
</g>
<!-- Node27&#45;&gt;Node31 -->
<g id="edge4" class="edge"><title>Node27&#45;&gt;Node31</title>
<path fill="none" stroke="midnightblue" d="M84.5058,-149.334C95.0312,-150.768 106.354,-152.31 117.352,-153.808"/>
<polygon fill="midnightblue" stroke="midnightblue" points="84.6687,-145.824 74.2878,-147.942 83.724,-152.76 84.6687,-145.824"/>
</g>
<!-- Node32 -->
<g id="node6" class="node"><title>Node32</title>
<g id="a_node6"><a xlink:href="classSolver.html#a0a016aa9b5754015245f45c30d6059c0" target="_top" xlink:title="Solver::getMaxDepth">
<polygon fill="none" stroke="black" points="124,-114.5 124,-133.5 233,-133.5 233,-114.5 124,-114.5"/>
<text text-anchor="middle" x="178.5" y="-121.5" font-family="Helvetica,sans-Serif" font-size="10.00">Solver::getMaxDepth</text>
</a>
</g>
</g>
<!-- Node27&#45;&gt;Node32 -->
<g id="edge5" class="edge"><title>Node27&#45;&gt;Node32</title>
<path fill="none" stroke="midnightblue" d="M84.5462,-136.66C97.1268,-134.947 110.844,-133.079 123.783,-131.316"/>
<polygon fill="midnightblue" stroke="midnightblue" points="83.724,-133.24 74.2878,-138.058 84.6687,-140.176 83.724,-133.24"/>
</g>
<!-- Node33 -->
<g id="node7" class="node"><title>Node33</title>
<g id="a_node7"><a xlink:href="classSolver.html#a62b67e57126fed7459c591fac64278ad" target="_top" xlink:title="Solver::getSolutionDepth">
<polygon fill="none" stroke="black" points="116,-76.5 116,-95.5 241,-95.5 241,-76.5 116,-76.5"/>
<text text-anchor="middle" x="178.5" y="-83.5" font-family="Helvetica,sans-Serif" font-size="10.00">Solver::getSolutionDepth</text>
</a>
</g>
</g>
<!-- Node27&#45;&gt;Node33 -->
<g id="edge6" class="edge"><title>Node27&#45;&gt;Node33</title>
<path fill="none" stroke="midnightblue" d="M62.6022,-128.353C76.235,-120.666 93.6829,-111.517 110,-105 118.931,-101.433 128.779,-98.2576 138.126,-95.5725"/>
<polygon fill="midnightblue" stroke="midnightblue" points="60.761,-125.374 53.8343,-133.391 64.2486,-131.443 60.761,-125.374"/>
</g>
<!-- Node34 -->
<g id="node8" class="node"><title>Node34</title>
<g id="a_node8"><a xlink:href="classSolver.html#aabb706f4725c7f837ddfd9c515d7803a" target="_top" xlink:title="Solver::isSolved">
<polygon fill="none" stroke="black" points="134.5,-38.5 134.5,-57.5 222.5,-57.5 222.5,-38.5 134.5,-38.5"/>
<text text-anchor="middle" x="178.5" y="-45.5" font-family="Helvetica,sans-Serif" font-size="10.00">Solver::isSolved</text>
</a>
</g>
</g>
<!-- Node27&#45;&gt;Node34 -->
<g id="edge7" class="edge"><title>Node27&#45;&gt;Node34</title>
<path fill="none" stroke="midnightblue" d="M50.4643,-125.05C63.4138,-107.719 85.2262,-81.9649 110,-67 117.399,-62.5308 125.885,-59.0791 134.288,-56.4244"/>
<polygon fill="midnightblue" stroke="midnightblue" points="47.5618,-123.09 44.5318,-133.243 53.2316,-127.196 47.5618,-123.09"/>
</g>
<!-- Node35 -->
<g id="node9" class="node"><title>Node35</title>
<g id="a_node9"><a xlink:href="classSolver.html#a9dfe7ae9ce617e8a6398be34284c907a" target="_top" xlink:title="Solver::Solver">
<polygon fill="none" stroke="black" points="139.5,-0.5 139.5,-19.5 217.5,-19.5 217.5,-0.5 139.5,-0.5"/>
<text text-anchor="middle" x="178.5" y="-7.5" font-family="Helvetica,sans-Serif" font-size="10.00">Solver::Solver</text>
</a>
</g>
</g>
<!-- Node27&#45;&gt;Node35 -->
<g id="edge8" class="edge"><title>Node27&#45;&gt;Node35</title>
<path fill="none" stroke="midnightblue" d="M45.0466,-123.722C55.3603,-98.2161 77.0008,-53.6171 110,-29 118.49,-22.6669 129.005,-18.4439 139.188,-15.6283"/>
<polygon fill="midnightblue" stroke="midnightblue" points="41.6581,-122.781 41.3198,-133.371 48.1879,-125.304 41.6581,-122.781"/>
</g>
</g>
</svg>
