<?xml version="1.0" encoding="UTF-8" standalone="no"?>
<!DOCTYPE svg PUBLIC "-//W3C//DTD SVG 1.1//EN"
 "http://www.w3.org/Graphics/SVG/1.1/DTD/svg11.dtd">
<!-- Generated by graphviz version 2.38.0 (20140413.2041)
 -->
<!-- Title: Game::Game Pages: 1 -->
<svg width="271pt" height="66pt"
 viewBox="0.00 0.00 271.00 66.00" xmlns="http://www.w3.org/2000/svg" xmlns:xlink="http://www.w3.org/1999/xlink">
<g id="graph0" class="graph" transform="scale(1 1) rotate(0) translate(4 62)">
<title>Game::Game</title>
<!-- Node2 -->
<g id="node1" class="node"><title>Node2</title>
<polygon fill="#bfbfbf" stroke="black" points="0,-19.5 0,-38.5 75,-38.5 75,-19.5 0,-19.5"/>
<text text-anchor="middle" x="37.5" y="-26.5" font-family="Helvetica,sans-Serif" font-size="10.00">Game::Game</text>
</g>
<!-- Node3 -->
<g id="node2" class="node"><title>Node3</title>
<g id="a_node2"><a xlink:href="classGameState.html#a4fa0a2bf50315c4a35a3890a0adcee5c" target="_top" xlink:title="Default constructor, everything starts as 0 or NULL. ">
<polygon fill="none" stroke="black" points="126,-38.5 126,-57.5 248,-57.5 248,-38.5 126,-38.5"/>
<text text-anchor="middle" x="187" y="-45.5" font-family="Helvetica,sans-Serif" font-size="10.00">GameState::GameState</text>
</a>
</g>
</g>
<!-- Node2&#45;&gt;Node3 -->
<g id="edge1" class="edge"><title>Node2&#45;&gt;Node3</title>
<path fill="none" stroke="midnightblue" d="M75.34,-33.7455C87.6307,-35.3287 101.764,-37.1493 115.731,-38.9484"/>
<polygon fill="midnightblue" stroke="midnightblue" points="115.477,-42.4445 125.842,-40.2509 116.372,-35.5019 115.477,-42.4445"/>
</g>
<!-- Node4 -->
<g id="node3" class="node"><title>Node4</title>
<g id="a_node3"><a xlink:href="classGameState.html#a6fab869a6c4f80df3837849b8252aa1d" target="_top" xlink:title="GameState::setRepresentation">
<polygon fill="none" stroke="black" points="111,-0.5 111,-19.5 263,-19.5 263,-0.5 111,-0.5"/>
<text text-anchor="middle" x="187" y="-7.5" font-family="Helvetica,sans-Serif" font-size="10.00">GameState::setRepresentation</text>
</a>
</g>
</g>
<!-- Node2&#45;&gt;Node4 -->
<g id="edge2" class="edge"><title>Node2&#45;&gt;Node4</title>
<path fill="none" stroke="midnightblue" d="M75.34,-24.2545C83.6116,-23.189 92.7178,-22.016 102.046,-20.8144"/>
<polygon fill="midnightblue" stroke="midnightblue" points="102.755,-24.252 112.226,-19.503 101.861,-17.3094 102.755,-24.252"/>
</g>
</g>
</svg>
