<?xml version="1.0" encoding="UTF-8" standalone="no"?>
<!DOCTYPE svg PUBLIC "-//W3C//DTD SVG 1.1//EN"
 "http://www.w3.org/Graphics/SVG/1.1/DTD/svg11.dtd">
<!-- Generated by graphviz version 2.38.0 (20140413.2041)
 -->
<!-- Title: MonteCarloSolver Pages: 1 -->
<svg width="335pt" height="452pt"
 viewBox="0.00 0.00 334.50 452.00" xmlns="http://www.w3.org/2000/svg" xmlns:xlink="http://www.w3.org/1999/xlink">
<g id="graph0" class="graph" transform="scale(1 1) rotate(0) translate(4 448)">
<title>MonteCarloSolver</title>
<!-- Node2 -->
<g id="node1" class="node"><title>Node2</title>
<polygon fill="#bfbfbf" stroke="black" points="193.5,-0.5 193.5,-79.5 303.5,-79.5 303.5,-0.5 193.5,-0.5"/>
<text text-anchor="middle" x="248.5" y="-67.5" font-family="Helvetica,sans-Serif" font-size="10.00">MonteCarloSolver</text>
<polyline fill="none" stroke="black" points="193.5,-60.5 303.5,-60.5 "/>
<text text-anchor="middle" x="248.5" y="-48.5" font-family="Helvetica,sans-Serif" font-size="10.00"> </text>
<polyline fill="none" stroke="black" points="193.5,-41.5 303.5,-41.5 "/>
<text text-anchor="start" x="201.5" y="-29.5" font-family="Helvetica,sans-Serif" font-size="10.00">+ MonteCarloSolver()</text>
<text text-anchor="start" x="201.5" y="-18.5" font-family="Helvetica,sans-Serif" font-size="10.00">+ solve()</text>
<text text-anchor="start" x="201.5" y="-7.5" font-family="Helvetica,sans-Serif" font-size="10.00">&#45; rnd()</text>
</g>
<!-- Node3 -->
<g id="node2" class="node"><title>Node3</title>
<g id="a_node2"><a xlink:href="classSolver.html" target="_top" xlink:title="Base class for all 8&#45;puzzle solvers. ">
<polygon fill="none" stroke="black" points="105,-127.5 105,-316.5 224,-316.5 224,-127.5 105,-127.5"/>
<text text-anchor="middle" x="164.5" y="-304.5" font-family="Helvetica,sans-Serif" font-size="10.00">Solver</text>
<polyline fill="none" stroke="black" points="105,-297.5 224,-297.5 "/>
<text text-anchor="middle" x="164.5" y="-285.5" font-family="Helvetica,sans-Serif" font-size="10.00"> </text>
<polyline fill="none" stroke="black" points="105,-278.5 224,-278.5 "/>
<text text-anchor="start" x="113" y="-266.5" font-family="Helvetica,sans-Serif" font-size="10.00">+ getSecondsToSolve()</text>
<text text-anchor="start" x="113" y="-255.5" font-family="Helvetica,sans-Serif" font-size="10.00">+ getVisitedNodes()</text>
<text text-anchor="start" x="113" y="-244.5" font-family="Helvetica,sans-Serif" font-size="10.00">+ getMaxDepth()</text>
<text text-anchor="start" x="113" y="-233.5" font-family="Helvetica,sans-Serif" font-size="10.00">+ getSolutionDepth()</text>
<text text-anchor="start" x="113" y="-222.5" font-family="Helvetica,sans-Serif" font-size="10.00">+ isSolved()</text>
<text text-anchor="start" x="113" y="-211.5" font-family="Helvetica,sans-Serif" font-size="10.00">+ Solver()</text>
<text text-anchor="start" x="113" y="-200.5" font-family="Helvetica,sans-Serif" font-size="10.00">+ solve()</text>
<text text-anchor="start" x="113" y="-189.5" font-family="Helvetica,sans-Serif" font-size="10.00">+ to_string()</text>
<text text-anchor="start" x="113" y="-178.5" font-family="Helvetica,sans-Serif" font-size="10.00"># isVisited()</text>
<text text-anchor="start" x="113" y="-167.5" font-family="Helvetica,sans-Serif" font-size="10.00"># visit()</text>
<text text-anchor="start" x="113" y="-156.5" font-family="Helvetica,sans-Serif" font-size="10.00"># visit()</text>
<text text-anchor="start" x="113" y="-145.5" font-family="Helvetica,sans-Serif" font-size="10.00"># endSearch()</text>
<text text-anchor="start" x="113" y="-134.5" font-family="Helvetica,sans-Serif" font-size="10.00">&#45; compare()</text>
</a>
</g>
</g>
<!-- Node3&#45;&gt;Node2 -->
<g id="edge1" class="edge"><title>Node3&#45;&gt;Node2</title>
<path fill="none" stroke="midnightblue" d="M212.602,-117.925C218.895,-104.44 225.001,-91.3543 230.34,-79.9153"/>
<polygon fill="none" stroke="midnightblue" points="209.279,-116.768 208.222,-127.31 215.623,-119.728 209.279,-116.768"/>
</g>
<!-- Node4 -->
<g id="node3" class="node"><title>Node4</title>
<polygon fill="none" stroke="#bfbfbf" points="0,-386.5 0,-443.5 35,-443.5 35,-386.5 0,-386.5"/>
<text text-anchor="middle" x="17.5" y="-431.5" font-family="Helvetica,sans-Serif" font-size="10.00">float</text>
<polyline fill="none" stroke="#bfbfbf" points="0,-424.5 35,-424.5 "/>
<text text-anchor="middle" x="17.5" y="-412.5" font-family="Helvetica,sans-Serif" font-size="10.00"> </text>
<polyline fill="none" stroke="#bfbfbf" points="0,-405.5 35,-405.5 "/>
<text text-anchor="middle" x="17.5" y="-393.5" font-family="Helvetica,sans-Serif" font-size="10.00"> </text>
</g>
<!-- Node4&#45;&gt;Node3 -->
<g id="edge2" class="edge"><title>Node4&#45;&gt;Node3</title>
<path fill="none" stroke="#404040" d="M25.1491,-386.265C30.2821,-370.437 38.0321,-350.687 48.5,-335 61.6658,-315.27 78.8238,-296.331 95.8891,-279.821"/>
<polygon fill="none" stroke="#404040" points="96.0608,-279.659 97.6748,-272.631 104.783,-271.418 103.169,-278.446 96.0608,-279.659"/>
<text text-anchor="middle" x="89" y="-349" font-family="Helvetica,sans-Serif" font-size="10.00"> #secondsToSolve</text>
</g>
<!-- Node5 -->
<g id="node4" class="node"><title>Node5</title>
<polygon fill="none" stroke="#bfbfbf" points="53,-386.5 53,-443.5 194,-443.5 194,-386.5 53,-386.5"/>
<text text-anchor="middle" x="123.5" y="-431.5" font-family="Helvetica,sans-Serif" font-size="10.00">OrderedList&lt; GameState * &gt;</text>
<polyline fill="none" stroke="#bfbfbf" points="53,-424.5 194,-424.5 "/>
<text text-anchor="middle" x="123.5" y="-412.5" font-family="Helvetica,sans-Serif" font-size="10.00"> </text>
<polyline fill="none" stroke="#bfbfbf" points="53,-405.5 194,-405.5 "/>
<text text-anchor="middle" x="123.5" y="-393.5" font-family="Helvetica,sans-Serif" font-size="10.00"> </text>
</g>
<!-- Node5&#45;&gt;Node3 -->
<g id="edge3" class="edge"><title>Node5&#45;&gt;Node3</title>
<path fill="none" stroke="#404040" d="M129.462,-386.227C132.816,-370.601 137.24,-349.99 141.811,-328.696"/>
<polygon fill="none" stroke="#404040" points="141.841,-328.555 139.19,-321.849 144.36,-316.822 147.012,-323.528 141.841,-328.555"/>
<text text-anchor="middle" x="159" y="-349" font-family="Helvetica,sans-Serif" font-size="10.00"> #visited</text>
</g>
<!-- Node6 -->
<g id="node5" class="node"><title>Node6</title>
<polygon fill="none" stroke="#bfbfbf" points="212,-386.5 212,-443.5 241,-443.5 241,-386.5 212,-386.5"/>
<text text-anchor="middle" x="226.5" y="-431.5" font-family="Helvetica,sans-Serif" font-size="10.00">int</text>
<polyline fill="none" stroke="#bfbfbf" points="212,-424.5 241,-424.5 "/>
<text text-anchor="middle" x="226.5" y="-412.5" font-family="Helvetica,sans-Serif" font-size="10.00"> </text>
<polyline fill="none" stroke="#bfbfbf" points="212,-405.5 241,-405.5 "/>
<text text-anchor="middle" x="226.5" y="-393.5" font-family="Helvetica,sans-Serif" font-size="10.00"> </text>
</g>
<!-- Node6&#45;&gt;Node3 -->
<g id="edge4" class="edge"><title>Node6&#45;&gt;Node3</title>
<path fill="none" stroke="#404040" d="M214.578,-386.449C212.119,-380.415 209.632,-374.028 207.5,-368 202.996,-355.268 198.567,-341.799 194.363,-328.403"/>
<polygon fill="none" stroke="#404040" points="194.279,-328.133 188.684,-323.585 190.731,-316.67 196.326,-321.219 194.279,-328.133"/>
<text text-anchor="middle" x="240.5" y="-360" font-family="Helvetica,sans-Serif" font-size="10.00"> #maxDepth</text>
<text text-anchor="middle" x="240.5" y="-349" font-family="Helvetica,sans-Serif" font-size="10.00">#visitedNodes</text>
<text text-anchor="middle" x="240.5" y="-338" font-family="Helvetica,sans-Serif" font-size="10.00">#solutionDepth</text>
</g>
<!-- Node7 -->
<g id="node6" class="node"><title>Node7</title>
<polygon fill="none" stroke="#bfbfbf" points="278,-386.5 278,-443.5 313,-443.5 313,-386.5 278,-386.5"/>
<text text-anchor="middle" x="295.5" y="-431.5" font-family="Helvetica,sans-Serif" font-size="10.00">bool</text>
<polyline fill="none" stroke="#bfbfbf" points="278,-424.5 313,-424.5 "/>
<text text-anchor="middle" x="295.5" y="-412.5" font-family="Helvetica,sans-Serif" font-size="10.00"> </text>
<polyline fill="none" stroke="#bfbfbf" points="278,-405.5 313,-405.5 "/>
<text text-anchor="middle" x="295.5" y="-393.5" font-family="Helvetica,sans-Serif" font-size="10.00"> </text>
</g>
<!-- Node7&#45;&gt;Node3 -->
<g id="edge5" class="edge"><title>Node7&#45;&gt;Node3</title>
<path fill="none" stroke="#404040" d="M293.635,-386.384C291.213,-369.813 285.747,-349.255 273.5,-335 260.796,-320.213 248.656,-329.262 233.5,-317 233.402,-316.92 233.303,-316.841 233.205,-316.761"/>
<polygon fill="none" stroke="#404040" points="233.272,-316.819 226.126,-315.846 224.277,-308.876 231.422,-309.849 233.272,-316.819"/>
<text text-anchor="middle" x="308" y="-349" font-family="Helvetica,sans-Serif" font-size="10.00"> #solved</text>
</g>
<!-- Node8 -->
<g id="node7" class="node"><title>Node8</title>
<polygon fill="none" stroke="#bfbfbf" points="242.5,-193.5 242.5,-250.5 312.5,-250.5 312.5,-193.5 242.5,-193.5"/>
<text text-anchor="middle" x="277.5" y="-238.5" font-family="Helvetica,sans-Serif" font-size="10.00">mt19937_64</text>
<polyline fill="none" stroke="#bfbfbf" points="242.5,-231.5 312.5,-231.5 "/>
<text text-anchor="middle" x="277.5" y="-219.5" font-family="Helvetica,sans-Serif" font-size="10.00"> </text>
<polyline fill="none" stroke="#bfbfbf" points="242.5,-212.5 312.5,-212.5 "/>
<text text-anchor="middle" x="277.5" y="-200.5" font-family="Helvetica,sans-Serif" font-size="10.00"> </text>
</g>
<!-- Node8&#45;&gt;Node2 -->
<g id="edge6" class="edge"><title>Node8&#45;&gt;Node2</title>
<path fill="none" stroke="#404040" d="M273.032,-193.269C268.693,-166.336 262.003,-124.811 256.704,-91.9237"/>
<polygon fill="none" stroke="#404040" points="256.658,-91.638 251.755,-86.3506 254.75,-79.7907 259.653,-85.0781 256.658,-91.638"/>
<text text-anchor="middle" x="264.5" y="-101" font-family="Helvetica,sans-Serif" font-size="10.00"> &#45;r</text>
</g>
</g>
</svg>
