<?xml version="1.0" encoding="UTF-8" standalone="no"?>
<!DOCTYPE svg PUBLIC "-//W3C//DTD SVG 1.1//EN"
 "http://www.w3.org/Graphics/SVG/1.1/DTD/svg11.dtd">
<!-- Generated by graphviz version 2.38.0 (20140413.2041)
 -->
<!-- Title: GameState::getDimension Pages: 1 -->
<svg width="432pt" height="116pt"
 viewBox="0.00 0.00 432.00 115.50" xmlns="http://www.w3.org/2000/svg" xmlns:xlink="http://www.w3.org/1999/xlink">
<g id="graph0" class="graph" transform="scale(1 1) rotate(0) translate(4 111.5)">
<title>GameState::getDimension</title>
<!-- Node30 -->
<g id="node1" class="node"><title>Node30</title>
<polygon fill="#bfbfbf" stroke="black" points="0,-31 0,-50 132,-50 132,-31 0,-31"/>
<text text-anchor="middle" x="66" y="-38" font-family="Helvetica,sans-Serif" font-size="10.00">GameState::getDimension</text>
</g>
<!-- Node31 -->
<g id="node2" class="node"><title>Node31</title>
<g id="a_node2"><a xlink:href="classManhattan.html#a3160ab4be17834ebe0ffc1b2c3a39a80" target="_top" xlink:title="Calculates the heuristic value for a state. ">
<polygon fill="none" stroke="black" points="175.5,-50 175.5,-69 261.5,-69 261.5,-50 175.5,-50"/>
<text text-anchor="middle" x="218.5" y="-57" font-family="Helvetica,sans-Serif" font-size="10.00">Manhattan::calc</text>
</a>
</g>
</g>
<!-- Node30&#45;&gt;Node31 -->
<g id="edge1" class="edge"><title>Node30&#45;&gt;Node31</title>
<path fill="none" stroke="midnightblue" d="M142.125,-49.9842C153.523,-51.4231 164.924,-52.8625 175.283,-54.1703"/>
<polygon fill="midnightblue" stroke="midnightblue" points="142.496,-46.5033 132.136,-48.7232 141.619,-53.4482 142.496,-46.5033"/>
</g>
<!-- Node35 -->
<g id="node6" class="node"><title>Node35</title>
<g id="a_node6"><a xlink:href="classTileDifference.html#a4469aa4700e136f8e990472a5fb75a20" target="_top" xlink:title="Calculates the heuristic value for a state. ">
<polygon fill="none" stroke="black" points="168,-12 168,-31 269,-31 269,-12 168,-12"/>
<text text-anchor="middle" x="218.5" y="-19" font-family="Helvetica,sans-Serif" font-size="10.00">TileDifference::calc</text>
</a>
</g>
</g>
<!-- Node30&#45;&gt;Node35 -->
<g id="edge5" class="edge"><title>Node30&#45;&gt;Node35</title>
<path fill="none" stroke="midnightblue" d="M142.245,-31.0006C150.88,-29.9105 159.514,-28.8205 167.694,-27.7878"/>
<polygon fill="midnightblue" stroke="midnightblue" points="141.619,-27.5518 132.136,-32.2768 142.496,-34.4967 141.619,-27.5518"/>
</g>
<!-- Node32 -->
<g id="node3" class="node"><title>Node32</title>
<g id="a_node3"><a xlink:href="classAStarSolver.html#a205be9cf9707844ac04538cf4e4953b6" target="_top" xlink:title="Compares two states using the available heuristic. ">
<polygon fill="none" stroke="black" points="308,-88 308,-107 421,-107 421,-88 308,-88"/>
<text text-anchor="middle" x="364.5" y="-95" font-family="Helvetica,sans-Serif" font-size="10.00">AStarSolver::compare</text>
</a>
</g>
</g>
<!-- Node31&#45;&gt;Node32 -->
<g id="edge2" class="edge"><title>Node31&#45;&gt;Node32</title>
<path fill="none" stroke="midnightblue" d="M265.672,-71.6843C285.664,-76.96 308.719,-83.0438 327.424,-87.9799"/>
<polygon fill="midnightblue" stroke="midnightblue" points="266.399,-68.2565 255.837,-69.089 264.613,-75.0248 266.399,-68.2565"/>
</g>
<!-- Node33 -->
<g id="node4" class="node"><title>Node33</title>
<g id="a_node4"><a xlink:href="classGreedySolver.html#a8ad879d049de3e65288e174a2c235dc2" target="_top" xlink:title="Compares two states using the available heuristic. ">
<polygon fill="none" stroke="black" points="305,-50 305,-69 424,-69 424,-50 305,-50"/>
<text text-anchor="middle" x="364.5" y="-57" font-family="Helvetica,sans-Serif" font-size="10.00">GreedySolver::compare</text>
</a>
</g>
</g>
<!-- Node31&#45;&gt;Node33 -->
<g id="edge3" class="edge"><title>Node31&#45;&gt;Node33</title>
<path fill="none" stroke="midnightblue" d="M271.637,-59.5C282.412,-59.5 293.831,-59.5 304.822,-59.5"/>
<polygon fill="midnightblue" stroke="midnightblue" points="271.538,-56.0001 261.538,-59.5 271.538,-63.0001 271.538,-56.0001"/>
</g>
<!-- Node34 -->
<g id="node5" class="node"><title>Node34</title>
<g id="a_node5"><a xlink:href="classHillClimbingSolver.html#ac964fcf629413a82647aad14628f9223" target="_top" xlink:title="Compares two states using the available heuristic. ">
<polygon fill="none" stroke="black" points="316,-0.5 316,-30.5 413,-30.5 413,-0.5 316,-0.5"/>
<text text-anchor="start" x="324" y="-18.5" font-family="Helvetica,sans-Serif" font-size="10.00">HillClimbingSolver</text>
<text text-anchor="middle" x="364.5" y="-7.5" font-family="Helvetica,sans-Serif" font-size="10.00">::compare</text>
</a>
</g>
</g>
<!-- Node31&#45;&gt;Node34 -->
<g id="edge4" class="edge"><title>Node31&#45;&gt;Node34</title>
<path fill="none" stroke="midnightblue" d="M260.527,-46.9638C277.783,-41.6913 297.971,-35.5227 315.878,-30.0511"/>
<polygon fill="midnightblue" stroke="midnightblue" points="259.287,-43.6832 250.746,-49.9527 261.332,-50.3776 259.287,-43.6832"/>
</g>
</g>
</svg>
