<?xml version="1.0" encoding="UTF-8" standalone="no"?>
<!DOCTYPE svg PUBLIC "-//W3C//DTD SVG 1.1//EN"
 "http://www.w3.org/Graphics/SVG/1.1/DTD/svg11.dtd">
<!-- Generated by graphviz version 2.38.0 (20140413.2041)
 -->
<!-- Title: GreedySolver::solve Pages: 1 -->
<svg width="300pt" height="46pt"
 viewBox="0.00 0.00 300.00 46.00" xmlns="http://www.w3.org/2000/svg" xmlns:xlink="http://www.w3.org/1999/xlink">
<g id="graph0" class="graph" transform="scale(1 1) rotate(0) translate(4 42)">
<title>GreedySolver::solve</title>
<!-- Node11 -->
<g id="node1" class="node"><title>Node11</title>
<polygon fill="#bfbfbf" stroke="black" points="0,-0.5 0,-19.5 105,-19.5 105,-0.5 0,-0.5"/>
<text text-anchor="middle" x="52.5" y="-7.5" font-family="Helvetica,sans-Serif" font-size="10.00">GreedySolver::solve</text>
</g>
<!-- Node11&#45;&gt;Node11 -->
<g id="edge3" class="edge"><title>Node11&#45;&gt;Node11</title>
<path fill="none" stroke="midnightblue" d="M29.0626,-29.0292C30.341,-34.128 38.1535,-38 52.5,-38 74.8945,-38 81.368,-28.5653 71.9203,-19.7571"/>
<polygon fill="midnightblue" stroke="midnightblue" points="32.3158,-30.3243 33.0797,-19.7571 25.8927,-27.5415 32.3158,-30.3243"/>
</g>
<!-- Node12 -->
<g id="node2" class="node"><title>Node12</title>
<g id="a_node2"><a xlink:href="main_8cpp.html#ac6c9ec3e7bfe3c929009584766bef20d" target="_top" xlink:title="Creates one of each solver, randomly selects a puzzle from the input file and tests all solvers again...">
<polygon fill="none" stroke="black" points="141,-0.5 141,-19.5 218,-19.5 218,-0.5 141,-0.5"/>
<text text-anchor="middle" x="179.5" y="-7.5" font-family="Helvetica,sans-Serif" font-size="10.00">testAllSolvers</text>
</a>
</g>
</g>
<!-- Node11&#45;&gt;Node12 -->
<g id="edge1" class="edge"><title>Node11&#45;&gt;Node12</title>
<path fill="none" stroke="midnightblue" d="M115.255,-10C123.978,-10 132.72,-10 140.803,-10"/>
<polygon fill="midnightblue" stroke="midnightblue" points="115.064,-6.5001 105.064,-10 115.064,-13.5001 115.064,-6.5001"/>
</g>
<!-- Node13 -->
<g id="node3" class="node"><title>Node13</title>
<g id="a_node3"><a xlink:href="main_8cpp.html#ae66f6b31b5ad750f1fe042a706a4e3d4" target="_top" xlink:title="main">
<polygon fill="none" stroke="black" points="254,-0.5 254,-19.5 292,-19.5 292,-0.5 254,-0.5"/>
<text text-anchor="middle" x="273" y="-7.5" font-family="Helvetica,sans-Serif" font-size="10.00">main</text>
</a>
</g>
</g>
<!-- Node12&#45;&gt;Node13 -->
<g id="edge2" class="edge"><title>Node12&#45;&gt;Node13</title>
<path fill="none" stroke="midnightblue" d="M228.362,-10C237.347,-10 246.223,-10 253.601,-10"/>
<polygon fill="midnightblue" stroke="midnightblue" points="228.245,-6.5001 218.245,-10 228.245,-13.5001 228.245,-6.5001"/>
</g>
</g>
</svg>
