<?xml version="1.0" encoding="UTF-8" standalone="no"?>
<!DOCTYPE svg PUBLIC "-//W3C//DTD SVG 1.1//EN"
 "http://www.w3.org/Graphics/SVG/1.1/DTD/svg11.dtd">
<!-- Generated by graphviz version 2.38.0 (20140413.2041)
 -->
<!-- Title: GameState::GameState Pages: 1 -->
<svg width="441pt" height="104pt"
 viewBox="0.00 0.00 441.00 104.00" xmlns="http://www.w3.org/2000/svg" xmlns:xlink="http://www.w3.org/1999/xlink">
<g id="graph0" class="graph" transform="scale(1 1) rotate(0) translate(4 100)">
<title>GameState::GameState</title>
<!-- Node1 -->
<g id="node1" class="node"><title>Node1</title>
<polygon fill="#bfbfbf" stroke="black" points="0,-38.5 0,-57.5 122,-57.5 122,-38.5 0,-38.5"/>
<text text-anchor="middle" x="61" y="-45.5" font-family="Helvetica,sans-Serif" font-size="10.00">GameState::GameState</text>
</g>
<!-- Node2 -->
<g id="node2" class="node"><title>Node2</title>
<g id="a_node2"><a xlink:href="classGame.html#ad3adcd1c4d46c6412e1fd2958bb2f72b" target="_top" xlink:title="Creates a game representation and keeps a GameState of the goal state. ">
<polygon fill="none" stroke="black" points="158,-38.5 158,-57.5 233,-57.5 233,-38.5 158,-38.5"/>
<text text-anchor="middle" x="195.5" y="-45.5" font-family="Helvetica,sans-Serif" font-size="10.00">Game::Game</text>
</a>
</g>
</g>
<!-- Node1&#45;&gt;Node2 -->
<g id="edge1" class="edge"><title>Node1&#45;&gt;Node2</title>
<path fill="none" stroke="midnightblue" d="M132.074,-48C140.951,-48 149.736,-48 157.789,-48"/>
<polygon fill="midnightblue" stroke="midnightblue" points="132.047,-44.5001 122.047,-48 132.047,-51.5001 132.047,-44.5001"/>
</g>
<!-- Node3 -->
<g id="node3" class="node"><title>Node3</title>
<g id="a_node3"><a xlink:href="main_8cpp.html#ab8923421a0b0b96ad6b6d7cf25d7bc35" target="_top" xlink:title="Checks if the goal state is correctly generated. ">
<polygon fill="none" stroke="black" points="269,-76.5 269,-95.5 359,-95.5 359,-76.5 269,-76.5"/>
<text text-anchor="middle" x="314" y="-83.5" font-family="Helvetica,sans-Serif" font-size="10.00">testGoalCreation</text>
</a>
</g>
</g>
<!-- Node2&#45;&gt;Node3 -->
<g id="edge2" class="edge"><title>Node2&#45;&gt;Node3</title>
<path fill="none" stroke="midnightblue" d="M235.822,-60.8259C251.453,-65.9247 269.126,-71.6891 283.612,-76.4141"/>
<polygon fill="midnightblue" stroke="midnightblue" points="236.49,-57.3626 225.898,-57.589 234.32,-64.0175 236.49,-57.3626"/>
</g>
<!-- Node4 -->
<g id="node4" class="node"><title>Node4</title>
<g id="a_node4"><a xlink:href="main_8cpp.html#a114d586c6a5d1a4ea66a6793eb6a1fcc" target="_top" xlink:title="Tests the fastest solvers against all of the puzzles. ">
<polygon fill="none" stroke="black" points="271,-38.5 271,-57.5 357,-57.5 357,-38.5 271,-38.5"/>
<text text-anchor="middle" x="314" y="-45.5" font-family="Helvetica,sans-Serif" font-size="10.00">testFastSolvers</text>
</a>
</g>
</g>
<!-- Node2&#45;&gt;Node4 -->
<g id="edge3" class="edge"><title>Node2&#45;&gt;Node4</title>
<path fill="none" stroke="midnightblue" d="M243.166,-48C252.329,-48 261.889,-48 270.892,-48"/>
<polygon fill="midnightblue" stroke="midnightblue" points="243.042,-44.5001 233.042,-48 243.042,-51.5001 243.042,-44.5001"/>
</g>
<!-- Node5 -->
<g id="node5" class="node"><title>Node5</title>
<g id="a_node5"><a xlink:href="main_8cpp.html#ac6c9ec3e7bfe3c929009584766bef20d" target="_top" xlink:title="Creates one of each solver, randomly selects a puzzle from the input file and tests all solvers again...">
<polygon fill="none" stroke="black" points="275.5,-0.5 275.5,-19.5 352.5,-19.5 352.5,-0.5 275.5,-0.5"/>
<text text-anchor="middle" x="314" y="-7.5" font-family="Helvetica,sans-Serif" font-size="10.00">testAllSolvers</text>
</a>
</g>
</g>
<!-- Node2&#45;&gt;Node5 -->
<g id="edge4" class="edge"><title>Node2&#45;&gt;Node5</title>
<path fill="none" stroke="midnightblue" d="M235.822,-35.1741C251.453,-30.0753 269.126,-24.3109 283.612,-19.5859"/>
<polygon fill="midnightblue" stroke="midnightblue" points="234.32,-31.9825 225.898,-38.411 236.49,-38.6374 234.32,-31.9825"/>
</g>
<!-- Node6 -->
<g id="node6" class="node"><title>Node6</title>
<g id="a_node6"><a xlink:href="main_8cpp.html#ae66f6b31b5ad750f1fe042a706a4e3d4" target="_top" xlink:title="main">
<polygon fill="none" stroke="black" points="395,-0.5 395,-19.5 433,-19.5 433,-0.5 395,-0.5"/>
<text text-anchor="middle" x="414" y="-7.5" font-family="Helvetica,sans-Serif" font-size="10.00">main</text>
</a>
</g>
</g>
<!-- Node5&#45;&gt;Node6 -->
<g id="edge5" class="edge"><title>Node5&#45;&gt;Node6</title>
<path fill="none" stroke="midnightblue" d="M362.942,-10C374.292,-10 385.718,-10 394.782,-10"/>
<polygon fill="midnightblue" stroke="midnightblue" points="362.609,-6.5001 352.609,-10 362.609,-13.5001 362.609,-6.5001"/>
</g>
</g>
</svg>
