<?xml version="1.0" encoding="UTF-8" standalone="no"?>
<!DOCTYPE svg PUBLIC "-//W3C//DTD SVG 1.1//EN"
 "http://www.w3.org/Graphics/SVG/1.1/DTD/svg11.dtd">
<!-- Generated by graphviz version 2.38.0 (20140413.2041)
 -->
<!-- Title: BreadthFirstSolver Pages: 1 -->
<svg width="332pt" height="420pt"
 viewBox="0.00 0.00 331.50 420.00" xmlns="http://www.w3.org/2000/svg" xmlns:xlink="http://www.w3.org/1999/xlink">
<g id="graph0" class="graph" transform="scale(1 1) rotate(0) translate(4 416)">
<title>BreadthFirstSolver</title>
<!-- Node2 -->
<g id="node1" class="node"><title>Node2</title>
<polygon fill="#bfbfbf" stroke="black" points="106.5,-0.5 106.5,-57.5 204.5,-57.5 204.5,-0.5 106.5,-0.5"/>
<text text-anchor="middle" x="155.5" y="-45.5" font-family="Helvetica,sans-Serif" font-size="10.00">BreadthFirstSolver</text>
<polyline fill="none" stroke="black" points="106.5,-38.5 204.5,-38.5 "/>
<text text-anchor="middle" x="155.5" y="-26.5" font-family="Helvetica,sans-Serif" font-size="10.00"> </text>
<polyline fill="none" stroke="black" points="106.5,-19.5 204.5,-19.5 "/>
<text text-anchor="start" x="114.5" y="-7.5" font-family="Helvetica,sans-Serif" font-size="10.00">+ solve()</text>
</g>
<!-- Node3 -->
<g id="node2" class="node"><title>Node3</title>
<g id="a_node2"><a xlink:href="classSolver.html" target="_top" xlink:title="Base class for all 8&#45;puzzle solvers. ">
<polygon fill="none" stroke="black" points="96,-95.5 96,-284.5 215,-284.5 215,-95.5 96,-95.5"/>
<text text-anchor="middle" x="155.5" y="-272.5" font-family="Helvetica,sans-Serif" font-size="10.00">Solver</text>
<polyline fill="none" stroke="black" points="96,-265.5 215,-265.5 "/>
<text text-anchor="middle" x="155.5" y="-253.5" font-family="Helvetica,sans-Serif" font-size="10.00"> </text>
<polyline fill="none" stroke="black" points="96,-246.5 215,-246.5 "/>
<text text-anchor="start" x="104" y="-234.5" font-family="Helvetica,sans-Serif" font-size="10.00">+ getSecondsToSolve()</text>
<text text-anchor="start" x="104" y="-223.5" font-family="Helvetica,sans-Serif" font-size="10.00">+ getVisitedNodes()</text>
<text text-anchor="start" x="104" y="-212.5" font-family="Helvetica,sans-Serif" font-size="10.00">+ getMaxDepth()</text>
<text text-anchor="start" x="104" y="-201.5" font-family="Helvetica,sans-Serif" font-size="10.00">+ getSolutionDepth()</text>
<text text-anchor="start" x="104" y="-190.5" font-family="Helvetica,sans-Serif" font-size="10.00">+ isSolved()</text>
<text text-anchor="start" x="104" y="-179.5" font-family="Helvetica,sans-Serif" font-size="10.00">+ Solver()</text>
<text text-anchor="start" x="104" y="-168.5" font-family="Helvetica,sans-Serif" font-size="10.00">+ solve()</text>
<text text-anchor="start" x="104" y="-157.5" font-family="Helvetica,sans-Serif" font-size="10.00">+ to_string()</text>
<text text-anchor="start" x="104" y="-146.5" font-family="Helvetica,sans-Serif" font-size="10.00"># isVisited()</text>
<text text-anchor="start" x="104" y="-135.5" font-family="Helvetica,sans-Serif" font-size="10.00"># visit()</text>
<text text-anchor="start" x="104" y="-124.5" font-family="Helvetica,sans-Serif" font-size="10.00"># visit()</text>
<text text-anchor="start" x="104" y="-113.5" font-family="Helvetica,sans-Serif" font-size="10.00"># endSearch()</text>
<text text-anchor="start" x="104" y="-102.5" font-family="Helvetica,sans-Serif" font-size="10.00">&#45; compare()</text>
</a>
</g>
</g>
<!-- Node3&#45;&gt;Node2 -->
<g id="edge1" class="edge"><title>Node3&#45;&gt;Node2</title>
<path fill="none" stroke="midnightblue" d="M155.5,-85.0785C155.5,-75.1871 155.5,-65.8544 155.5,-57.7795"/>
<polygon fill="none" stroke="midnightblue" points="152,-85.1301 155.5,-95.1302 159,-85.1302 152,-85.1301"/>
</g>
<!-- Node4 -->
<g id="node3" class="node"><title>Node4</title>
<polygon fill="none" stroke="#bfbfbf" points="0,-354.5 0,-411.5 35,-411.5 35,-354.5 0,-354.5"/>
<text text-anchor="middle" x="17.5" y="-399.5" font-family="Helvetica,sans-Serif" font-size="10.00">float</text>
<polyline fill="none" stroke="#bfbfbf" points="0,-392.5 35,-392.5 "/>
<text text-anchor="middle" x="17.5" y="-380.5" font-family="Helvetica,sans-Serif" font-size="10.00"> </text>
<polyline fill="none" stroke="#bfbfbf" points="0,-373.5 35,-373.5 "/>
<text text-anchor="middle" x="17.5" y="-361.5" font-family="Helvetica,sans-Serif" font-size="10.00"> </text>
</g>
<!-- Node4&#45;&gt;Node3 -->
<g id="edge2" class="edge"><title>Node4&#45;&gt;Node3</title>
<path fill="none" stroke="#404040" d="M24.0975,-354.347C28.63,-338.545 35.63,-318.795 45.5,-303 57.0765,-284.474 72.1878,-266.569 87.4853,-250.712"/>
<polygon fill="none" stroke="#404040" points="87.5428,-250.654 88.9185,-243.575 95.9818,-242.123 94.6061,-249.201 87.5428,-250.654"/>
<text text-anchor="middle" x="86" y="-317" font-family="Helvetica,sans-Serif" font-size="10.00"> #secondsToSolve</text>
</g>
<!-- Node5 -->
<g id="node4" class="node"><title>Node5</title>
<polygon fill="none" stroke="#bfbfbf" points="53,-354.5 53,-411.5 194,-411.5 194,-354.5 53,-354.5"/>
<text text-anchor="middle" x="123.5" y="-399.5" font-family="Helvetica,sans-Serif" font-size="10.00">OrderedList&lt; GameState * &gt;</text>
<polyline fill="none" stroke="#bfbfbf" points="53,-392.5 194,-392.5 "/>
<text text-anchor="middle" x="123.5" y="-380.5" font-family="Helvetica,sans-Serif" font-size="10.00"> </text>
<polyline fill="none" stroke="#bfbfbf" points="53,-373.5 194,-373.5 "/>
<text text-anchor="middle" x="123.5" y="-361.5" font-family="Helvetica,sans-Serif" font-size="10.00"> </text>
</g>
<!-- Node5&#45;&gt;Node3 -->
<g id="edge3" class="edge"><title>Node5&#45;&gt;Node3</title>
<path fill="none" stroke="#404040" d="M128.153,-354.227C130.771,-338.601 134.224,-317.99 137.792,-296.696"/>
<polygon fill="none" stroke="#404040" points="137.798,-296.658 134.845,-290.079 139.781,-284.822 142.735,-291.401 137.798,-296.658"/>
<text text-anchor="middle" x="155" y="-317" font-family="Helvetica,sans-Serif" font-size="10.00"> #visited</text>
</g>
<!-- Node6 -->
<g id="node5" class="node"><title>Node6</title>
<polygon fill="none" stroke="#bfbfbf" points="212,-354.5 212,-411.5 241,-411.5 241,-354.5 212,-354.5"/>
<text text-anchor="middle" x="226.5" y="-399.5" font-family="Helvetica,sans-Serif" font-size="10.00">int</text>
<polyline fill="none" stroke="#bfbfbf" points="212,-392.5 241,-392.5 "/>
<text text-anchor="middle" x="226.5" y="-380.5" font-family="Helvetica,sans-Serif" font-size="10.00"> </text>
<polyline fill="none" stroke="#bfbfbf" points="212,-373.5 241,-373.5 "/>
<text text-anchor="middle" x="226.5" y="-361.5" font-family="Helvetica,sans-Serif" font-size="10.00"> </text>
</g>
<!-- Node6&#45;&gt;Node3 -->
<g id="edge4" class="edge"><title>Node6&#45;&gt;Node3</title>
<path fill="none" stroke="#404040" d="M214.833,-354.355C212.358,-348.326 209.8,-341.966 207.5,-336 202.589,-323.262 197.568,-309.839 192.678,-296.51"/>
<polygon fill="none" stroke="#404040" points="192.533,-296.114 186.719,-291.849 188.42,-284.841 194.234,-289.106 192.533,-296.114"/>
<text text-anchor="middle" x="240.5" y="-328" font-family="Helvetica,sans-Serif" font-size="10.00"> #maxDepth</text>
<text text-anchor="middle" x="240.5" y="-317" font-family="Helvetica,sans-Serif" font-size="10.00">#visitedNodes</text>
<text text-anchor="middle" x="240.5" y="-306" font-family="Helvetica,sans-Serif" font-size="10.00">#solutionDepth</text>
</g>
<!-- Node7 -->
<g id="node6" class="node"><title>Node7</title>
<polygon fill="none" stroke="#bfbfbf" points="278,-354.5 278,-411.5 313,-411.5 313,-354.5 278,-354.5"/>
<text text-anchor="middle" x="295.5" y="-399.5" font-family="Helvetica,sans-Serif" font-size="10.00">bool</text>
<polyline fill="none" stroke="#bfbfbf" points="278,-392.5 313,-392.5 "/>
<text text-anchor="middle" x="295.5" y="-380.5" font-family="Helvetica,sans-Serif" font-size="10.00"> </text>
<polyline fill="none" stroke="#bfbfbf" points="278,-373.5 313,-373.5 "/>
<text text-anchor="middle" x="295.5" y="-361.5" font-family="Helvetica,sans-Serif" font-size="10.00"> </text>
</g>
<!-- Node7&#45;&gt;Node3 -->
<g id="edge5" class="edge"><title>Node7&#45;&gt;Node3</title>
<path fill="none" stroke="#404040" d="M291.545,-354.212C288.393,-338.366 282.893,-318.616 273.5,-303 260.551,-281.472 242.355,-261.384 224.122,-244.333"/>
<polygon fill="none" stroke="#404040" points="224.07,-244.286 216.94,-243.209 215.191,-236.213 222.321,-237.29 224.07,-244.286"/>
<text text-anchor="middle" x="305" y="-317" font-family="Helvetica,sans-Serif" font-size="10.00"> #solved</text>
</g>
</g>
</svg>
