<?xml version="1.0" encoding="UTF-8" standalone="no"?>
<!DOCTYPE svg PUBLIC "-//W3C//DTD SVG 1.1//EN"
 "http://www.w3.org/Graphics/SVG/1.1/DTD/svg11.dtd">
<!-- Generated by graphviz version 2.38.0 (20140413.2041)
 -->
<!-- Title: include/DepthFirstSolver.hpp Pages: 1 -->
<svg width="419pt" height="252pt"
 viewBox="0.00 0.00 418.50 252.00" xmlns="http://www.w3.org/2000/svg" xmlns:xlink="http://www.w3.org/1999/xlink">
<g id="graph0" class="graph" transform="scale(1 1) rotate(0) translate(4 248)">
<title>include/DepthFirstSolver.hpp</title>
<!-- Node0 -->
<g id="node1" class="node"><title>Node0</title>
<polygon fill="#bfbfbf" stroke="black" points="96,-224.5 96,-243.5 238,-243.5 238,-224.5 96,-224.5"/>
<text text-anchor="middle" x="167" y="-231.5" font-family="Helvetica,sans-Serif" font-size="10.00">include/DepthFirstSolver.hpp</text>
</g>
<!-- Node1 -->
<g id="node2" class="node"><title>Node1</title>
<polygon fill="none" stroke="#bfbfbf" points="0,-112.5 0,-131.5 80,-131.5 80,-112.5 0,-112.5"/>
<text text-anchor="middle" x="40" y="-119.5" font-family="Helvetica,sans-Serif" font-size="10.00">LinkedList.hpp</text>
</g>
<!-- Node0&#45;&gt;Node1 -->
<g id="edge1" class="edge"><title>Node0&#45;&gt;Node1</title>
<path fill="none" stroke="midnightblue" d="M124.138,-224.492C101.873,-218 75.8682,-206.841 59,-188 47.6143,-175.282 43.0319,-156.083 41.1981,-141.845"/>
<polygon fill="midnightblue" stroke="midnightblue" points="44.6655,-141.334 40.2392,-131.708 37.6966,-141.993 44.6655,-141.334"/>
</g>
<!-- Node2 -->
<g id="node3" class="node"><title>Node2</title>
<polygon fill="none" stroke="#bfbfbf" points="68,-168.5 68,-187.5 168,-187.5 168,-168.5 68,-168.5"/>
<text text-anchor="middle" x="118" y="-175.5" font-family="Helvetica,sans-Serif" font-size="10.00">DynamicStack.hpp</text>
</g>
<!-- Node0&#45;&gt;Node2 -->
<g id="edge2" class="edge"><title>Node0&#45;&gt;Node2</title>
<path fill="none" stroke="midnightblue" d="M158.909,-224.083C151.845,-216.298 141.412,-204.801 132.851,-195.367"/>
<polygon fill="midnightblue" stroke="midnightblue" points="135.253,-192.805 125.941,-187.751 130.069,-197.509 135.253,-192.805"/>
</g>
<!-- Node3 -->
<g id="node4" class="node"><title>Node3</title>
<g id="a_node4"><a xlink:href="Solver_8hpp.html" target="_top" xlink:title="Solver.hpp">
<polygon fill="none" stroke="black" points="186,-168.5 186,-187.5 248,-187.5 248,-168.5 186,-168.5"/>
<text text-anchor="middle" x="217" y="-175.5" font-family="Helvetica,sans-Serif" font-size="10.00">Solver.hpp</text>
</a>
</g>
</g>
<!-- Node0&#45;&gt;Node3 -->
<g id="edge3" class="edge"><title>Node0&#45;&gt;Node3</title>
<path fill="none" stroke="midnightblue" d="M175.256,-224.083C182.465,-216.298 193.11,-204.801 201.846,-195.367"/>
<polygon fill="midnightblue" stroke="midnightblue" points="204.671,-197.467 208.897,-187.751 199.535,-192.711 204.671,-197.467"/>
</g>
<!-- Node9 -->
<g id="node10" class="node"><title>Node9</title>
<g id="a_node10"><a xlink:href="GameAction_8hpp.html" target="_top" xlink:title="GameAction.hpp">
<polygon fill="none" stroke="black" points="321.5,-0.5 321.5,-19.5 410.5,-19.5 410.5,-0.5 321.5,-0.5"/>
<text text-anchor="middle" x="366" y="-7.5" font-family="Helvetica,sans-Serif" font-size="10.00">GameAction.hpp</text>
</a>
</g>
</g>
<!-- Node0&#45;&gt;Node9 -->
<g id="edge14" class="edge"><title>Node0&#45;&gt;Node9</title>
<path fill="none" stroke="midnightblue" d="M215.662,-224.403C264.984,-212.817 338.757,-186.926 373,-132 392.774,-100.283 381.737,-54.3271 373.127,-29.161"/>
<polygon fill="midnightblue" stroke="midnightblue" points="376.406,-27.9378 369.682,-19.7504 369.833,-30.3442 376.406,-27.9378"/>
</g>
<!-- Node3&#45;&gt;Node1 -->
<g id="edge5" class="edge"><title>Node3&#45;&gt;Node1</title>
<path fill="none" stroke="midnightblue" d="M188.954,-168.444C158.918,-159.28 111.087,-144.688 77.7573,-134.519"/>
<polygon fill="midnightblue" stroke="midnightblue" points="78.5011,-131.087 67.915,-131.516 76.4584,-137.782 78.5011,-131.087"/>
</g>
<!-- Node4 -->
<g id="node5" class="node"><title>Node4</title>
<polygon fill="none" stroke="#bfbfbf" points="98,-112.5 98,-131.5 142,-131.5 142,-112.5 98,-112.5"/>
<text text-anchor="middle" x="120" y="-119.5" font-family="Helvetica,sans-Serif" font-size="10.00">time.h</text>
</g>
<!-- Node3&#45;&gt;Node4 -->
<g id="edge4" class="edge"><title>Node3&#45;&gt;Node4</title>
<path fill="none" stroke="midnightblue" d="M201.415,-168.324C186.001,-159.743 162.188,-146.486 144.29,-136.522"/>
<polygon fill="midnightblue" stroke="midnightblue" points="145.986,-133.461 135.546,-131.655 142.581,-139.577 145.986,-133.461"/>
</g>
<!-- Node5 -->
<g id="node6" class="node"><title>Node5</title>
<polygon fill="none" stroke="#bfbfbf" points="160,-112.5 160,-131.5 246,-131.5 246,-112.5 160,-112.5"/>
<text text-anchor="middle" x="203" y="-119.5" font-family="Helvetica,sans-Serif" font-size="10.00">OrderedList.hpp</text>
</g>
<!-- Node3&#45;&gt;Node5 -->
<g id="edge6" class="edge"><title>Node3&#45;&gt;Node5</title>
<path fill="none" stroke="midnightblue" d="M214.688,-168.083C212.833,-160.927 210.165,-150.635 207.846,-141.691"/>
<polygon fill="midnightblue" stroke="midnightblue" points="211.166,-140.553 205.269,-131.751 204.391,-142.309 211.166,-140.553"/>
</g>
<!-- Node6 -->
<g id="node7" class="node"><title>Node6</title>
<g id="a_node7"><a xlink:href="GameState_8hpp.html" target="_top" xlink:title="GameState.hpp">
<polygon fill="none" stroke="black" points="233.5,-56.5 233.5,-75.5 318.5,-75.5 318.5,-56.5 233.5,-56.5"/>
<text text-anchor="middle" x="276" y="-63.5" font-family="Helvetica,sans-Serif" font-size="10.00">GameState.hpp</text>
</a>
</g>
</g>
<!-- Node3&#45;&gt;Node6 -->
<g id="edge7" class="edge"><title>Node3&#45;&gt;Node6</title>
<path fill="none" stroke="midnightblue" d="M225.995,-168.475C234.52,-159.956 247.157,-146.125 255,-132 263.096,-117.42 268.634,-99.2445 271.982,-85.823"/>
<polygon fill="midnightblue" stroke="midnightblue" points="275.445,-86.3818 274.286,-75.8504 268.624,-84.8055 275.445,-86.3818"/>
</g>
<!-- Node10 -->
<g id="node11" class="node"><title>Node10</title>
<g id="a_node11"><a xlink:href="Game_8hpp.html" target="_top" xlink:title="Game.hpp">
<polygon fill="none" stroke="black" points="302,-112.5 302,-131.5 364,-131.5 364,-112.5 302,-112.5"/>
<text text-anchor="middle" x="333" y="-119.5" font-family="Helvetica,sans-Serif" font-size="10.00">Game.hpp</text>
</a>
</g>
</g>
<!-- Node3&#45;&gt;Node10 -->
<g id="edge11" class="edge"><title>Node3&#45;&gt;Node10</title>
<path fill="none" stroke="midnightblue" d="M235.381,-168.444C254.216,-159.675 283.731,-145.935 305.379,-135.858"/>
<polygon fill="midnightblue" stroke="midnightblue" points="307.117,-138.91 314.705,-131.516 304.162,-132.564 307.117,-138.91"/>
</g>
<!-- Node7 -->
<g id="node8" class="node"><title>Node7</title>
<polygon fill="none" stroke="#bfbfbf" points="189.5,-0.5 189.5,-19.5 230.5,-19.5 230.5,-0.5 189.5,-0.5"/>
<text text-anchor="middle" x="210" y="-7.5" font-family="Helvetica,sans-Serif" font-size="10.00">string</text>
</g>
<!-- Node6&#45;&gt;Node7 -->
<g id="edge8" class="edge"><title>Node6&#45;&gt;Node7</title>
<path fill="none" stroke="midnightblue" d="M265.396,-56.324C255.544,-48.2631 240.649,-36.0765 228.785,-26.3695"/>
<polygon fill="midnightblue" stroke="midnightblue" points="230.753,-23.4575 220.797,-19.8339 226.32,-28.8752 230.753,-23.4575"/>
</g>
<!-- Node8 -->
<g id="node9" class="node"><title>Node8</title>
<polygon fill="none" stroke="#bfbfbf" points="249,-0.5 249,-19.5 303,-19.5 303,-0.5 249,-0.5"/>
<text text-anchor="middle" x="276" y="-7.5" font-family="Helvetica,sans-Serif" font-size="10.00">iostream</text>
</g>
<!-- Node6&#45;&gt;Node8 -->
<g id="edge9" class="edge"><title>Node6&#45;&gt;Node8</title>
<path fill="none" stroke="midnightblue" d="M276,-56.083C276,-49.0059 276,-38.8611 276,-29.9865"/>
<polygon fill="midnightblue" stroke="midnightblue" points="279.5,-29.751 276,-19.7511 272.5,-29.7511 279.5,-29.751"/>
</g>
<!-- Node6&#45;&gt;Node9 -->
<g id="edge10" class="edge"><title>Node6&#45;&gt;Node9</title>
<path fill="none" stroke="midnightblue" d="M290.46,-56.324C304.5,-47.9002 326.048,-34.9709 342.543,-25.0741"/>
<polygon fill="midnightblue" stroke="midnightblue" points="344.802,-27.8007 351.576,-19.6545 341.2,-21.7983 344.802,-27.8007"/>
</g>
<!-- Node10&#45;&gt;Node6 -->
<g id="edge12" class="edge"><title>Node10&#45;&gt;Node6</title>
<path fill="none" stroke="midnightblue" d="M323.842,-112.324C315.499,-104.42 302.968,-92.5482 292.823,-82.9377"/>
<polygon fill="midnightblue" stroke="midnightblue" points="294.991,-80.1705 285.325,-75.8339 290.177,-85.2522 294.991,-80.1705"/>
</g>
<!-- Node10&#45;&gt;Node9 -->
<g id="edge13" class="edge"><title>Node10&#45;&gt;Node9</title>
<path fill="none" stroke="midnightblue" d="M335.589,-112.368C340.939,-94.5366 353.311,-53.2953 360.518,-29.2717"/>
<polygon fill="midnightblue" stroke="midnightblue" points="363.901,-30.1754 363.423,-19.5914 357.197,-28.1639 363.901,-30.1754"/>
</g>
</g>
</svg>
