<?xml version="1.0" encoding="UTF-8" standalone="no"?>
<!DOCTYPE svg PUBLIC "-//W3C//DTD SVG 1.1//EN"
 "http://www.w3.org/Graphics/SVG/1.1/DTD/svg11.dtd">
<!-- Generated by graphviz version 2.38.0 (20140413.2041)
 -->
<!-- Title: include/GameAction.hpp Pages: 1 -->
<svg width="936pt" height="308pt"
 viewBox="0.00 0.00 935.50 308.00" xmlns="http://www.w3.org/2000/svg" xmlns:xlink="http://www.w3.org/1999/xlink">
<g id="graph0" class="graph" transform="scale(1 1) rotate(0) translate(4 304)">
<title>include/GameAction.hpp</title>
<!-- Node1 -->
<g id="node1" class="node"><title>Node1</title>
<polygon fill="#bfbfbf" stroke="black" points="487,-280.5 487,-299.5 610,-299.5 610,-280.5 487,-280.5"/>
<text text-anchor="middle" x="548.5" y="-287.5" font-family="Helvetica,sans-Serif" font-size="10.00">include/GameAction.hpp</text>
</g>
<!-- Node2 -->
<g id="node2" class="node"><title>Node2</title>
<g id="a_node2"><a xlink:href="GameState_8hpp.html" target="_top" xlink:title="include/GameState.hpp">
<polygon fill="none" stroke="black" points="489,-224.5 489,-243.5 608,-243.5 608,-224.5 489,-224.5"/>
<text text-anchor="middle" x="548.5" y="-231.5" font-family="Helvetica,sans-Serif" font-size="10.00">include/GameState.hpp</text>
</a>
</g>
</g>
<!-- Node1&#45;&gt;Node2 -->
<g id="edge1" class="edge"><title>Node1&#45;&gt;Node2</title>
<path fill="none" stroke="midnightblue" d="M548.5,-269.805C548.5,-260.91 548.5,-250.78 548.5,-243.751"/>
<polygon fill="midnightblue" stroke="midnightblue" points="545,-270.083 548.5,-280.083 552,-270.083 545,-270.083"/>
</g>
<!-- Node6 -->
<g id="node6" class="node"><title>Node6</title>
<g id="a_node6"><a xlink:href="DepthFirstSolver_8hpp.html" target="_top" xlink:title="include/DepthFirstSolver.hpp">
<polygon fill="none" stroke="black" points="785.5,-56.5 785.5,-75.5 927.5,-75.5 927.5,-56.5 785.5,-56.5"/>
<text text-anchor="middle" x="856.5" y="-63.5" font-family="Helvetica,sans-Serif" font-size="10.00">include/DepthFirstSolver.hpp</text>
</a>
</g>
</g>
<!-- Node1&#45;&gt;Node6 -->
<g id="edge23" class="edge"><title>Node1&#45;&gt;Node6</title>
<path fill="none" stroke="midnightblue" d="M570.491,-274.852C583.9,-266.126 601.322,-254.609 616.5,-244 706.037,-181.418 811.018,-101.756 845.16,-75.6834"/>
<polygon fill="midnightblue" stroke="midnightblue" points="568.414,-272.027 561.925,-280.403 572.221,-277.902 568.414,-272.027"/>
</g>
<!-- Node11 -->
<g id="node11" class="node"><title>Node11</title>
<g id="a_node11"><a xlink:href="Game_8hpp.html" target="_top" xlink:title="include/Game.hpp">
<polygon fill="none" stroke="black" points="419,-168.5 419,-187.5 514,-187.5 514,-168.5 419,-168.5"/>
<text text-anchor="middle" x="466.5" y="-175.5" font-family="Helvetica,sans-Serif" font-size="10.00">include/Game.hpp</text>
</a>
</g>
</g>
<!-- Node1&#45;&gt;Node11 -->
<g id="edge22" class="edge"><title>Node1&#45;&gt;Node11</title>
<path fill="none" stroke="midnightblue" d="M517.861,-275.862C504.1,-268.446 488.881,-257.856 479.5,-244 467.758,-226.656 466.141,-201.12 466.187,-187.806"/>
<polygon fill="midnightblue" stroke="midnightblue" points="516.558,-279.124 527.065,-280.489 519.703,-272.87 516.558,-279.124"/>
</g>
<!-- Node3 -->
<g id="node3" class="node"><title>Node3</title>
<g id="a_node3"><a xlink:href="Solver_8hpp.html" target="_top" xlink:title="include/Solver.hpp">
<polygon fill="none" stroke="black" points="458.5,-112.5 458.5,-131.5 554.5,-131.5 554.5,-112.5 458.5,-112.5"/>
<text text-anchor="middle" x="506.5" y="-119.5" font-family="Helvetica,sans-Serif" font-size="10.00">include/Solver.hpp</text>
</a>
</g>
</g>
<!-- Node2&#45;&gt;Node3 -->
<g id="edge2" class="edge"><title>Node2&#45;&gt;Node3</title>
<path fill="none" stroke="midnightblue" d="M541.627,-214.998C532.462,-190.997 516.606,-149.468 509.78,-131.591"/>
<polygon fill="midnightblue" stroke="midnightblue" points="538.367,-216.275 545.204,-224.368 544.907,-213.778 538.367,-216.275"/>
</g>
<!-- Node2&#45;&gt;Node11 -->
<g id="edge15" class="edge"><title>Node2&#45;&gt;Node11</title>
<path fill="none" stroke="midnightblue" d="M526.667,-218.622C511.687,-208.757 492.303,-195.992 479.642,-187.655"/>
<polygon fill="midnightblue" stroke="midnightblue" points="525.049,-221.747 535.325,-224.324 528.899,-215.901 525.049,-221.747"/>
</g>
<!-- Node4 -->
<g id="node4" class="node"><title>Node4</title>
<g id="a_node4"><a xlink:href="AStarSolver_8hpp.html" target="_top" xlink:title="include/AStarSolver.hpp">
<polygon fill="none" stroke="black" points="165,-56.5 165,-75.5 286,-75.5 286,-56.5 165,-56.5"/>
<text text-anchor="middle" x="225.5" y="-63.5" font-family="Helvetica,sans-Serif" font-size="10.00">include/AStarSolver.hpp</text>
</a>
</g>
</g>
<!-- Node3&#45;&gt;Node4 -->
<g id="edge3" class="edge"><title>Node3&#45;&gt;Node4</title>
<path fill="none" stroke="midnightblue" d="M452.054,-110.537C398.948,-100.332 319.162,-84.9992 269.817,-75.5164"/>
<polygon fill="midnightblue" stroke="midnightblue" points="451.494,-113.993 461.975,-112.444 452.815,-107.119 451.494,-113.993"/>
</g>
<!-- Node3&#45;&gt;Node6 -->
<g id="edge5" class="edge"><title>Node3&#45;&gt;Node6</title>
<path fill="none" stroke="midnightblue" d="M564.997,-111.975C630.769,-101.827 736.773,-85.4722 801.204,-75.5313"/>
<polygon fill="midnightblue" stroke="midnightblue" points="564.148,-108.564 554.799,-113.548 565.215,-115.482 564.148,-108.564"/>
</g>
<!-- Node7 -->
<g id="node7" class="node"><title>Node7</title>
<g id="a_node7"><a xlink:href="BreadthFirstSolver_8hpp.html" target="_top" xlink:title="include/BreadthFirstSolver.hpp">
<polygon fill="none" stroke="black" points="617.5,-56.5 617.5,-75.5 767.5,-75.5 767.5,-56.5 617.5,-56.5"/>
<text text-anchor="middle" x="692.5" y="-63.5" font-family="Helvetica,sans-Serif" font-size="10.00">include/BreadthFirstSolver.hpp</text>
</a>
</g>
</g>
<!-- Node3&#45;&gt;Node7 -->
<g id="edge7" class="edge"><title>Node3&#45;&gt;Node7</title>
<path fill="none" stroke="midnightblue" d="M545.878,-109.568C580.966,-99.381 631.521,-84.7034 663.166,-75.5164"/>
<polygon fill="midnightblue" stroke="midnightblue" points="544.6,-106.294 535.972,-112.444 546.552,-113.017 544.6,-106.294"/>
</g>
<!-- Node8 -->
<g id="node8" class="node"><title>Node8</title>
<g id="a_node8"><a xlink:href="GreedySolver_8hpp.html" target="_top" xlink:title="include/GreedySolver.hpp">
<polygon fill="none" stroke="black" points="304.5,-56.5 304.5,-75.5 432.5,-75.5 432.5,-56.5 304.5,-56.5"/>
<text text-anchor="middle" x="368.5" y="-63.5" font-family="Helvetica,sans-Serif" font-size="10.00">include/GreedySolver.hpp</text>
</a>
</g>
</g>
<!-- Node3&#45;&gt;Node8 -->
<g id="edge9" class="edge"><title>Node3&#45;&gt;Node8</title>
<path fill="none" stroke="midnightblue" d="M475.251,-108.772C449.329,-98.6287 413.138,-84.4669 390.264,-75.5164"/>
<polygon fill="midnightblue" stroke="midnightblue" points="474.046,-112.059 484.633,-112.444 476.596,-105.54 474.046,-112.059"/>
</g>
<!-- Node9 -->
<g id="node9" class="node"><title>Node9</title>
<g id="a_node9"><a xlink:href="HillClimbingSolver_8hpp.html" target="_top" xlink:title="include/HillClimbingSolver.hpp">
<polygon fill="none" stroke="black" points="451,-56.5 451,-75.5 600,-75.5 600,-56.5 451,-56.5"/>
<text text-anchor="middle" x="525.5" y="-63.5" font-family="Helvetica,sans-Serif" font-size="10.00">include/HillClimbingSolver.hpp</text>
</a>
</g>
</g>
<!-- Node3&#45;&gt;Node9 -->
<g id="edge11" class="edge"><title>Node3&#45;&gt;Node9</title>
<path fill="none" stroke="midnightblue" d="M513.046,-102.396C516.224,-93.362 519.893,-82.936 522.421,-75.7511"/>
<polygon fill="midnightblue" stroke="midnightblue" points="509.655,-101.488 509.637,-112.083 516.258,-103.812 509.655,-101.488"/>
</g>
<!-- Node10 -->
<g id="node10" class="node"><title>Node10</title>
<g id="a_node10"><a xlink:href="MonteCarloSolver_8hpp.html" target="_top" xlink:title="include/MonteCarloSolver.hpp">
<polygon fill="none" stroke="black" points="0,-56.5 0,-75.5 147,-75.5 147,-56.5 0,-56.5"/>
<text text-anchor="middle" x="73.5" y="-63.5" font-family="Helvetica,sans-Serif" font-size="10.00">include/MonteCarloSolver.hpp</text>
</a>
</g>
</g>
<!-- Node3&#45;&gt;Node10 -->
<g id="edge13" class="edge"><title>Node3&#45;&gt;Node10</title>
<path fill="none" stroke="midnightblue" d="M447.749,-113.673C368.098,-103.74 226.14,-86.0359 141.822,-75.5206"/>
<polygon fill="midnightblue" stroke="midnightblue" points="447.733,-117.198 458.09,-114.963 448.6,-110.252 447.733,-117.198"/>
</g>
<!-- Node5 -->
<g id="node5" class="node"><title>Node5</title>
<g id="a_node5"><a xlink:href="main_8cpp.html" target="_top" xlink:title="test/main.cpp">
<polygon fill="none" stroke="black" points="408.5,-0.5 408.5,-19.5 484.5,-19.5 484.5,-0.5 408.5,-0.5"/>
<text text-anchor="middle" x="446.5" y="-7.5" font-family="Helvetica,sans-Serif" font-size="10.00">test/main.cpp</text>
</a>
</g>
</g>
<!-- Node4&#45;&gt;Node5 -->
<g id="edge4" class="edge"><title>Node4&#45;&gt;Node5</title>
<path fill="none" stroke="midnightblue" d="M270.421,-54.0237C312.168,-43.8232 373.482,-28.8414 411.646,-19.5164"/>
<polygon fill="midnightblue" stroke="midnightblue" points="269.402,-50.6699 260.518,-56.4435 271.063,-57.4698 269.402,-50.6699"/>
</g>
<!-- Node6&#45;&gt;Node5 -->
<g id="edge6" class="edge"><title>Node6&#45;&gt;Node5</title>
<path fill="none" stroke="midnightblue" d="M781.384,-55.1067C693.731,-43.5621 552.211,-24.9229 484.702,-16.0315"/>
<polygon fill="midnightblue" stroke="midnightblue" points="781.163,-58.6077 791.534,-56.4435 782.077,-51.6676 781.163,-58.6077"/>
</g>
<!-- Node7&#45;&gt;Node5 -->
<g id="edge8" class="edge"><title>Node7&#45;&gt;Node5</title>
<path fill="none" stroke="midnightblue" d="M643.641,-54.2749C597.007,-44.0382 527.692,-28.8225 484.892,-19.4275"/>
<polygon fill="midnightblue" stroke="midnightblue" points="643.003,-57.718 653.521,-56.4435 644.504,-50.8808 643.003,-57.718"/>
</g>
<!-- Node8&#45;&gt;Node5 -->
<g id="edge10" class="edge"><title>Node8&#45;&gt;Node5</title>
<path fill="none" stroke="midnightblue" d="M389.268,-50.6221C403.517,-40.7574 421.956,-27.9919 433.999,-19.6545"/>
<polygon fill="midnightblue" stroke="midnightblue" points="387.262,-47.7541 381.032,-56.324 391.246,-53.5095 387.262,-47.7541"/>
</g>
<!-- Node9&#45;&gt;Node5 -->
<g id="edge12" class="edge"><title>Node9&#45;&gt;Node5</title>
<path fill="none" stroke="midnightblue" d="M504.466,-50.6221C490.034,-40.7574 471.359,-27.9919 459.161,-19.6545"/>
<polygon fill="midnightblue" stroke="midnightblue" points="502.577,-53.5703 512.807,-56.324 506.527,-47.7914 502.577,-53.5703"/>
</g>
<!-- Node10&#45;&gt;Node5 -->
<g id="edge14" class="edge"><title>Node10&#45;&gt;Node5</title>
<path fill="none" stroke="midnightblue" d="M142.873,-54.9567C221.277,-43.6061 346.076,-25.5385 408.432,-16.5111"/>
<polygon fill="midnightblue" stroke="midnightblue" points="141.998,-51.5468 132.603,-56.4435 143.001,-58.4746 141.998,-51.5468"/>
</g>
<!-- Node11&#45;&gt;Node3 -->
<g id="edge16" class="edge"><title>Node11&#45;&gt;Node3</title>
<path fill="none" stroke="midnightblue" d="M479.2,-159.855C486.126,-150.505 494.406,-139.327 500.018,-131.751"/>
<polygon fill="midnightblue" stroke="midnightblue" points="476.245,-157.964 473.105,-168.083 481.87,-162.131 476.245,-157.964"/>
</g>
<!-- Node12 -->
<g id="node12" class="node"><title>Node12</title>
<g id="a_node12"><a xlink:href="Heuristic_8hpp.html" target="_top" xlink:title="include/Heuristic.hpp">
<polygon fill="none" stroke="black" points="314.5,-112.5 314.5,-131.5 422.5,-131.5 422.5,-112.5 314.5,-112.5"/>
<text text-anchor="middle" x="368.5" y="-119.5" font-family="Helvetica,sans-Serif" font-size="10.00">include/Heuristic.hpp</text>
</a>
</g>
</g>
<!-- Node11&#45;&gt;Node12 -->
<g id="edge17" class="edge"><title>Node11&#45;&gt;Node12</title>
<path fill="none" stroke="midnightblue" d="M441.914,-163.453C423.822,-153.483 399.765,-140.228 384.206,-131.655"/>
<polygon fill="midnightblue" stroke="midnightblue" points="440.307,-166.563 450.755,-168.324 443.685,-160.432 440.307,-166.563"/>
</g>
<!-- Node12&#45;&gt;Node4 -->
<g id="edge18" class="edge"><title>Node12&#45;&gt;Node4</title>
<path fill="none" stroke="midnightblue" d="M336.473,-108.906C309.588,-98.7536 271.859,-84.5063 248.053,-75.5164"/>
<polygon fill="midnightblue" stroke="midnightblue" points="335.25,-112.185 345.841,-112.444 337.722,-105.636 335.25,-112.185"/>
</g>
<!-- Node12&#45;&gt;Node8 -->
<g id="edge19" class="edge"><title>Node12&#45;&gt;Node8</title>
<path fill="none" stroke="midnightblue" d="M368.5,-101.805C368.5,-92.9102 368.5,-82.7798 368.5,-75.7511"/>
<polygon fill="midnightblue" stroke="midnightblue" points="365,-102.083 368.5,-112.083 372,-102.083 365,-102.083"/>
</g>
<!-- Node12&#45;&gt;Node9 -->
<g id="edge20" class="edge"><title>Node12&#45;&gt;Node9</title>
<path fill="none" stroke="midnightblue" d="M402.889,-109.172C432.452,-99.0039 474.373,-84.5852 500.739,-75.5164"/>
<polygon fill="midnightblue" stroke="midnightblue" points="401.695,-105.881 393.377,-112.444 403.972,-112.501 401.695,-105.881"/>
</g>
<!-- Node12&#45;&gt;Node10 -->
<g id="edge21" class="edge"><title>Node12&#45;&gt;Node10</title>
<path fill="none" stroke="midnightblue" d="M311.689,-110.601C255.937,-100.395 171.936,-85.0189 120.025,-75.5164"/>
<polygon fill="midnightblue" stroke="midnightblue" points="311.29,-114.086 321.756,-112.444 312.55,-107.2 311.29,-114.086"/>
</g>
</g>
</svg>
