<?xml version="1.0" encoding="UTF-8" standalone="no"?>
<!DOCTYPE svg PUBLIC "-//W3C//DTD SVG 1.1//EN"
 "http://www.w3.org/Graphics/SVG/1.1/DTD/svg11.dtd">
<!-- Generated by graphviz version 2.38.0 (20140413.2041)
 -->
<!-- Title: include/GameState.hpp Pages: 1 -->
<svg width="936pt" height="252pt"
 viewBox="0.00 0.00 935.50 252.00" xmlns="http://www.w3.org/2000/svg" xmlns:xlink="http://www.w3.org/1999/xlink">
<g id="graph0" class="graph" transform="scale(1 1) rotate(0) translate(4 248)">
<title>include/GameState.hpp</title>
<!-- Node4 -->
<g id="node1" class="node"><title>Node4</title>
<polygon fill="#bfbfbf" stroke="black" points="449.5,-224.5 449.5,-243.5 568.5,-243.5 568.5,-224.5 449.5,-224.5"/>
<text text-anchor="middle" x="509" y="-231.5" font-family="Helvetica,sans-Serif" font-size="10.00">include/GameState.hpp</text>
</g>
<!-- Node5 -->
<g id="node2" class="node"><title>Node5</title>
<g id="a_node2"><a xlink:href="Solver_8hpp.html" target="_top" xlink:title="include/Solver.hpp">
<polygon fill="none" stroke="black" points="423,-112.5 423,-131.5 519,-131.5 519,-112.5 423,-112.5"/>
<text text-anchor="middle" x="471" y="-119.5" font-family="Helvetica,sans-Serif" font-size="10.00">include/Solver.hpp</text>
</a>
</g>
</g>
<!-- Node4&#45;&gt;Node5 -->
<g id="edge1" class="edge"><title>Node4&#45;&gt;Node5</title>
<path fill="none" stroke="midnightblue" d="M500.931,-215.21C497.357,-207.011 493.239,-197.1 490,-188 482.904,-168.063 476.393,-144.027 473.153,-131.513"/>
<polygon fill="midnightblue" stroke="midnightblue" points="497.797,-216.775 505.059,-224.489 504.192,-213.93 497.797,-216.775"/>
</g>
<!-- Node13 -->
<g id="node10" class="node"><title>Node13</title>
<g id="a_node10"><a xlink:href="Game_8hpp.html" target="_top" xlink:title="include/Game.hpp">
<polygon fill="none" stroke="black" points="499.5,-168.5 499.5,-187.5 594.5,-187.5 594.5,-168.5 499.5,-168.5"/>
<text text-anchor="middle" x="547" y="-175.5" font-family="Helvetica,sans-Serif" font-size="10.00">include/Game.hpp</text>
</a>
</g>
</g>
<!-- Node4&#45;&gt;Node13 -->
<g id="edge14" class="edge"><title>Node4&#45;&gt;Node13</title>
<path fill="none" stroke="midnightblue" d="M521.065,-215.855C527.645,-206.505 535.511,-195.327 540.842,-187.751"/>
<polygon fill="midnightblue" stroke="midnightblue" points="518.168,-213.891 515.275,-224.083 523.892,-217.919 518.168,-213.891"/>
</g>
<!-- Node6 -->
<g id="node3" class="node"><title>Node6</title>
<g id="a_node3"><a xlink:href="AStarSolver_8hpp.html" target="_top" xlink:title="include/AStarSolver.hpp">
<polygon fill="none" stroke="black" points="327.5,-56.5 327.5,-75.5 448.5,-75.5 448.5,-56.5 327.5,-56.5"/>
<text text-anchor="middle" x="388" y="-63.5" font-family="Helvetica,sans-Serif" font-size="10.00">include/AStarSolver.hpp</text>
</a>
</g>
</g>
<!-- Node5&#45;&gt;Node6 -->
<g id="edge2" class="edge"><title>Node5&#45;&gt;Node6</title>
<path fill="none" stroke="midnightblue" d="M448.901,-106.622C433.738,-96.7574 414.117,-83.9919 401.302,-75.6545"/>
<polygon fill="midnightblue" stroke="midnightblue" points="447.374,-109.804 457.665,-112.324 451.191,-103.937 447.374,-109.804"/>
</g>
<!-- Node8 -->
<g id="node5" class="node"><title>Node8</title>
<g id="a_node5"><a xlink:href="DepthFirstSolver_8hpp.html" target="_top" xlink:title="include/DepthFirstSolver.hpp">
<polygon fill="none" stroke="black" points="0,-56.5 0,-75.5 142,-75.5 142,-56.5 0,-56.5"/>
<text text-anchor="middle" x="71" y="-63.5" font-family="Helvetica,sans-Serif" font-size="10.00">include/DepthFirstSolver.hpp</text>
</a>
</g>
</g>
<!-- Node5&#45;&gt;Node8 -->
<g id="edge4" class="edge"><title>Node5&#45;&gt;Node8</title>
<path fill="none" stroke="midnightblue" d="M412.643,-113.122C338.418,-103.101 210.721,-85.8624 134.237,-75.537"/>
<polygon fill="midnightblue" stroke="midnightblue" points="412.372,-116.617 422.751,-114.486 413.309,-109.68 412.372,-116.617"/>
</g>
<!-- Node9 -->
<g id="node6" class="node"><title>Node9</title>
<g id="a_node6"><a xlink:href="BreadthFirstSolver_8hpp.html" target="_top" xlink:title="include/BreadthFirstSolver.hpp">
<polygon fill="none" stroke="black" points="160,-56.5 160,-75.5 310,-75.5 310,-56.5 160,-56.5"/>
<text text-anchor="middle" x="235" y="-63.5" font-family="Helvetica,sans-Serif" font-size="10.00">include/BreadthFirstSolver.hpp</text>
</a>
</g>
</g>
<!-- Node5&#45;&gt;Node9 -->
<g id="edge6" class="edge"><title>Node5&#45;&gt;Node9</title>
<path fill="none" stroke="midnightblue" d="M423.594,-110.153C379.003,-99.95 313.146,-84.8809 272.22,-75.5164"/>
<polygon fill="midnightblue" stroke="midnightblue" points="423.076,-113.625 433.605,-112.444 424.638,-106.801 423.076,-113.625"/>
</g>
<!-- Node10 -->
<g id="node7" class="node"><title>Node10</title>
<g id="a_node7"><a xlink:href="GreedySolver_8hpp.html" target="_top" xlink:title="include/GreedySolver.hpp">
<polygon fill="none" stroke="black" points="467,-56.5 467,-75.5 595,-75.5 595,-56.5 467,-56.5"/>
<text text-anchor="middle" x="531" y="-63.5" font-family="Helvetica,sans-Serif" font-size="10.00">include/GreedySolver.hpp</text>
</a>
</g>
</g>
<!-- Node5&#45;&gt;Node10 -->
<g id="edge8" class="edge"><title>Node5&#45;&gt;Node10</title>
<path fill="none" stroke="midnightblue" d="M488.181,-105.537C498.879,-95.9087 512.256,-83.8694 521.185,-75.8339"/>
<polygon fill="midnightblue" stroke="midnightblue" points="485.732,-103.033 480.64,-112.324 490.414,-108.236 485.732,-103.033"/>
</g>
<!-- Node11 -->
<g id="node8" class="node"><title>Node11</title>
<g id="a_node8"><a xlink:href="HillClimbingSolver_8hpp.html" target="_top" xlink:title="include/HillClimbingSolver.hpp">
<polygon fill="none" stroke="black" points="613.5,-56.5 613.5,-75.5 762.5,-75.5 762.5,-56.5 613.5,-56.5"/>
<text text-anchor="middle" x="688" y="-63.5" font-family="Helvetica,sans-Serif" font-size="10.00">include/HillClimbingSolver.hpp</text>
</a>
</g>
</g>
<!-- Node5&#45;&gt;Node11 -->
<g id="edge10" class="edge"><title>Node5&#45;&gt;Node11</title>
<path fill="none" stroke="midnightblue" d="M515.108,-110.024C556.1,-99.8232 616.304,-84.8414 653.777,-75.5164"/>
<polygon fill="midnightblue" stroke="midnightblue" points="514.243,-106.632 505.384,-112.444 515.934,-113.425 514.243,-106.632"/>
</g>
<!-- Node12 -->
<g id="node9" class="node"><title>Node12</title>
<g id="a_node9"><a xlink:href="MonteCarloSolver_8hpp.html" target="_top" xlink:title="include/MonteCarloSolver.hpp">
<polygon fill="none" stroke="black" points="780.5,-56.5 780.5,-75.5 927.5,-75.5 927.5,-56.5 780.5,-56.5"/>
<text text-anchor="middle" x="854" y="-63.5" font-family="Helvetica,sans-Serif" font-size="10.00">include/MonteCarloSolver.hpp</text>
</a>
</g>
</g>
<!-- Node5&#45;&gt;Node12 -->
<g id="edge12" class="edge"><title>Node5&#45;&gt;Node12</title>
<path fill="none" stroke="midnightblue" d="M529.122,-111.856C625.649,-97.6367 726.006,-84.0067 789.618,-75.5116"/>
<polygon fill="midnightblue" stroke="midnightblue" points="528.573,-108.399 519.192,-113.323 529.596,-115.324 528.573,-108.399"/>
</g>
<!-- Node7 -->
<g id="node4" class="node"><title>Node7</title>
<g id="a_node4"><a xlink:href="main_8cpp.html" target="_top" xlink:title="test/main.cpp">
<polygon fill="none" stroke="black" points="421,-0.5 421,-19.5 497,-19.5 497,-0.5 421,-0.5"/>
<text text-anchor="middle" x="459" y="-7.5" font-family="Helvetica,sans-Serif" font-size="10.00">test/main.cpp</text>
</a>
</g>
</g>
<!-- Node6&#45;&gt;Node7 -->
<g id="edge3" class="edge"><title>Node6&#45;&gt;Node7</title>
<path fill="none" stroke="midnightblue" d="M407.59,-50.1008C420.368,-40.3824 436.613,-28.0269 447.385,-19.8339"/>
<polygon fill="midnightblue" stroke="midnightblue" points="405.248,-47.4844 399.407,-56.324 409.486,-53.0561 405.248,-47.4844"/>
</g>
<!-- Node8&#45;&gt;Node7 -->
<g id="edge5" class="edge"><title>Node8&#45;&gt;Node7</title>
<path fill="none" stroke="midnightblue" d="M142.483,-55.0513C224.56,-43.6282 356.164,-25.3123 420.742,-16.3245"/>
<polygon fill="midnightblue" stroke="midnightblue" points="141.902,-51.5984 132.48,-56.4435 142.867,-58.5316 141.902,-51.5984"/>
</g>
<!-- Node9&#45;&gt;Node7 -->
<g id="edge7" class="edge"><title>Node9&#45;&gt;Node7</title>
<path fill="none" stroke="midnightblue" d="M280.263,-54.0884C322.582,-43.8865 384.909,-28.8612 423.673,-19.5164"/>
<polygon fill="midnightblue" stroke="midnightblue" points="279.395,-50.6974 270.493,-56.4435 281.035,-57.5024 279.395,-50.6974"/>
</g>
<!-- Node10&#45;&gt;Node7 -->
<g id="edge9" class="edge"><title>Node10&#45;&gt;Node7</title>
<path fill="none" stroke="midnightblue" d="M511.134,-50.1008C498.177,-40.3824 481.703,-28.0269 470.779,-19.8339"/>
<polygon fill="midnightblue" stroke="midnightblue" points="509.332,-53.1239 519.432,-56.324 513.532,-47.5239 509.332,-53.1239"/>
</g>
<!-- Node11&#45;&gt;Node7 -->
<g id="edge11" class="edge"><title>Node11&#45;&gt;Node7</title>
<path fill="none" stroke="midnightblue" d="M641.727,-54.0884C598.463,-43.8865 534.745,-28.8612 495.116,-19.5164"/>
<polygon fill="midnightblue" stroke="midnightblue" points="641.178,-57.5549 651.714,-56.4435 642.785,-50.7418 641.178,-57.5549"/>
</g>
<!-- Node12&#45;&gt;Node7 -->
<g id="edge13" class="edge"><title>Node12&#45;&gt;Node7</title>
<path fill="none" stroke="midnightblue" d="M781.442,-55.0807C697.555,-43.6125 562.642,-25.1688 497.138,-16.2139"/>
<polygon fill="midnightblue" stroke="midnightblue" points="781.029,-58.5567 791.411,-56.4435 781.977,-51.6212 781.029,-58.5567"/>
</g>
<!-- Node13&#45;&gt;Node5 -->
<g id="edge15" class="edge"><title>Node13&#45;&gt;Node5</title>
<path fill="none" stroke="midnightblue" d="M526.424,-162.38C512.688,-152.62 495.075,-140.106 483.433,-131.834"/>
<polygon fill="midnightblue" stroke="midnightblue" points="524.61,-165.385 534.789,-168.324 528.665,-159.679 524.61,-165.385"/>
</g>
<!-- Node14 -->
<g id="node11" class="node"><title>Node14</title>
<g id="a_node11"><a xlink:href="Heuristic_8hpp.html" target="_top" xlink:title="include/Heuristic.hpp">
<polygon fill="none" stroke="black" points="537,-112.5 537,-131.5 645,-131.5 645,-112.5 537,-112.5"/>
<text text-anchor="middle" x="591" y="-119.5" font-family="Helvetica,sans-Serif" font-size="10.00">include/Heuristic.hpp</text>
</a>
</g>
</g>
<!-- Node13&#45;&gt;Node14 -->
<g id="edge16" class="edge"><title>Node13&#45;&gt;Node14</title>
<path fill="none" stroke="midnightblue" d="M560.735,-160.144C568.401,-150.736 577.633,-139.405 583.869,-131.751"/>
<polygon fill="midnightblue" stroke="midnightblue" points="557.869,-158.12 554.266,-168.083 563.296,-162.541 557.869,-158.12"/>
</g>
<!-- Node14&#45;&gt;Node6 -->
<g id="edge17" class="edge"><title>Node14&#45;&gt;Node6</title>
<path fill="none" stroke="midnightblue" d="M549.006,-109.829C510.677,-99.6333 454.848,-84.7823 420.015,-75.5164"/>
<polygon fill="midnightblue" stroke="midnightblue" points="548.27,-113.255 558.834,-112.444 550.07,-106.49 548.27,-113.255"/>
</g>
<!-- Node14&#45;&gt;Node10 -->
<g id="edge18" class="edge"><title>Node14&#45;&gt;Node10</title>
<path fill="none" stroke="midnightblue" d="M573.819,-105.537C563.121,-95.9087 549.744,-83.8694 540.815,-75.8339"/>
<polygon fill="midnightblue" stroke="midnightblue" points="571.586,-108.236 581.36,-112.324 576.268,-103.033 571.586,-108.236"/>
</g>
<!-- Node14&#45;&gt;Node11 -->
<g id="edge19" class="edge"><title>Node14&#45;&gt;Node11</title>
<path fill="none" stroke="midnightblue" d="M615.335,-107.453C633.243,-97.4835 657.054,-84.2279 672.454,-75.6545"/>
<polygon fill="midnightblue" stroke="midnightblue" points="613.62,-104.402 606.585,-112.324 617.025,-110.518 613.62,-104.402"/>
</g>
<!-- Node14&#45;&gt;Node12 -->
<g id="edge20" class="edge"><title>Node14&#45;&gt;Node12</title>
<path fill="none" stroke="midnightblue" d="M642.579,-110.41C692.283,-100.204 766.529,-84.9597 812.522,-75.5164"/>
<polygon fill="midnightblue" stroke="midnightblue" points="641.765,-107.004 632.673,-112.444 643.173,-113.861 641.765,-107.004"/>
</g>
</g>
</svg>
