<?xml version="1.0" encoding="UTF-8" standalone="no"?>
<!DOCTYPE svg PUBLIC "-//W3C//DTD SVG 1.1//EN"
 "http://www.w3.org/Graphics/SVG/1.1/DTD/svg11.dtd">
<!-- Generated by graphviz version 2.38.0 (20140413.2041)
 -->
<!-- Title: include/Heuristic.hpp Pages: 1 -->
<svg width="229pt" height="196pt"
 viewBox="0.00 0.00 229.00 196.00" xmlns="http://www.w3.org/2000/svg" xmlns:xlink="http://www.w3.org/1999/xlink">
<g id="graph0" class="graph" transform="scale(1 1) rotate(0) translate(4 192)">
<title>include/Heuristic.hpp</title>
<!-- Node0 -->
<g id="node1" class="node"><title>Node0</title>
<polygon fill="#bfbfbf" stroke="black" points="77.5,-168.5 77.5,-187.5 185.5,-187.5 185.5,-168.5 77.5,-168.5"/>
<text text-anchor="middle" x="131.5" y="-175.5" font-family="Helvetica,sans-Serif" font-size="10.00">include/Heuristic.hpp</text>
</g>
<!-- Node1 -->
<g id="node2" class="node"><title>Node1</title>
<g id="a_node2"><a xlink:href="Game_8hpp.html" target="_top" xlink:title="Game.hpp">
<polygon fill="none" stroke="black" points="100.5,-112.5 100.5,-131.5 162.5,-131.5 162.5,-112.5 100.5,-112.5"/>
<text text-anchor="middle" x="131.5" y="-119.5" font-family="Helvetica,sans-Serif" font-size="10.00">Game.hpp</text>
</a>
</g>
</g>
<!-- Node0&#45;&gt;Node1 -->
<g id="edge1" class="edge"><title>Node0&#45;&gt;Node1</title>
<path fill="none" stroke="midnightblue" d="M131.5,-168.083C131.5,-161.006 131.5,-150.861 131.5,-141.986"/>
<polygon fill="midnightblue" stroke="midnightblue" points="135,-141.751 131.5,-131.751 128,-141.751 135,-141.751"/>
</g>
<!-- Node2 -->
<g id="node3" class="node"><title>Node2</title>
<g id="a_node3"><a xlink:href="GameState_8hpp.html" target="_top" xlink:title="GameState.hpp">
<polygon fill="none" stroke="black" points="49,-56.5 49,-75.5 134,-75.5 134,-56.5 49,-56.5"/>
<text text-anchor="middle" x="91.5" y="-63.5" font-family="Helvetica,sans-Serif" font-size="10.00">GameState.hpp</text>
</a>
</g>
</g>
<!-- Node1&#45;&gt;Node2 -->
<g id="edge2" class="edge"><title>Node1&#45;&gt;Node2</title>
<path fill="none" stroke="midnightblue" d="M124.895,-112.083C119.245,-104.455 110.955,-93.2645 104.049,-83.9408"/>
<polygon fill="midnightblue" stroke="midnightblue" points="106.747,-81.7034 97.9823,-75.7511 101.122,-85.87 106.747,-81.7034"/>
</g>
<!-- Node5 -->
<g id="node6" class="node"><title>Node5</title>
<g id="a_node6"><a xlink:href="GameAction_8hpp.html" target="_top" xlink:title="GameAction.hpp">
<polygon fill="none" stroke="black" points="132,-0.5 132,-19.5 221,-19.5 221,-0.5 132,-0.5"/>
<text text-anchor="middle" x="176.5" y="-7.5" font-family="Helvetica,sans-Serif" font-size="10.00">GameAction.hpp</text>
</a>
</g>
</g>
<!-- Node1&#45;&gt;Node5 -->
<g id="edge6" class="edge"><title>Node1&#45;&gt;Node5</title>
<path fill="none" stroke="midnightblue" d="M135.031,-112.368C142.359,-94.4563 159.35,-52.9233 169.158,-28.9482"/>
<polygon fill="midnightblue" stroke="midnightblue" points="172.438,-30.1721 172.985,-19.5914 165.96,-27.5217 172.438,-30.1721"/>
</g>
<!-- Node3 -->
<g id="node4" class="node"><title>Node3</title>
<polygon fill="none" stroke="#bfbfbf" points="0,-0.5 0,-19.5 41,-19.5 41,-0.5 0,-0.5"/>
<text text-anchor="middle" x="20.5" y="-7.5" font-family="Helvetica,sans-Serif" font-size="10.00">string</text>
</g>
<!-- Node2&#45;&gt;Node3 -->
<g id="edge3" class="edge"><title>Node2&#45;&gt;Node3</title>
<path fill="none" stroke="midnightblue" d="M80.0926,-56.324C69.3912,-48.1849 53.1593,-35.8395 40.3372,-26.0874"/>
<polygon fill="midnightblue" stroke="midnightblue" points="42.1932,-23.1018 32.1149,-19.8339 37.9556,-28.6734 42.1932,-23.1018"/>
</g>
<!-- Node4 -->
<g id="node5" class="node"><title>Node4</title>
<polygon fill="none" stroke="#bfbfbf" points="59.5,-0.5 59.5,-19.5 113.5,-19.5 113.5,-0.5 59.5,-0.5"/>
<text text-anchor="middle" x="86.5" y="-7.5" font-family="Helvetica,sans-Serif" font-size="10.00">iostream</text>
</g>
<!-- Node2&#45;&gt;Node4 -->
<g id="edge4" class="edge"><title>Node2&#45;&gt;Node4</title>
<path fill="none" stroke="midnightblue" d="M90.6744,-56.083C90.0191,-49.0059 89.0797,-38.8611 88.258,-29.9865"/>
<polygon fill="midnightblue" stroke="midnightblue" points="91.7174,-29.3858 87.3103,-19.7511 84.7473,-30.0312 91.7174,-29.3858"/>
</g>
<!-- Node2&#45;&gt;Node5 -->
<g id="edge5" class="edge"><title>Node2&#45;&gt;Node5</title>
<path fill="none" stroke="midnightblue" d="M105.157,-56.324C118.416,-47.9002 138.768,-34.9709 154.346,-25.0741"/>
<polygon fill="midnightblue" stroke="midnightblue" points="156.313,-27.9711 162.877,-19.6545 152.56,-22.0626 156.313,-27.9711"/>
</g>
</g>
</svg>
