<?xml version="1.0" encoding="UTF-8" standalone="no"?>
<!DOCTYPE svg PUBLIC "-//W3C//DTD SVG 1.1//EN"
 "http://www.w3.org/Graphics/SVG/1.1/DTD/svg11.dtd">
<!-- Generated by graphviz version 2.38.0 (20140413.2041)
 -->
<!-- Title: include/Heuristic.hpp Pages: 1 -->
<svg width="608pt" height="140pt"
 viewBox="0.00 0.00 608.00 140.00" xmlns="http://www.w3.org/2000/svg" xmlns:xlink="http://www.w3.org/1999/xlink">
<g id="graph0" class="graph" transform="scale(1 1) rotate(0) translate(4 136)">
<title>include/Heuristic.hpp</title>
<!-- Node6 -->
<g id="node1" class="node"><title>Node6</title>
<polygon fill="#bfbfbf" stroke="black" points="227.5,-112.5 227.5,-131.5 335.5,-131.5 335.5,-112.5 227.5,-112.5"/>
<text text-anchor="middle" x="281.5" y="-119.5" font-family="Helvetica,sans-Serif" font-size="10.00">include/Heuristic.hpp</text>
</g>
<!-- Node7 -->
<g id="node2" class="node"><title>Node7</title>
<g id="a_node2"><a xlink:href="AStarSolver_8hpp.html" target="_top" xlink:title="include/AStarSolver.hpp">
<polygon fill="none" stroke="black" points="0,-56.5 0,-75.5 121,-75.5 121,-56.5 0,-56.5"/>
<text text-anchor="middle" x="60.5" y="-63.5" font-family="Helvetica,sans-Serif" font-size="10.00">include/AStarSolver.hpp</text>
</a>
</g>
</g>
<!-- Node6&#45;&gt;Node7 -->
<g id="edge1" class="edge"><title>Node6&#45;&gt;Node7</title>
<path fill="none" stroke="midnightblue" d="M236.579,-110.024C194.832,-99.8232 133.518,-84.8414 95.3543,-75.5164"/>
<polygon fill="midnightblue" stroke="midnightblue" points="235.937,-113.47 246.482,-112.444 237.598,-106.67 235.937,-113.47"/>
</g>
<!-- Node9 -->
<g id="node4" class="node"><title>Node9</title>
<g id="a_node4"><a xlink:href="GreedySolver_8hpp.html" target="_top" xlink:title="include/GreedySolver.hpp">
<polygon fill="none" stroke="black" points="139.5,-56.5 139.5,-75.5 267.5,-75.5 267.5,-56.5 139.5,-56.5"/>
<text text-anchor="middle" x="203.5" y="-63.5" font-family="Helvetica,sans-Serif" font-size="10.00">include/GreedySolver.hpp</text>
</a>
</g>
</g>
<!-- Node6&#45;&gt;Node9 -->
<g id="edge3" class="edge"><title>Node6&#45;&gt;Node9</title>
<path fill="none" stroke="midnightblue" d="M260.732,-106.622C246.483,-96.7574 228.044,-83.9919 216.001,-75.6545"/>
<polygon fill="midnightblue" stroke="midnightblue" points="258.754,-109.51 268.968,-112.324 262.738,-103.754 258.754,-109.51"/>
</g>
<!-- Node10 -->
<g id="node5" class="node"><title>Node10</title>
<g id="a_node5"><a xlink:href="HillClimbingSolver_8hpp.html" target="_top" xlink:title="include/HillClimbingSolver.hpp">
<polygon fill="none" stroke="black" points="286,-56.5 286,-75.5 435,-75.5 435,-56.5 286,-56.5"/>
<text text-anchor="middle" x="360.5" y="-63.5" font-family="Helvetica,sans-Serif" font-size="10.00">include/HillClimbingSolver.hpp</text>
</a>
</g>
</g>
<!-- Node6&#45;&gt;Node10 -->
<g id="edge5" class="edge"><title>Node6&#45;&gt;Node10</title>
<path fill="none" stroke="midnightblue" d="M302.534,-106.622C316.966,-96.7574 335.641,-83.9919 347.839,-75.6545"/>
<polygon fill="midnightblue" stroke="midnightblue" points="300.473,-103.791 294.193,-112.324 304.423,-109.57 300.473,-103.791"/>
</g>
<!-- Node11 -->
<g id="node6" class="node"><title>Node11</title>
<g id="a_node6"><a xlink:href="MonteCarloSolver_8hpp.html" target="_top" xlink:title="include/MonteCarloSolver.hpp">
<polygon fill="none" stroke="black" points="453,-56.5 453,-75.5 600,-75.5 600,-56.5 453,-56.5"/>
<text text-anchor="middle" x="526.5" y="-63.5" font-family="Helvetica,sans-Serif" font-size="10.00">include/MonteCarloSolver.hpp</text>
</a>
</g>
</g>
<!-- Node6&#45;&gt;Node11 -->
<g id="edge7" class="edge"><title>Node6&#45;&gt;Node11</title>
<path fill="none" stroke="midnightblue" d="M330.13,-110.281C376.429,-100.077 445.195,-84.9203 487.861,-75.5164"/>
<polygon fill="midnightblue" stroke="midnightblue" points="329.333,-106.873 320.321,-112.444 330.84,-113.709 329.333,-106.873"/>
</g>
<!-- Node8 -->
<g id="node3" class="node"><title>Node8</title>
<g id="a_node3"><a xlink:href="main_8cpp.html" target="_top" xlink:title="test/main.cpp">
<polygon fill="none" stroke="black" points="243.5,-0.5 243.5,-19.5 319.5,-19.5 319.5,-0.5 243.5,-0.5"/>
<text text-anchor="middle" x="281.5" y="-7.5" font-family="Helvetica,sans-Serif" font-size="10.00">test/main.cpp</text>
</a>
</g>
</g>
<!-- Node7&#45;&gt;Node8 -->
<g id="edge2" class="edge"><title>Node7&#45;&gt;Node8</title>
<path fill="none" stroke="midnightblue" d="M105.421,-54.0237C147.168,-43.8232 208.482,-28.8414 246.646,-19.5164"/>
<polygon fill="midnightblue" stroke="midnightblue" points="104.402,-50.6699 95.5181,-56.4435 106.063,-57.4698 104.402,-50.6699"/>
</g>
<!-- Node9&#45;&gt;Node8 -->
<g id="edge4" class="edge"><title>Node9&#45;&gt;Node8</title>
<path fill="none" stroke="midnightblue" d="M224.268,-50.6221C238.517,-40.7574 256.956,-27.9919 268.999,-19.6545"/>
<polygon fill="midnightblue" stroke="midnightblue" points="222.262,-47.7541 216.032,-56.324 226.246,-53.5095 222.262,-47.7541"/>
</g>
<!-- Node10&#45;&gt;Node8 -->
<g id="edge6" class="edge"><title>Node10&#45;&gt;Node8</title>
<path fill="none" stroke="midnightblue" d="M339.466,-50.6221C325.034,-40.7574 306.359,-27.9919 294.161,-19.6545"/>
<polygon fill="midnightblue" stroke="midnightblue" points="337.577,-53.5703 347.807,-56.324 341.527,-47.7914 337.577,-53.5703"/>
</g>
<!-- Node11&#45;&gt;Node8 -->
<g id="edge8" class="edge"><title>Node11&#45;&gt;Node8</title>
<path fill="none" stroke="midnightblue" d="M477.84,-54.2749C431.395,-44.0382 362.361,-28.8225 319.736,-19.4275"/>
<polygon fill="midnightblue" stroke="midnightblue" points="477.16,-57.709 487.679,-56.4435 478.667,-50.8731 477.16,-57.709"/>
</g>
</g>
</svg>
