<?xml version="1.0" encoding="UTF-8" standalone="no"?>
<!DOCTYPE svg PUBLIC "-//W3C//DTD SVG 1.1//EN"
 "http://www.w3.org/Graphics/SVG/1.1/DTD/svg11.dtd">
<!-- Generated by graphviz version 2.38.0 (20140413.2041)
 -->
<!-- Title: Graphical Class Hierarchy Pages: 1 -->
<svg width="177pt" height="66pt"
 viewBox="0.00 0.00 177.00 66.00" xmlns="http://www.w3.org/2000/svg" xmlns:xlink="http://www.w3.org/1999/xlink">
<g id="graph0" class="graph" transform="scale(1 1) rotate(0) translate(4 62)">
<title>Graphical Class Hierarchy</title>
<!-- Node0 -->
<g id="node1" class="node"><title>Node0</title>
<g id="a_node1"><a xlink:href="classHeuristic.html" target="_top" xlink:title="Abtract class for heuristic functions. ">
<polygon fill="none" stroke="black" points="0,-19.5 0,-38.5 56,-38.5 56,-19.5 0,-19.5"/>
<text text-anchor="middle" x="28" y="-26.5" font-family="Helvetica,sans-Serif" font-size="10.00">Heuristic</text>
</a>
</g>
</g>
<!-- Node1 -->
<g id="node2" class="node"><title>Node1</title>
<g id="a_node2"><a xlink:href="classManhattan.html" target="_top" xlink:title="Implementation of the Manhattan distance for the 8&#45;puzzle. ">
<polygon fill="none" stroke="black" points="99.5,-38.5 99.5,-57.5 161.5,-57.5 161.5,-38.5 99.5,-38.5"/>
<text text-anchor="middle" x="130.5" y="-45.5" font-family="Helvetica,sans-Serif" font-size="10.00">Manhattan</text>
</a>
</g>
</g>
<!-- Node0&#45;&gt;Node1 -->
<g id="edge1" class="edge"><title>Node0&#45;&gt;Node1</title>
<path fill="none" stroke="midnightblue" d="M66.3265,-36.0568C77.2482,-38.1215 89.0438,-40.3516 99.452,-42.3193"/>
<polygon fill="midnightblue" stroke="midnightblue" points="66.6729,-32.5603 56.1967,-34.1417 65.3725,-39.4385 66.6729,-32.5603"/>
</g>
<!-- Node2 -->
<g id="node3" class="node"><title>Node2</title>
<g id="a_node3"><a xlink:href="classTileDifference.html" target="_top" xlink:title="Implementation of the tile difference heuristic for the 8&#45;puzzle. ">
<polygon fill="none" stroke="black" points="92,-0.5 92,-19.5 169,-19.5 169,-0.5 92,-0.5"/>
<text text-anchor="middle" x="130.5" y="-7.5" font-family="Helvetica,sans-Serif" font-size="10.00">TileDifference</text>
</a>
</g>
</g>
<!-- Node0&#45;&gt;Node2 -->
<g id="edge2" class="edge"><title>Node0&#45;&gt;Node2</title>
<path fill="none" stroke="midnightblue" d="M66.0711,-21.9915C74.4357,-20.4102 83.3244,-18.7297 91.7178,-17.1429"/>
<polygon fill="midnightblue" stroke="midnightblue" points="65.3725,-18.5615 56.1967,-23.8583 66.6729,-25.4397 65.3725,-18.5615"/>
</g>
</g>
</svg>
