<?xml version="1.0" encoding="UTF-8" standalone="no"?>
<!DOCTYPE svg PUBLIC "-//W3C//DTD SVG 1.1//EN"
 "http://www.w3.org/Graphics/SVG/1.1/DTD/svg11.dtd">
<!-- Generated by graphviz version 2.38.0 (20140413.2041)
 -->
<!-- Title: Graphical Class Hierarchy Pages: 1 -->
<svg width="186pt" height="218pt"
 viewBox="0.00 0.00 186.00 218.00" xmlns="http://www.w3.org/2000/svg" xmlns:xlink="http://www.w3.org/1999/xlink">
<g id="graph0" class="graph" transform="scale(1 1) rotate(0) translate(4 214)">
<title>Graphical Class Hierarchy</title>
<!-- Node0 -->
<g id="node1" class="node"><title>Node0</title>
<g id="a_node1"><a xlink:href="classSolver.html" target="_top" xlink:title="Base class for all 8&#45;puzzle solvers. ">
<polygon fill="none" stroke="black" points="0,-95.5 0,-114.5 44,-114.5 44,-95.5 0,-95.5"/>
<text text-anchor="middle" x="22" y="-102.5" font-family="Helvetica,sans-Serif" font-size="10.00">Solver</text>
</a>
</g>
</g>
<!-- Node1 -->
<g id="node2" class="node"><title>Node1</title>
<g id="a_node2"><a xlink:href="classAStarSolver.html" target="_top" xlink:title="8&#45;puzzle exploration based on the A* search algorithm ">
<polygon fill="none" stroke="black" points="94.5,-190.5 94.5,-209.5 163.5,-209.5 163.5,-190.5 94.5,-190.5"/>
<text text-anchor="middle" x="129" y="-197.5" font-family="Helvetica,sans-Serif" font-size="10.00">AStarSolver</text>
</a>
</g>
</g>
<!-- Node0&#45;&gt;Node1 -->
<g id="edge1" class="edge"><title>Node0&#45;&gt;Node1</title>
<path fill="none" stroke="midnightblue" d="M32.8754,-123.478C42.7888,-140.478 59.5082,-165.354 80,-181 84.9152,-184.753 90.6678,-187.863 96.4494,-190.404"/>
<polygon fill="midnightblue" stroke="midnightblue" points="35.7904,-121.52 27.8479,-114.508 29.6841,-124.943 35.7904,-121.52"/>
</g>
<!-- Node2 -->
<g id="node3" class="node"><title>Node2</title>
<g id="a_node3"><a xlink:href="classBreadthFirstSolver.html" target="_top" xlink:title="8&#45;puzzle exploration based on a breadth&#45;first search strategy ">
<polygon fill="none" stroke="black" points="80,-152.5 80,-171.5 178,-171.5 178,-152.5 80,-152.5"/>
<text text-anchor="middle" x="129" y="-159.5" font-family="Helvetica,sans-Serif" font-size="10.00">BreadthFirstSolver</text>
</a>
</g>
</g>
<!-- Node0&#45;&gt;Node2 -->
<g id="edge2" class="edge"><title>Node0&#45;&gt;Node2</title>
<path fill="none" stroke="midnightblue" d="M43.7953,-120.406C54.3198,-127.797 67.4888,-136.447 80,-143 86.5897,-146.451 93.9521,-149.662 100.893,-152.425"/>
<polygon fill="midnightblue" stroke="midnightblue" points="45.816,-117.548 35.6493,-114.566 41.7377,-123.237 45.816,-117.548"/>
</g>
<!-- Node3 -->
<g id="node4" class="node"><title>Node3</title>
<g id="a_node4"><a xlink:href="classDepthFirstSolver.html" target="_top" xlink:title="8&#45;puzzle exploration based on a depth&#45;first search strategy ">
<polygon fill="none" stroke="black" points="84,-114.5 84,-133.5 174,-133.5 174,-114.5 84,-114.5"/>
<text text-anchor="middle" x="129" y="-121.5" font-family="Helvetica,sans-Serif" font-size="10.00">DepthFirstSolver</text>
</a>
</g>
</g>
<!-- Node0&#45;&gt;Node3 -->
<g id="edge3" class="edge"><title>Node0&#45;&gt;Node3</title>
<path fill="none" stroke="midnightblue" d="M54.2008,-110.646C63.4888,-112.327 73.8478,-114.201 83.7986,-116.002"/>
<polygon fill="midnightblue" stroke="midnightblue" points="54.7118,-107.182 44.2483,-108.845 53.4653,-114.07 54.7118,-107.182"/>
</g>
<!-- Node4 -->
<g id="node5" class="node"><title>Node4</title>
<g id="a_node5"><a xlink:href="classGreedySolver.html" target="_top" xlink:title="Implementation of a greedy exploration algorithm for the 8&#45;puzzle game. ">
<polygon fill="none" stroke="black" points="91,-76.5 91,-95.5 167,-95.5 167,-76.5 91,-76.5"/>
<text text-anchor="middle" x="129" y="-83.5" font-family="Helvetica,sans-Serif" font-size="10.00">GreedySolver</text>
</a>
</g>
</g>
<!-- Node0&#45;&gt;Node4 -->
<g id="edge4" class="edge"><title>Node0&#45;&gt;Node4</title>
<path fill="none" stroke="midnightblue" d="M54.2166,-99.3513C65.6538,-97.2817 78.7133,-94.9185 90.6344,-92.7614"/>
<polygon fill="midnightblue" stroke="midnightblue" points="53.4653,-95.9303 44.2483,-101.155 54.7118,-102.818 53.4653,-95.9303"/>
</g>
<!-- Node5 -->
<g id="node6" class="node"><title>Node5</title>
<g id="a_node6"><a xlink:href="classHillClimbingSolver.html" target="_top" xlink:title="Implementation of a hill&#45;climbing optimization algorithm for the 8&#45;puzzle. ">
<polygon fill="none" stroke="black" points="80.5,-38.5 80.5,-57.5 177.5,-57.5 177.5,-38.5 80.5,-38.5"/>
<text text-anchor="middle" x="129" y="-45.5" font-family="Helvetica,sans-Serif" font-size="10.00">HillClimbingSolver</text>
</a>
</g>
</g>
<!-- Node0&#45;&gt;Node5 -->
<g id="edge5" class="edge"><title>Node0&#45;&gt;Node5</title>
<path fill="none" stroke="midnightblue" d="M43.7953,-89.5944C54.3198,-82.2027 67.4888,-73.5526 80,-67 86.5897,-63.5487 93.9521,-60.3381 100.893,-57.575"/>
<polygon fill="midnightblue" stroke="midnightblue" points="41.7377,-86.763 35.6493,-95.4338 45.816,-92.4523 41.7377,-86.763"/>
</g>
<!-- Node6 -->
<g id="node7" class="node"><title>Node6</title>
<g id="a_node7"><a xlink:href="classMonteCarloSolver.html" target="_top" xlink:title="Memoryless solver that randomly searches the state space. ">
<polygon fill="none" stroke="black" points="81.5,-0.5 81.5,-19.5 176.5,-19.5 176.5,-0.5 81.5,-0.5"/>
<text text-anchor="middle" x="129" y="-7.5" font-family="Helvetica,sans-Serif" font-size="10.00">MonteCarloSolver</text>
</a>
</g>
</g>
<!-- Node0&#45;&gt;Node6 -->
<g id="edge6" class="edge"><title>Node0&#45;&gt;Node6</title>
<path fill="none" stroke="midnightblue" d="M32.8754,-86.522C42.7888,-69.522 59.5082,-44.646 80,-29 84.9152,-25.2471 90.6678,-22.137 96.4494,-19.5958"/>
<polygon fill="midnightblue" stroke="midnightblue" points="29.6841,-85.0573 27.8479,-95.4919 35.7904,-88.4798 29.6841,-85.0573"/>
</g>
</g>
</svg>
