<?xml version="1.0" encoding="UTF-8" standalone="no"?>
<!DOCTYPE svg PUBLIC "-//W3C//DTD SVG 1.1//EN"
 "http://www.w3.org/Graphics/SVG/1.1/DTD/svg11.dtd">
<!-- Generated by graphviz version 2.38.0 (20140413.2041)
 -->
<!-- Title: testGoalCreation Pages: 1 -->
<svg width="397pt" height="66pt"
 viewBox="0.00 0.00 397.00 66.00" xmlns="http://www.w3.org/2000/svg" xmlns:xlink="http://www.w3.org/1999/xlink">
<g id="graph0" class="graph" transform="scale(1 1) rotate(0) translate(4 62)">
<title>testGoalCreation</title>
<!-- Node45 -->
<g id="node1" class="node"><title>Node45</title>
<polygon fill="#bfbfbf" stroke="black" points="0,-19.5 0,-38.5 90,-38.5 90,-19.5 0,-19.5"/>
<text text-anchor="middle" x="45" y="-26.5" font-family="Helvetica,sans-Serif" font-size="10.00">testGoalCreation</text>
</g>
<!-- Node46 -->
<g id="node2" class="node"><title>Node46</title>
<g id="a_node2"><a xlink:href="classGame.html#ad3adcd1c4d46c6412e1fd2958bb2f72b" target="_top" xlink:title="Creates a game representation and keeps a GameState of the goal state. ">
<polygon fill="none" stroke="black" points="126,-19.5 126,-38.5 201,-38.5 201,-19.5 126,-19.5"/>
<text text-anchor="middle" x="163.5" y="-26.5" font-family="Helvetica,sans-Serif" font-size="10.00">Game::Game</text>
</a>
</g>
</g>
<!-- Node45&#45;&gt;Node46 -->
<g id="edge1" class="edge"><title>Node45&#45;&gt;Node46</title>
<path fill="none" stroke="midnightblue" d="M90.0437,-29C98.4726,-29 107.324,-29 115.832,-29"/>
<polygon fill="midnightblue" stroke="midnightblue" points="115.988,-32.5001 125.988,-29 115.988,-25.5001 115.988,-32.5001"/>
</g>
<!-- Node47 -->
<g id="node3" class="node"><title>Node47</title>
<g id="a_node3"><a xlink:href="classGameState.html#a4fa0a2bf50315c4a35a3890a0adcee5c" target="_top" xlink:title="Default constructor, everything starts as 0 or NULL. ">
<polygon fill="none" stroke="black" points="252,-38.5 252,-57.5 374,-57.5 374,-38.5 252,-38.5"/>
<text text-anchor="middle" x="313" y="-45.5" font-family="Helvetica,sans-Serif" font-size="10.00">GameState::GameState</text>
</a>
</g>
</g>
<!-- Node46&#45;&gt;Node47 -->
<g id="edge2" class="edge"><title>Node46&#45;&gt;Node47</title>
<path fill="none" stroke="midnightblue" d="M201.34,-33.7455C213.631,-35.3287 227.764,-37.1493 241.731,-38.9484"/>
<polygon fill="midnightblue" stroke="midnightblue" points="241.477,-42.4445 251.842,-40.2509 242.372,-35.5019 241.477,-42.4445"/>
</g>
<!-- Node48 -->
<g id="node4" class="node"><title>Node48</title>
<g id="a_node4"><a xlink:href="classGameState.html#a6fab869a6c4f80df3837849b8252aa1d" target="_top" xlink:title="GameState::setRepresentation">
<polygon fill="none" stroke="black" points="237,-0.5 237,-19.5 389,-19.5 389,-0.5 237,-0.5"/>
<text text-anchor="middle" x="313" y="-7.5" font-family="Helvetica,sans-Serif" font-size="10.00">GameState::setRepresentation</text>
</a>
</g>
</g>
<!-- Node46&#45;&gt;Node48 -->
<g id="edge3" class="edge"><title>Node46&#45;&gt;Node48</title>
<path fill="none" stroke="midnightblue" d="M201.34,-24.2545C209.612,-23.189 218.718,-22.016 228.046,-20.8144"/>
<polygon fill="midnightblue" stroke="midnightblue" points="228.755,-24.252 238.226,-19.503 227.861,-17.3094 228.755,-24.252"/>
</g>
</g>
</svg>
