<?xml version="1.0" encoding="UTF-8" standalone="no"?>
<!DOCTYPE svg PUBLIC "-//W3C//DTD SVG 1.1//EN"
 "http://www.w3.org/Graphics/SVG/1.1/DTD/svg11.dtd">
<!-- Generated by graphviz version 2.38.0 (20140413.2041)
 -->
<!-- Title: testFastSolvers Pages: 1 -->
<svg width="393pt" height="66pt"
 viewBox="0.00 0.00 393.00 66.00" xmlns="http://www.w3.org/2000/svg" xmlns:xlink="http://www.w3.org/1999/xlink">
<g id="graph0" class="graph" transform="scale(1 1) rotate(0) translate(4 62)">
<title>testFastSolvers</title>
<!-- Node40 -->
<g id="node1" class="node"><title>Node40</title>
<polygon fill="#bfbfbf" stroke="black" points="0,-19.5 0,-38.5 86,-38.5 86,-19.5 0,-19.5"/>
<text text-anchor="middle" x="43" y="-26.5" font-family="Helvetica,sans-Serif" font-size="10.00">testFastSolvers</text>
</g>
<!-- Node41 -->
<g id="node2" class="node"><title>Node41</title>
<g id="a_node2"><a xlink:href="classGame.html#ad3adcd1c4d46c6412e1fd2958bb2f72b" target="_top" xlink:title="Creates a game representation and keeps a GameState of the goal state. ">
<polygon fill="none" stroke="black" points="122,-19.5 122,-38.5 197,-38.5 197,-19.5 122,-19.5"/>
<text text-anchor="middle" x="159.5" y="-26.5" font-family="Helvetica,sans-Serif" font-size="10.00">Game::Game</text>
</a>
</g>
</g>
<!-- Node40&#45;&gt;Node41 -->
<g id="edge1" class="edge"><title>Node40&#45;&gt;Node41</title>
<path fill="none" stroke="midnightblue" d="M86.3103,-29C94.553,-29 103.24,-29 111.62,-29"/>
<polygon fill="midnightblue" stroke="midnightblue" points="111.64,-32.5001 121.64,-29 111.64,-25.5001 111.64,-32.5001"/>
</g>
<!-- Node42 -->
<g id="node3" class="node"><title>Node42</title>
<g id="a_node3"><a xlink:href="classGameState.html#a4fa0a2bf50315c4a35a3890a0adcee5c" target="_top" xlink:title="Default constructor, everything starts as 0 or NULL. ">
<polygon fill="none" stroke="black" points="248,-38.5 248,-57.5 370,-57.5 370,-38.5 248,-38.5"/>
<text text-anchor="middle" x="309" y="-45.5" font-family="Helvetica,sans-Serif" font-size="10.00">GameState::GameState</text>
</a>
</g>
</g>
<!-- Node41&#45;&gt;Node42 -->
<g id="edge2" class="edge"><title>Node41&#45;&gt;Node42</title>
<path fill="none" stroke="midnightblue" d="M197.34,-33.7455C209.631,-35.3287 223.764,-37.1493 237.731,-38.9484"/>
<polygon fill="midnightblue" stroke="midnightblue" points="237.477,-42.4445 247.842,-40.2509 238.372,-35.5019 237.477,-42.4445"/>
</g>
<!-- Node43 -->
<g id="node4" class="node"><title>Node43</title>
<g id="a_node4"><a xlink:href="classGameState.html#a6fab869a6c4f80df3837849b8252aa1d" target="_top" xlink:title="GameState::setRepresentation">
<polygon fill="none" stroke="black" points="233,-0.5 233,-19.5 385,-19.5 385,-0.5 233,-0.5"/>
<text text-anchor="middle" x="309" y="-7.5" font-family="Helvetica,sans-Serif" font-size="10.00">GameState::setRepresentation</text>
</a>
</g>
</g>
<!-- Node41&#45;&gt;Node43 -->
<g id="edge3" class="edge"><title>Node41&#45;&gt;Node43</title>
<path fill="none" stroke="midnightblue" d="M197.34,-24.2545C205.612,-23.189 214.718,-22.016 224.046,-20.8144"/>
<polygon fill="midnightblue" stroke="midnightblue" points="224.755,-24.252 234.226,-19.503 223.861,-17.3094 224.755,-24.252"/>
</g>
</g>
</svg>
