<?xml version="1.0" encoding="UTF-8" standalone="no"?>
<!DOCTYPE svg PUBLIC "-//W3C//DTD SVG 1.1//EN"
 "http://www.w3.org/Graphics/SVG/1.1/DTD/svg11.dtd">
<!-- Generated by graphviz version 2.38.0 (20140413.2041)
 -->
<!-- Title: testSingleSolver Pages: 1 -->
<svg width="283pt" height="28pt"
 viewBox="0.00 0.00 283.00 28.00" xmlns="http://www.w3.org/2000/svg" xmlns:xlink="http://www.w3.org/1999/xlink">
<g id="graph0" class="graph" transform="scale(1 1) rotate(0) translate(4 24)">
<title>testSingleSolver</title>
<!-- Node51 -->
<g id="node1" class="node"><title>Node51</title>
<polygon fill="#bfbfbf" stroke="black" points="0,-0.5 0,-19.5 88,-19.5 88,-0.5 0,-0.5"/>
<text text-anchor="middle" x="44" y="-7.5" font-family="Helvetica,sans-Serif" font-size="10.00">testSingleSolver</text>
</g>
<!-- Node52 -->
<g id="node2" class="node"><title>Node52</title>
<g id="a_node2"><a xlink:href="main_8cpp.html#ac6c9ec3e7bfe3c929009584766bef20d" target="_top" xlink:title="Creates one of each solver, randomly selects a puzzle from the input file and tests all solvers again...">
<polygon fill="none" stroke="black" points="124,-0.5 124,-19.5 201,-19.5 201,-0.5 124,-0.5"/>
<text text-anchor="middle" x="162.5" y="-7.5" font-family="Helvetica,sans-Serif" font-size="10.00">testAllSolvers</text>
</a>
</g>
</g>
<!-- Node51&#45;&gt;Node52 -->
<g id="edge1" class="edge"><title>Node51&#45;&gt;Node52</title>
<path fill="none" stroke="midnightblue" d="M98.1677,-10C106.887,-10 115.76,-10 123.996,-10"/>
<polygon fill="midnightblue" stroke="midnightblue" points="98.0493,-6.5001 88.0493,-10 98.0493,-13.5001 98.0493,-6.5001"/>
</g>
<!-- Node53 -->
<g id="node3" class="node"><title>Node53</title>
<g id="a_node3"><a xlink:href="main_8cpp.html#ae66f6b31b5ad750f1fe042a706a4e3d4" target="_top" xlink:title="main">
<polygon fill="none" stroke="black" points="237,-0.5 237,-19.5 275,-19.5 275,-0.5 237,-0.5"/>
<text text-anchor="middle" x="256" y="-7.5" font-family="Helvetica,sans-Serif" font-size="10.00">main</text>
</a>
</g>
</g>
<!-- Node52&#45;&gt;Node53 -->
<g id="edge2" class="edge"><title>Node52&#45;&gt;Node53</title>
<path fill="none" stroke="midnightblue" d="M211.362,-10C220.347,-10 229.223,-10 236.601,-10"/>
<polygon fill="midnightblue" stroke="midnightblue" points="211.245,-6.5001 201.245,-10 211.245,-13.5001 211.245,-6.5001"/>
</g>
</g>
</svg>
