<?xml version="1.0" encoding="UTF-8" standalone="no"?>
<!DOCTYPE svg PUBLIC "-//W3C//DTD SVG 1.1//EN"
 "http://www.w3.org/Graphics/SVG/1.1/DTD/svg11.dtd">
<!-- Generated by graphviz version 2.38.0 (20140413.2041)
 -->
<!-- Title: testStateTransitions Pages: 1 -->
<svg width="531pt" height="66pt"
 viewBox="0.00 0.00 531.00 66.00" xmlns="http://www.w3.org/2000/svg" xmlns:xlink="http://www.w3.org/1999/xlink">
<g id="graph0" class="graph" transform="scale(1 1) rotate(0) translate(4 62)">
<title>testStateTransitions</title>
<!-- Node58 -->
<g id="node1" class="node"><title>Node58</title>
<polygon fill="#bfbfbf" stroke="black" points="0,-19.5 0,-38.5 104,-38.5 104,-19.5 0,-19.5"/>
<text text-anchor="middle" x="52" y="-26.5" font-family="Helvetica,sans-Serif" font-size="10.00">testStateTransitions</text>
</g>
<!-- Node59 -->
<g id="node2" class="node"><title>Node59</title>
<g id="a_node2"><a xlink:href="classGameState.html#a1a5a65954a51e691971f626dcb9e0f40" target="_top" xlink:title="Checks whether an action is valid for this state. ">
<polygon fill="none" stroke="black" points="298,-38.5 298,-57.5 399,-57.5 399,-38.5 298,-38.5"/>
<text text-anchor="middle" x="348.5" y="-45.5" font-family="Helvetica,sans-Serif" font-size="10.00">GameState::isValid</text>
</a>
</g>
</g>
<!-- Node58&#45;&gt;Node59 -->
<g id="edge1" class="edge"><title>Node58&#45;&gt;Node59</title>
<path fill="none" stroke="midnightblue" d="M104.298,-32.3095C155.388,-35.6057 233.775,-40.6629 287.67,-44.14"/>
<polygon fill="midnightblue" stroke="midnightblue" points="287.567,-47.6405 297.771,-44.7917 288.017,-40.655 287.567,-47.6405"/>
</g>
<!-- Node61 -->
<g id="node4" class="node"><title>Node61</title>
<g id="a_node4"><a xlink:href="classGameState.html#a0999d7e2a8ada07f008663ca85930c79" target="_top" xlink:title="Creates a new state based on a given previous state and applying an action to it. ...">
<polygon fill="none" stroke="black" points="140,-0.5 140,-19.5 262,-19.5 262,-0.5 140,-0.5"/>
<text text-anchor="middle" x="201" y="-7.5" font-family="Helvetica,sans-Serif" font-size="10.00">GameState::GameState</text>
</a>
</g>
</g>
<!-- Node58&#45;&gt;Node61 -->
<g id="edge3" class="edge"><title>Node58&#45;&gt;Node61</title>
<path fill="none" stroke="midnightblue" d="M104.001,-22.408C112.345,-21.3295 121.118,-20.1957 129.827,-19.0699"/>
<polygon fill="midnightblue" stroke="midnightblue" points="130.525,-22.5089 139.994,-17.7559 129.628,-15.5667 130.525,-22.5089"/>
</g>
<!-- Node60 -->
<g id="node3" class="node"><title>Node60</title>
<g id="a_node3"><a xlink:href="classGameState.html#ab769bcbb1102f37bf943b207d57ed1fe" target="_top" xlink:title="Finds the position of a tile in the board. ">
<polygon fill="none" stroke="black" points="435,-19.5 435,-38.5 523,-38.5 523,-19.5 435,-19.5"/>
<text text-anchor="middle" x="479" y="-26.5" font-family="Helvetica,sans-Serif" font-size="10.00">GameState::find</text>
</a>
</g>
</g>
<!-- Node59&#45;&gt;Node60 -->
<g id="edge2" class="edge"><title>Node59&#45;&gt;Node60</title>
<path fill="none" stroke="midnightblue" d="M399.181,-40.6541C407.516,-39.4217 416.196,-38.1383 424.62,-36.8928"/>
<polygon fill="midnightblue" stroke="midnightblue" points="425.346,-40.3235 434.727,-35.3984 424.322,-33.3988 425.346,-40.3235"/>
</g>
<!-- Node61&#45;&gt;Node59 -->
<g id="edge5" class="edge"><title>Node61&#45;&gt;Node59</title>
<path fill="none" stroke="midnightblue" d="M238.716,-19.589C257.657,-24.5358 280.957,-30.6211 301.129,-35.8892"/>
<polygon fill="midnightblue" stroke="midnightblue" points="300.488,-39.3394 311.048,-38.4799 302.257,-32.5665 300.488,-39.3394"/>
</g>
<!-- Node61&#45;&gt;Node60 -->
<g id="edge4" class="edge"><title>Node61&#45;&gt;Node60</title>
<path fill="none" stroke="midnightblue" d="M262.228,-14.1462C310.595,-17.4758 377.887,-22.1082 424.405,-25.3105"/>
<polygon fill="midnightblue" stroke="midnightblue" points="424.369,-28.8162 434.586,-26.0113 424.85,-21.8327 424.369,-28.8162"/>
</g>
</g>
</svg>
