<?xml version="1.0" encoding="UTF-8" standalone="no"?>
<!DOCTYPE svg PUBLIC "-//W3C//DTD SVG 1.1//EN"
 "http://www.w3.org/Graphics/SVG/1.1/DTD/svg11.dtd">
<!-- Generated by graphviz version 2.38.0 (20140413.2041)
 -->
<!-- Title: main Pages: 1 -->
<svg width="525pt" height="563pt"
 viewBox="0.00 0.00 525.00 563.00" xmlns="http://www.w3.org/2000/svg" xmlns:xlink="http://www.w3.org/1999/xlink">
<g id="graph0" class="graph" transform="scale(1 1) rotate(0) translate(4 559)">
<title>main</title>
<!-- Node2 -->
<g id="node1" class="node"><title>Node2</title>
<polygon fill="#bfbfbf" stroke="black" points="0,-266.5 0,-285.5 38,-285.5 38,-266.5 0,-266.5"/>
<text text-anchor="middle" x="19" y="-273.5" font-family="Helvetica,sans-Serif" font-size="10.00">main</text>
</g>
<!-- Node3 -->
<g id="node2" class="node"><title>Node3</title>
<g id="a_node2"><a xlink:href="main_8cpp.html#ac6c9ec3e7bfe3c929009584766bef20d" target="_top" xlink:title="Creates one of each solver, randomly selects a puzzle from the input file and tests all solvers again...">
<polygon fill="none" stroke="black" points="74,-266.5 74,-285.5 151,-285.5 151,-266.5 74,-266.5"/>
<text text-anchor="middle" x="112.5" y="-273.5" font-family="Helvetica,sans-Serif" font-size="10.00">testAllSolvers</text>
</a>
</g>
</g>
<!-- Node2&#45;&gt;Node3 -->
<g id="edge1" class="edge"><title>Node2&#45;&gt;Node3</title>
<path fill="none" stroke="midnightblue" d="M38.0775,-276C45.4942,-276 54.4652,-276 63.5521,-276"/>
<polygon fill="midnightblue" stroke="midnightblue" points="63.7841,-279.5 73.7841,-276 63.7841,-272.5 63.7841,-279.5"/>
</g>
<!-- Node4 -->
<g id="node3" class="node"><title>Node4</title>
<g id="a_node3"><a xlink:href="classGame.html#ad3adcd1c4d46c6412e1fd2958bb2f72b" target="_top" xlink:title="Creates a game representation and keeps a GameState of the goal state. ">
<polygon fill="none" stroke="black" points="220.5,-516.5 220.5,-535.5 295.5,-535.5 295.5,-516.5 220.5,-516.5"/>
<text text-anchor="middle" x="258" y="-523.5" font-family="Helvetica,sans-Serif" font-size="10.00">Game::Game</text>
</a>
</g>
</g>
<!-- Node3&#45;&gt;Node4 -->
<g id="edge2" class="edge"><title>Node3&#45;&gt;Node4</title>
<path fill="none" stroke="midnightblue" d="M113.498,-285.563C114.032,-320.647 120.746,-443.536 187,-507 193.541,-513.266 201.933,-517.51 210.618,-520.375"/>
<polygon fill="midnightblue" stroke="midnightblue" points="209.899,-523.806 220.467,-523.057 211.738,-517.052 209.899,-523.806"/>
</g>
<!-- Node7 -->
<g id="node6" class="node"><title>Node7</title>
<g id="a_node6"><a xlink:href="classGreedySolver.html#aa0b9496b8cee2a122b811bf76283d687" target="_top" xlink:title="Explores the game tree in search of the goal state. ">
<polygon fill="none" stroke="black" points="205.5,-460.5 205.5,-479.5 310.5,-479.5 310.5,-460.5 205.5,-460.5"/>
<text text-anchor="middle" x="258" y="-467.5" font-family="Helvetica,sans-Serif" font-size="10.00">GreedySolver::solve</text>
</a>
</g>
</g>
<!-- Node3&#45;&gt;Node7 -->
<g id="edge5" class="edge"><title>Node3&#45;&gt;Node7</title>
<path fill="none" stroke="midnightblue" d="M114.609,-285.654C118.526,-315.168 134.438,-404.982 187,-451 189.819,-453.468 192.928,-455.618 196.221,-457.493"/>
<polygon fill="midnightblue" stroke="midnightblue" points="194.767,-460.677 205.298,-461.835 197.788,-454.362 194.767,-460.677"/>
</g>
<!-- Node8 -->
<g id="node7" class="node"><title>Node8</title>
<g id="a_node7"><a xlink:href="classGreedySolver.html#ae282b193cc99888abfef70d8c02bf9bb" target="_top" xlink:title="Initializes the solver. ">
<polygon fill="none" stroke="black" points="187.5,-422.5 187.5,-441.5 328.5,-441.5 328.5,-422.5 187.5,-422.5"/>
<text text-anchor="middle" x="258" y="-429.5" font-family="Helvetica,sans-Serif" font-size="10.00">GreedySolver::GreedySolver</text>
</a>
</g>
</g>
<!-- Node3&#45;&gt;Node8 -->
<g id="edge7" class="edge"><title>Node3&#45;&gt;Node8</title>
<path fill="none" stroke="midnightblue" d="M115.835,-285.677C122.406,-310.773 143.477,-378.397 187,-413 189.264,-414.8 191.685,-416.43 194.217,-417.906"/>
<polygon fill="midnightblue" stroke="midnightblue" points="192.672,-421.046 203.186,-422.354 195.782,-414.775 192.672,-421.046"/>
</g>
<!-- Node9 -->
<g id="node8" class="node"><title>Node9</title>
<g id="a_node8"><a xlink:href="classAStarSolver.html#a803f85665550cc1e87d5d74d7b568204" target="_top" xlink:title="Explores the game tree in search of the goal state. ">
<polygon fill="none" stroke="black" points="209,-366.5 209,-385.5 307,-385.5 307,-366.5 209,-366.5"/>
<text text-anchor="middle" x="258" y="-373.5" font-family="Helvetica,sans-Serif" font-size="10.00">AStarSolver::solve</text>
</a>
</g>
</g>
<!-- Node3&#45;&gt;Node9 -->
<g id="edge8" class="edge"><title>Node3&#45;&gt;Node9</title>
<path fill="none" stroke="midnightblue" d="M119.502,-285.618C130.648,-302.666 156.232,-338.158 187,-357 190.849,-359.357 194.993,-361.427 199.273,-363.243"/>
<polygon fill="midnightblue" stroke="midnightblue" points="198.208,-366.582 208.8,-366.828 200.673,-360.03 198.208,-366.582"/>
</g>
<!-- Node10 -->
<g id="node9" class="node"><title>Node10</title>
<g id="a_node9"><a xlink:href="classAStarSolver.html#ae8d48eac750a478780092c134b2d503b" target="_top" xlink:title="AStarSolver::AStarSolver">
<polygon fill="none" stroke="black" points="194,-328.5 194,-347.5 322,-347.5 322,-328.5 194,-328.5"/>
<text text-anchor="middle" x="258" y="-335.5" font-family="Helvetica,sans-Serif" font-size="10.00">AStarSolver::AStarSolver</text>
</a>
</g>
</g>
<!-- Node3&#45;&gt;Node10 -->
<g id="edge10" class="edge"><title>Node3&#45;&gt;Node10</title>
<path fill="none" stroke="midnightblue" d="M127.285,-285.566C141.639,-295.159 165.051,-309.793 187,-319 192.715,-321.398 198.821,-323.575 204.954,-325.53"/>
<polygon fill="midnightblue" stroke="midnightblue" points="203.981,-328.892 214.565,-328.416 205.994,-322.187 203.981,-328.892"/>
</g>
<!-- Node11 -->
<g id="node10" class="node"><title>Node11</title>
<g id="a_node10"><a xlink:href="classHillClimbingSolver.html#a6c79ab5d993d3748c8e56dfa1e6d24e1" target="_top" xlink:title="Explores the game tree in search of the goal state. ">
<polygon fill="none" stroke="black" points="209.5,-261 209.5,-291 306.5,-291 306.5,-261 209.5,-261"/>
<text text-anchor="start" x="217.5" y="-279" font-family="Helvetica,sans-Serif" font-size="10.00">HillClimbingSolver</text>
<text text-anchor="middle" x="258" y="-268" font-family="Helvetica,sans-Serif" font-size="10.00">::solve</text>
</a>
</g>
</g>
<!-- Node3&#45;&gt;Node11 -->
<g id="edge11" class="edge"><title>Node3&#45;&gt;Node11</title>
<path fill="none" stroke="midnightblue" d="M151.203,-276C165.78,-276 182.799,-276 198.871,-276"/>
<polygon fill="midnightblue" stroke="midnightblue" points="199.26,-279.5 209.26,-276 199.26,-272.5 199.26,-279.5"/>
</g>
<!-- Node12 -->
<g id="node11" class="node"><title>Node12</title>
<g id="a_node11"><a xlink:href="classHillClimbingSolver.html#abea010329f62ba6488a9450b4f65961e" target="_top" xlink:title="Initializes a regular hill&#45;climbing 8&#45;puzzle solver. ">
<polygon fill="none" stroke="black" points="206.5,-212 206.5,-242 309.5,-242 309.5,-212 206.5,-212"/>
<text text-anchor="start" x="214.5" y="-230" font-family="Helvetica,sans-Serif" font-size="10.00">HillClimbingSolver</text>
<text text-anchor="middle" x="258" y="-219" font-family="Helvetica,sans-Serif" font-size="10.00">::HillClimbingSolver</text>
</a>
</g>
</g>
<!-- Node3&#45;&gt;Node12 -->
<g id="edge13" class="edge"><title>Node3&#45;&gt;Node12</title>
<path fill="none" stroke="midnightblue" d="M141.509,-266.436C159.121,-260.422 182.419,-252.467 203.475,-245.277"/>
<polygon fill="midnightblue" stroke="midnightblue" points="204.631,-248.581 212.963,-242.037 202.369,-241.956 204.631,-248.581"/>
</g>
<!-- Node13 -->
<g id="node12" class="node"><title>Node13</title>
<g id="a_node12"><a xlink:href="classBreadthFirstSolver.html#aa8003debc55fb72ac077ef0d0489071b" target="_top" xlink:title="Explores the game tree in search of the goal state. ">
<polygon fill="none" stroke="black" points="209,-145 209,-175 307,-175 307,-145 209,-145"/>
<text text-anchor="start" x="217" y="-163" font-family="Helvetica,sans-Serif" font-size="10.00">BreadthFirstSolver</text>
<text text-anchor="middle" x="258" y="-152" font-family="Helvetica,sans-Serif" font-size="10.00">::solve</text>
</a>
</g>
</g>
<!-- Node3&#45;&gt;Node13 -->
<g id="edge14" class="edge"><title>Node3&#45;&gt;Node13</title>
<path fill="none" stroke="midnightblue" d="M121.924,-266.3C134.976,-251.594 161.271,-223.234 187,-203 197.35,-194.86 209.339,-186.999 220.438,-180.274"/>
<polygon fill="midnightblue" stroke="midnightblue" points="222.282,-183.25 229.1,-175.141 218.713,-177.228 222.282,-183.25"/>
</g>
<!-- Node14 -->
<g id="node13" class="node"><title>Node14</title>
<g id="a_node13"><a xlink:href="classDepthFirstSolver.html#a2809ff4fd495d915f4c02a1e1927ee15" target="_top" xlink:title="Explores the game tree in search of the goal state. ">
<polygon fill="none" stroke="black" points="198.5,-88.5 198.5,-107.5 317.5,-107.5 317.5,-88.5 198.5,-88.5"/>
<text text-anchor="middle" x="258" y="-95.5" font-family="Helvetica,sans-Serif" font-size="10.00">DepthFirstSolver::solve</text>
</a>
</g>
</g>
<!-- Node3&#45;&gt;Node14 -->
<g id="edge16" class="edge"><title>Node3&#45;&gt;Node14</title>
<path fill="none" stroke="midnightblue" d="M116.384,-266.316C124.124,-241.74 147.485,-176.068 187,-136 196.904,-125.958 210.028,-117.885 222.235,-111.807"/>
<polygon fill="midnightblue" stroke="midnightblue" points="223.752,-114.961 231.321,-107.548 220.781,-108.623 223.752,-114.961"/>
</g>
<!-- Node15 -->
<g id="node14" class="node"><title>Node15</title>
<g id="a_node14"><a xlink:href="classDepthFirstSolver.html#a1305bcda181d52d52285f904b4a9007c" target="_top" xlink:title="DepthFirstSolver::DepthFirst\lSolver">
<polygon fill="none" stroke="black" points="187,-39 187,-69 329,-69 329,-39 187,-39"/>
<text text-anchor="start" x="195" y="-57" font-family="Helvetica,sans-Serif" font-size="10.00">DepthFirstSolver::DepthFirst</text>
<text text-anchor="middle" x="258" y="-46" font-family="Helvetica,sans-Serif" font-size="10.00">Solver</text>
</a>
</g>
</g>
<!-- Node3&#45;&gt;Node15 -->
<g id="edge18" class="edge"><title>Node3&#45;&gt;Node15</title>
<path fill="none" stroke="midnightblue" d="M114.294,-266.261C117.387,-234.659 131.374,-133.848 187,-79 188.605,-77.4173 190.317,-75.9341 192.114,-74.5443"/>
<polygon fill="midnightblue" stroke="midnightblue" points="194.05,-77.46 200.467,-69.0296 190.194,-71.6183 194.05,-77.46"/>
</g>
<!-- Node16 -->
<g id="node15" class="node"><title>Node16</title>
<g id="a_node15"><a xlink:href="main_8cpp.html#ab5ab5ac71f432f7a8ec5a553a3116091" target="_top" xlink:title="Generic function to test a single solver and print its output. ">
<polygon fill="none" stroke="black" points="214,-0.5 214,-19.5 302,-19.5 302,-0.5 214,-0.5"/>
<text text-anchor="middle" x="258" y="-7.5" font-family="Helvetica,sans-Serif" font-size="10.00">testSingleSolver</text>
</a>
</g>
</g>
<!-- Node3&#45;&gt;Node16 -->
<g id="edge19" class="edge"><title>Node3&#45;&gt;Node16</title>
<path fill="none" stroke="midnightblue" d="M113.311,-266.369C113.138,-229.862 117.56,-98.6088 187,-30 191.893,-25.1656 197.869,-21.4828 204.247,-18.6804"/>
<polygon fill="midnightblue" stroke="midnightblue" points="205.618,-21.9055 213.798,-15.173 203.205,-15.3345 205.618,-21.9055"/>
</g>
<!-- Node5 -->
<g id="node4" class="node"><title>Node5</title>
<g id="a_node4"><a xlink:href="classGameState.html#a4fa0a2bf50315c4a35a3890a0adcee5c" target="_top" xlink:title="Default constructor, everything starts as 0 or NULL. ">
<polygon fill="none" stroke="black" points="380,-535.5 380,-554.5 502,-554.5 502,-535.5 380,-535.5"/>
<text text-anchor="middle" x="441" y="-542.5" font-family="Helvetica,sans-Serif" font-size="10.00">GameState::GameState</text>
</a>
</g>
</g>
<!-- Node4&#45;&gt;Node5 -->
<g id="edge3" class="edge"><title>Node4&#45;&gt;Node5</title>
<path fill="none" stroke="midnightblue" d="M295.628,-529.845C316.967,-532.085 344.589,-534.985 369.95,-537.647"/>
<polygon fill="midnightblue" stroke="midnightblue" points="369.6,-541.129 379.91,-538.692 370.33,-534.167 369.6,-541.129"/>
</g>
<!-- Node6 -->
<g id="node5" class="node"><title>Node6</title>
<g id="a_node5"><a xlink:href="classGameState.html#a6fab869a6c4f80df3837849b8252aa1d" target="_top" xlink:title="GameState::setRepresentation">
<polygon fill="none" stroke="black" points="365,-497.5 365,-516.5 517,-516.5 517,-497.5 365,-497.5"/>
<text text-anchor="middle" x="441" y="-504.5" font-family="Helvetica,sans-Serif" font-size="10.00">GameState::setRepresentation</text>
</a>
</g>
</g>
<!-- Node4&#45;&gt;Node6 -->
<g id="edge4" class="edge"><title>Node4&#45;&gt;Node6</title>
<path fill="none" stroke="midnightblue" d="M295.628,-522.155C312.761,-520.357 333.944,-518.133 354.755,-515.948"/>
<polygon fill="midnightblue" stroke="midnightblue" points="355.343,-519.406 364.923,-514.881 354.612,-512.444 355.343,-519.406"/>
</g>
<!-- Node7&#45;&gt;Node7 -->
<g id="edge6" class="edge"><title>Node7&#45;&gt;Node7</title>
<path fill="none" stroke="midnightblue" d="M235.805,-479.757C225.008,-488.565 232.406,-498 258,-498 274.796,-498 283.756,-493.937 284.879,-488.654"/>
<polygon fill="midnightblue" stroke="midnightblue" points="287.951,-486.975 280.195,-479.757 281.757,-490.236 287.951,-486.975"/>
</g>
<!-- Node9&#45;&gt;Node9 -->
<g id="edge9" class="edge"><title>Node9&#45;&gt;Node9</title>
<path fill="none" stroke="midnightblue" d="M235.805,-385.757C225.008,-394.565 232.406,-404 258,-404 274.796,-404 283.756,-399.937 284.879,-394.654"/>
<polygon fill="midnightblue" stroke="midnightblue" points="287.951,-392.975 280.195,-385.757 281.757,-396.236 287.951,-392.975"/>
</g>
<!-- Node11&#45;&gt;Node11 -->
<g id="edge12" class="edge"><title>Node11&#45;&gt;Node11</title>
<path fill="none" stroke="midnightblue" d="M232.905,-291.159C226.854,-300.557 235.219,-309.5 258,-309.5 271.882,-309.5 280.411,-306.179 283.587,-301.458"/>
<polygon fill="midnightblue" stroke="midnightblue" points="287.068,-300.981 283.095,-291.159 280.076,-301.315 287.068,-300.981"/>
</g>
<!-- Node13&#45;&gt;Node13 -->
<g id="edge15" class="edge"><title>Node13&#45;&gt;Node13</title>
<path fill="none" stroke="midnightblue" d="M232.905,-175.159C226.854,-184.557 235.219,-193.5 258,-193.5 271.882,-193.5 280.411,-190.179 283.587,-185.458"/>
<polygon fill="midnightblue" stroke="midnightblue" points="287.068,-184.981 283.095,-175.159 280.076,-185.315 287.068,-184.981"/>
</g>
<!-- Node14&#45;&gt;Node14 -->
<g id="edge17" class="edge"><title>Node14&#45;&gt;Node14</title>
<path fill="none" stroke="midnightblue" d="M235.805,-107.757C225.008,-116.565 232.406,-126 258,-126 274.796,-126 283.756,-121.937 284.879,-116.654"/>
<polygon fill="midnightblue" stroke="midnightblue" points="287.951,-114.975 280.195,-107.757 281.757,-118.236 287.951,-114.975"/>
</g>
</g>
</svg>
