<?xml version="1.0" encoding="UTF-8" standalone="no"?>
<!DOCTYPE svg PUBLIC "-//W3C//DTD SVG 1.1//EN"
 "http://www.w3.org/Graphics/SVG/1.1/DTD/svg11.dtd">
<!-- Generated by graphviz version 2.38.0 (20140413.2041)
 -->
<!-- Title: test/main.cpp Pages: 1 -->
<svg width="957pt" height="308pt"
 viewBox="0.00 0.00 956.50 308.00" xmlns="http://www.w3.org/2000/svg" xmlns:xlink="http://www.w3.org/1999/xlink">
<g id="graph0" class="graph" transform="scale(1 1) rotate(0) translate(4 304)">
<title>test/main.cpp</title>
<!-- Node0 -->
<g id="node1" class="node"><title>Node0</title>
<polygon fill="#bfbfbf" stroke="black" points="306,-280.5 306,-299.5 382,-299.5 382,-280.5 306,-280.5"/>
<text text-anchor="middle" x="344" y="-287.5" font-family="Helvetica,sans-Serif" font-size="10.00">test/main.cpp</text>
</g>
<!-- Node1 -->
<g id="node2" class="node"><title>Node1</title>
<polygon fill="none" stroke="#bfbfbf" points="0,-0.5 0,-19.5 54,-19.5 54,-0.5 0,-0.5"/>
<text text-anchor="middle" x="27" y="-7.5" font-family="Helvetica,sans-Serif" font-size="10.00">iostream</text>
</g>
<!-- Node0&#45;&gt;Node1 -->
<g id="edge1" class="edge"><title>Node0&#45;&gt;Node1</title>
<path fill="none" stroke="midnightblue" d="M305.717,-288.715C229.594,-287.361 62.937,-280.223 21,-244 -1.77747,-224.326 2,-209.098 2,-179 2,-179 2,-179 2,-121 2,-87.9952 12.8343,-50.7743 20.2382,-29.1916"/>
<polygon fill="midnightblue" stroke="midnightblue" points="23.5653,-30.282 23.6284,-19.6873 16.9721,-27.9302 23.5653,-30.282"/>
</g>
<!-- Node2 -->
<g id="node3" class="node"><title>Node2</title>
<polygon fill="none" stroke="#bfbfbf" points="30,-224.5 30,-243.5 80,-243.5 80,-224.5 30,-224.5"/>
<text text-anchor="middle" x="55" y="-231.5" font-family="Helvetica,sans-Serif" font-size="10.00">fstream</text>
</g>
<!-- Node0&#45;&gt;Node2 -->
<g id="edge2" class="edge"><title>Node0&#45;&gt;Node2</title>
<path fill="none" stroke="midnightblue" d="M305.785,-283.284C257.697,-275.866 172.389,-261.961 90.1985,-244.117"/>
<polygon fill="midnightblue" stroke="midnightblue" points="90.7113,-240.646 80.1935,-241.921 89.2109,-247.483 90.7113,-240.646"/>
</g>
<!-- Node3 -->
<g id="node4" class="node"><title>Node3</title>
<polygon fill="none" stroke="#bfbfbf" points="98.5,-224.5 98.5,-243.5 147.5,-243.5 147.5,-224.5 98.5,-224.5"/>
<text text-anchor="middle" x="123" y="-231.5" font-family="Helvetica,sans-Serif" font-size="10.00">random</text>
</g>
<!-- Node0&#45;&gt;Node3 -->
<g id="edge3" class="edge"><title>Node0&#45;&gt;Node3</title>
<path fill="none" stroke="midnightblue" d="M306.817,-280.462C270.908,-272.136 214.748,-258.905 157.742,-244.395"/>
<polygon fill="midnightblue" stroke="midnightblue" points="158.399,-240.951 147.844,-241.865 156.666,-247.733 158.399,-240.951"/>
</g>
<!-- Node4 -->
<g id="node5" class="node"><title>Node4</title>
<polygon fill="none" stroke="#bfbfbf" points="165.5,-224.5 165.5,-243.5 206.5,-243.5 206.5,-224.5 165.5,-224.5"/>
<text text-anchor="middle" x="186" y="-231.5" font-family="Helvetica,sans-Serif" font-size="10.00">ctime</text>
</g>
<!-- Node0&#45;&gt;Node4 -->
<g id="edge4" class="edge"><title>Node0&#45;&gt;Node4</title>
<path fill="none" stroke="midnightblue" d="M318.964,-280.444C291.133,-270.932 246.186,-255.57 216.367,-245.379"/>
<polygon fill="midnightblue" stroke="midnightblue" points="217.476,-242.059 206.882,-242.137 215.212,-248.683 217.476,-242.059"/>
</g>
<!-- Node5 -->
<g id="node6" class="node"><title>Node5</title>
<g id="a_node6"><a xlink:href="AStarSolver_8hpp.html" target="_top" xlink:title="AStarSolver.hpp">
<polygon fill="none" stroke="black" points="861.5,-224.5 861.5,-243.5 948.5,-243.5 948.5,-224.5 861.5,-224.5"/>
<text text-anchor="middle" x="905" y="-231.5" font-family="Helvetica,sans-Serif" font-size="10.00">AStarSolver.hpp</text>
</a>
</g>
</g>
<!-- Node0&#45;&gt;Node5 -->
<g id="edge5" class="edge"><title>Node0&#45;&gt;Node5</title>
<path fill="none" stroke="midnightblue" d="M382.11,-286.719C465.415,-281.498 670.151,-267.397 851.37,-244.121"/>
<polygon fill="midnightblue" stroke="midnightblue" points="851.881,-247.584 861.347,-242.827 850.98,-240.642 851.881,-247.584"/>
</g>
<!-- Node15 -->
<g id="node16" class="node"><title>Node15</title>
<g id="a_node16"><a xlink:href="DepthFirstSolver_8hpp.html" target="_top" xlink:title="DepthFirstSolver.hpp">
<polygon fill="none" stroke="black" points="225,-224.5 225,-243.5 333,-243.5 333,-224.5 225,-224.5"/>
<text text-anchor="middle" x="279" y="-231.5" font-family="Helvetica,sans-Serif" font-size="10.00">DepthFirstSolver.hpp</text>
</a>
</g>
</g>
<!-- Node0&#45;&gt;Node15 -->
<g id="edge20" class="edge"><title>Node0&#45;&gt;Node15</title>
<path fill="none" stroke="midnightblue" d="M333.557,-280.324C323.854,-272.263 309.185,-260.077 297.5,-250.369"/>
<polygon fill="midnightblue" stroke="midnightblue" points="299.562,-247.532 289.633,-243.834 295.089,-252.916 299.562,-247.532"/>
</g>
<!-- Node17 -->
<g id="node18" class="node"><title>Node17</title>
<g id="a_node18"><a xlink:href="BreadthFirstSolver_8hpp.html" target="_top" xlink:title="BreadthFirstSolver.hpp">
<polygon fill="none" stroke="black" points="351,-224.5 351,-243.5 467,-243.5 467,-224.5 351,-224.5"/>
<text text-anchor="middle" x="409" y="-231.5" font-family="Helvetica,sans-Serif" font-size="10.00">BreadthFirstSolver.hpp</text>
</a>
</g>
</g>
<!-- Node0&#45;&gt;Node17 -->
<g id="edge25" class="edge"><title>Node0&#45;&gt;Node17</title>
<path fill="none" stroke="midnightblue" d="M354.443,-280.324C364.146,-272.263 378.815,-260.077 390.5,-250.369"/>
<polygon fill="midnightblue" stroke="midnightblue" points="392.911,-252.916 398.367,-243.834 388.438,-247.532 392.911,-252.916"/>
</g>
<!-- Node19 -->
<g id="node20" class="node"><title>Node19</title>
<g id="a_node20"><a xlink:href="GreedySolver_8hpp.html" target="_top" xlink:title="GreedySolver.hpp">
<polygon fill="none" stroke="black" points="485,-224.5 485,-243.5 579,-243.5 579,-224.5 485,-224.5"/>
<text text-anchor="middle" x="532" y="-231.5" font-family="Helvetica,sans-Serif" font-size="10.00">GreedySolver.hpp</text>
</a>
</g>
</g>
<!-- Node0&#45;&gt;Node19 -->
<g id="edge28" class="edge"><title>Node0&#45;&gt;Node19</title>
<path fill="none" stroke="midnightblue" d="M373.789,-280.444C405.829,-271.241 456.933,-256.562 492.353,-246.388"/>
<polygon fill="midnightblue" stroke="midnightblue" points="493.705,-249.641 502.35,-243.516 491.773,-242.913 493.705,-249.641"/>
</g>
<!-- Node20 -->
<g id="node21" class="node"><title>Node20</title>
<g id="a_node21"><a xlink:href="HillClimbingSolver_8hpp.html" target="_top" xlink:title="HillClimbingSolver.hpp">
<polygon fill="none" stroke="black" points="597.5,-224.5 597.5,-243.5 712.5,-243.5 712.5,-224.5 597.5,-224.5"/>
<text text-anchor="middle" x="655" y="-231.5" font-family="Helvetica,sans-Serif" font-size="10.00">HillClimbingSolver.hpp</text>
</a>
</g>
</g>
<!-- Node0&#45;&gt;Node20 -->
<g id="edge32" class="edge"><title>Node0&#45;&gt;Node20</title>
<path fill="none" stroke="midnightblue" d="M382.135,-282.379C435.45,-273.121 532.772,-256.223 595.623,-245.31"/>
<polygon fill="midnightblue" stroke="midnightblue" points="596.532,-248.705 605.786,-243.545 595.334,-241.808 596.532,-248.705"/>
</g>
<!-- Node21 -->
<g id="node22" class="node"><title>Node21</title>
<g id="a_node22"><a xlink:href="MonteCarloSolver_8hpp.html" target="_top" xlink:title="MonteCarloSolver.hpp">
<polygon fill="none" stroke="black" points="730.5,-224.5 730.5,-243.5 843.5,-243.5 843.5,-224.5 730.5,-224.5"/>
<text text-anchor="middle" x="787" y="-231.5" font-family="Helvetica,sans-Serif" font-size="10.00">MonteCarloSolver.hpp</text>
</a>
</g>
</g>
<!-- Node0&#45;&gt;Node21 -->
<g id="edge36" class="edge"><title>Node0&#45;&gt;Node21</title>
<path fill="none" stroke="midnightblue" d="M382.019,-284.675C448.326,-277.085 589.682,-260.701 720.297,-244.07"/>
<polygon fill="midnightblue" stroke="midnightblue" points="721.006,-247.508 730.483,-242.77 720.12,-240.565 721.006,-247.508"/>
</g>
<!-- Node6 -->
<g id="node7" class="node"><title>Node6</title>
<g id="a_node7"><a xlink:href="Solver_8hpp.html" target="_top" xlink:title="Solver.hpp">
<polygon fill="none" stroke="black" points="501,-168.5 501,-187.5 563,-187.5 563,-168.5 501,-168.5"/>
<text text-anchor="middle" x="532" y="-175.5" font-family="Helvetica,sans-Serif" font-size="10.00">Solver.hpp</text>
</a>
</g>
</g>
<!-- Node5&#45;&gt;Node6 -->
<g id="edge6" class="edge"><title>Node5&#45;&gt;Node6</title>
<path fill="none" stroke="midnightblue" d="M861.324,-225.336C858.509,-224.874 855.716,-224.425 853,-224 752.618,-208.281 634.156,-192.35 573.051,-184.326"/>
<polygon fill="midnightblue" stroke="midnightblue" points="573.407,-180.843 563.037,-183.014 572.497,-187.783 573.407,-180.843"/>
</g>
<!-- Node9 -->
<g id="node10" class="node"><title>Node9</title>
<polygon fill="none" stroke="#bfbfbf" points="678,-112.5 678,-131.5 764,-131.5 764,-112.5 678,-112.5"/>
<text text-anchor="middle" x="721" y="-119.5" font-family="Helvetica,sans-Serif" font-size="10.00">OrderedList.hpp</text>
</g>
<!-- Node5&#45;&gt;Node9 -->
<g id="edge19" class="edge"><title>Node5&#45;&gt;Node9</title>
<path fill="none" stroke="midnightblue" d="M890.562,-224.368C858.853,-205.412 782.892,-160.001 744.322,-136.942"/>
<polygon fill="midnightblue" stroke="midnightblue" points="745.75,-133.719 735.371,-131.591 742.158,-139.727 745.75,-133.719"/>
</g>
<!-- Node14 -->
<g id="node15" class="node"><title>Node14</title>
<g id="a_node15"><a xlink:href="Heuristic_8hpp.html" target="_top" xlink:title="Heuristic.hpp">
<polygon fill="none" stroke="black" points="619,-168.5 619,-187.5 693,-187.5 693,-168.5 619,-168.5"/>
<text text-anchor="middle" x="656" y="-175.5" font-family="Helvetica,sans-Serif" font-size="10.00">Heuristic.hpp</text>
</a>
</g>
</g>
<!-- Node5&#45;&gt;Node14 -->
<g id="edge17" class="edge"><title>Node5&#45;&gt;Node14</title>
<path fill="none" stroke="midnightblue" d="M865.545,-224.444C821.469,-214.885 750.152,-199.419 703.166,-189.229"/>
<polygon fill="midnightblue" stroke="midnightblue" points="703.751,-185.774 693.237,-187.075 702.268,-192.615 703.751,-185.774"/>
</g>
<!-- Node7 -->
<g id="node8" class="node"><title>Node7</title>
<polygon fill="none" stroke="#bfbfbf" points="447,-112.5 447,-131.5 491,-131.5 491,-112.5 447,-112.5"/>
<text text-anchor="middle" x="469" y="-119.5" font-family="Helvetica,sans-Serif" font-size="10.00">time.h</text>
</g>
<!-- Node6&#45;&gt;Node7 -->
<g id="edge7" class="edge"><title>Node6&#45;&gt;Node7</title>
<path fill="none" stroke="midnightblue" d="M521.878,-168.324C512.474,-160.263 498.256,-148.077 486.931,-138.369"/>
<polygon fill="midnightblue" stroke="midnightblue" points="489.177,-135.684 479.306,-131.834 484.621,-140.999 489.177,-135.684"/>
</g>
<!-- Node8 -->
<g id="node9" class="node"><title>Node8</title>
<polygon fill="none" stroke="#bfbfbf" points="311,-112.5 311,-131.5 391,-131.5 391,-112.5 311,-112.5"/>
<text text-anchor="middle" x="351" y="-119.5" font-family="Helvetica,sans-Serif" font-size="10.00">LinkedList.hpp</text>
</g>
<!-- Node6&#45;&gt;Node8 -->
<g id="edge8" class="edge"><title>Node6&#45;&gt;Node8</title>
<path fill="none" stroke="midnightblue" d="M503.32,-168.444C472.473,-159.241 423.272,-144.562 389.171,-134.388"/>
<polygon fill="midnightblue" stroke="midnightblue" points="390.129,-131.021 379.546,-131.516 388.128,-137.729 390.129,-131.021"/>
</g>
<!-- Node6&#45;&gt;Node9 -->
<g id="edge9" class="edge"><title>Node6&#45;&gt;Node9</title>
<path fill="none" stroke="midnightblue" d="M561.948,-168.444C594.158,-159.241 645.534,-144.562 681.142,-134.388"/>
<polygon fill="midnightblue" stroke="midnightblue" points="682.539,-137.629 691.192,-131.516 680.616,-130.898 682.539,-137.629"/>
</g>
<!-- Node10 -->
<g id="node11" class="node"><title>Node10</title>
<g id="a_node11"><a xlink:href="GameState_8hpp.html" target="_top" xlink:title="GameState.hpp">
<polygon fill="none" stroke="black" points="81.5,-56.5 81.5,-75.5 166.5,-75.5 166.5,-56.5 81.5,-56.5"/>
<text text-anchor="middle" x="124" y="-63.5" font-family="Helvetica,sans-Serif" font-size="10.00">GameState.hpp</text>
</a>
</g>
</g>
<!-- Node6&#45;&gt;Node10 -->
<g id="edge10" class="edge"><title>Node6&#45;&gt;Node10</title>
<path fill="none" stroke="midnightblue" d="M513.527,-168.41C494.499,-159.503 464.031,-145.075 438,-132 420.945,-123.434 418.098,-118.059 400,-112 324.804,-86.8262 233.209,-75.457 176.752,-70.5247"/>
<polygon fill="midnightblue" stroke="midnightblue" points="176.888,-67.0239 166.631,-69.6768 176.303,-73.9995 176.888,-67.0239"/>
</g>
<!-- Node13 -->
<g id="node14" class="node"><title>Node13</title>
<g id="a_node14"><a xlink:href="Game_8hpp.html" target="_top" xlink:title="Game.hpp">
<polygon fill="none" stroke="black" points="509,-112.5 509,-131.5 571,-131.5 571,-112.5 509,-112.5"/>
<text text-anchor="middle" x="540" y="-119.5" font-family="Helvetica,sans-Serif" font-size="10.00">Game.hpp</text>
</a>
</g>
</g>
<!-- Node6&#45;&gt;Node13 -->
<g id="edge14" class="edge"><title>Node6&#45;&gt;Node13</title>
<path fill="none" stroke="midnightblue" d="M533.321,-168.083C534.381,-160.927 535.906,-150.635 537.231,-141.691"/>
<polygon fill="midnightblue" stroke="midnightblue" points="540.7,-142.156 538.704,-131.751 533.776,-141.13 540.7,-142.156"/>
</g>
<!-- Node10&#45;&gt;Node1 -->
<g id="edge12" class="edge"><title>Node10&#45;&gt;Node1</title>
<path fill="none" stroke="midnightblue" d="M108.415,-56.324C93.0009,-47.7428 69.1878,-34.486 51.2903,-24.5224"/>
<polygon fill="midnightblue" stroke="midnightblue" points="52.9858,-21.4606 42.5461,-19.6545 49.5809,-27.5767 52.9858,-21.4606"/>
</g>
<!-- Node11 -->
<g id="node12" class="node"><title>Node11</title>
<polygon fill="none" stroke="#bfbfbf" points="97.5,-0.5 97.5,-19.5 138.5,-19.5 138.5,-0.5 97.5,-0.5"/>
<text text-anchor="middle" x="118" y="-7.5" font-family="Helvetica,sans-Serif" font-size="10.00">string</text>
</g>
<!-- Node10&#45;&gt;Node11 -->
<g id="edge11" class="edge"><title>Node10&#45;&gt;Node11</title>
<path fill="none" stroke="midnightblue" d="M123.009,-56.083C122.214,-48.9272 121.071,-38.6353 120.077,-29.6911"/>
<polygon fill="midnightblue" stroke="midnightblue" points="123.555,-29.3034 118.972,-19.7511 116.598,-30.0765 123.555,-29.3034"/>
</g>
<!-- Node12 -->
<g id="node13" class="node"><title>Node12</title>
<g id="a_node13"><a xlink:href="GameAction_8hpp.html" target="_top" xlink:title="GameAction.hpp">
<polygon fill="none" stroke="black" points="156.5,-0.5 156.5,-19.5 245.5,-19.5 245.5,-0.5 156.5,-0.5"/>
<text text-anchor="middle" x="201" y="-7.5" font-family="Helvetica,sans-Serif" font-size="10.00">GameAction.hpp</text>
</a>
</g>
</g>
<!-- Node10&#45;&gt;Node12 -->
<g id="edge13" class="edge"><title>Node10&#45;&gt;Node12</title>
<path fill="none" stroke="midnightblue" d="M136.371,-56.324C148.158,-48.0577 166.132,-35.4527 180.136,-25.6322"/>
<polygon fill="midnightblue" stroke="midnightblue" points="182.482,-28.2619 188.659,-19.6545 178.462,-22.5307 182.482,-28.2619"/>
</g>
<!-- Node13&#45;&gt;Node10 -->
<g id="edge15" class="edge"><title>Node13&#45;&gt;Node10</title>
<path fill="none" stroke="midnightblue" d="M508.618,-113.621C505.712,-113.034 502.806,-112.482 500,-112 385.596,-92.3366 250.14,-78.3907 177.093,-71.6294"/>
<polygon fill="midnightblue" stroke="midnightblue" points="177.056,-68.1115 166.778,-70.6842 176.417,-75.0823 177.056,-68.1115"/>
</g>
<!-- Node13&#45;&gt;Node12 -->
<g id="edge16" class="edge"><title>Node13&#45;&gt;Node12</title>
<path fill="none" stroke="midnightblue" d="M513.681,-112.46C453.482,-92.9264 305.667,-44.9626 237.063,-22.7018"/>
<polygon fill="midnightblue" stroke="midnightblue" points="238.128,-19.3677 227.536,-19.6104 235.967,-26.026 238.128,-19.3677"/>
</g>
<!-- Node14&#45;&gt;Node13 -->
<g id="edge18" class="edge"><title>Node14&#45;&gt;Node13</title>
<path fill="none" stroke="midnightblue" d="M637.619,-168.444C618.784,-159.675 589.269,-145.935 567.621,-135.858"/>
<polygon fill="midnightblue" stroke="midnightblue" points="568.838,-132.564 558.295,-131.516 565.883,-138.91 568.838,-132.564"/>
</g>
<!-- Node15&#45;&gt;Node6 -->
<g id="edge23" class="edge"><title>Node15&#45;&gt;Node6</title>
<path fill="none" stroke="midnightblue" d="M319.66,-224.457C360.265,-215.905 424.737,-202.275 490.526,-188.09"/>
<polygon fill="midnightblue" stroke="midnightblue" points="491.629,-191.433 500.666,-185.902 490.152,-184.59 491.629,-191.433"/>
</g>
<!-- Node15&#45;&gt;Node8 -->
<g id="edge21" class="edge"><title>Node15&#45;&gt;Node8</title>
<path fill="none" stroke="midnightblue" d="M293.189,-224.374C305.201,-216.369 322.013,-203.391 332,-188 341.1,-173.977 345.953,-155.479 348.469,-141.804"/>
<polygon fill="midnightblue" stroke="midnightblue" points="351.969,-142.078 350.075,-131.654 345.055,-140.984 351.969,-142.078"/>
</g>
<!-- Node15&#45;&gt;Node12 -->
<g id="edge24" class="edge"><title>Node15&#45;&gt;Node12</title>
<path fill="none" stroke="midnightblue" d="M257.88,-224.397C242.88,-217.084 223.74,-205.04 214,-188 184.876,-137.049 191.893,-63.9344 197.394,-29.8409"/>
<polygon fill="midnightblue" stroke="midnightblue" points="200.864,-30.3179 199.147,-19.8631 193.97,-29.1065 200.864,-30.3179"/>
</g>
<!-- Node16 -->
<g id="node17" class="node"><title>Node16</title>
<polygon fill="none" stroke="#bfbfbf" points="223,-168.5 223,-187.5 323,-187.5 323,-168.5 223,-168.5"/>
<text text-anchor="middle" x="273" y="-175.5" font-family="Helvetica,sans-Serif" font-size="10.00">DynamicStack.hpp</text>
</g>
<!-- Node15&#45;&gt;Node16 -->
<g id="edge22" class="edge"><title>Node15&#45;&gt;Node16</title>
<path fill="none" stroke="midnightblue" d="M278.009,-224.083C277.214,-216.927 276.071,-206.635 275.077,-197.691"/>
<polygon fill="midnightblue" stroke="midnightblue" points="278.555,-197.303 273.972,-187.751 271.598,-198.076 278.555,-197.303"/>
</g>
<!-- Node17&#45;&gt;Node6 -->
<g id="edge26" class="edge"><title>Node17&#45;&gt;Node6</title>
<path fill="none" stroke="midnightblue" d="M428.49,-224.444C448.642,-215.596 480.323,-201.687 503.331,-191.586"/>
<polygon fill="midnightblue" stroke="midnightblue" points="504.852,-194.741 512.601,-187.516 502.038,-188.332 504.852,-194.741"/>
</g>
<!-- Node18 -->
<g id="node19" class="node"><title>Node18</title>
<polygon fill="none" stroke="#bfbfbf" points="379.5,-168.5 379.5,-187.5 482.5,-187.5 482.5,-168.5 379.5,-168.5"/>
<text text-anchor="middle" x="431" y="-175.5" font-family="Helvetica,sans-Serif" font-size="10.00">DynamicQueue.hpp</text>
</g>
<!-- Node17&#45;&gt;Node18 -->
<g id="edge27" class="edge"><title>Node17&#45;&gt;Node18</title>
<path fill="none" stroke="midnightblue" d="M412.633,-224.083C415.612,-216.77 419.926,-206.181 423.625,-197.103"/>
<polygon fill="midnightblue" stroke="midnightblue" points="426.903,-198.333 427.435,-187.751 420.42,-195.691 426.903,-198.333"/>
</g>
<!-- Node19&#45;&gt;Node6 -->
<g id="edge30" class="edge"><title>Node19&#45;&gt;Node6</title>
<path fill="none" stroke="midnightblue" d="M532,-224.083C532,-217.006 532,-206.861 532,-197.986"/>
<polygon fill="midnightblue" stroke="midnightblue" points="535.5,-197.751 532,-187.751 528.5,-197.751 535.5,-197.751"/>
</g>
<!-- Node19&#45;&gt;Node9 -->
<g id="edge29" class="edge"><title>Node19&#45;&gt;Node9</title>
<path fill="none" stroke="midnightblue" d="M540.437,-224.424C554.056,-210.958 582.18,-184.674 610,-168 633.201,-154.094 661.482,-142.702 683.692,-134.859"/>
<polygon fill="midnightblue" stroke="midnightblue" points="685.111,-138.072 693.428,-131.509 682.834,-131.453 685.111,-138.072"/>
</g>
<!-- Node19&#45;&gt;Node14 -->
<g id="edge31" class="edge"><title>Node19&#45;&gt;Node14</title>
<path fill="none" stroke="midnightblue" d="M551.648,-224.444C571.965,-215.596 603.903,-201.687 627.098,-191.586"/>
<polygon fill="midnightblue" stroke="midnightblue" points="628.673,-194.718 636.444,-187.516 625.878,-188.3 628.673,-194.718"/>
</g>
<!-- Node20&#45;&gt;Node6 -->
<g id="edge34" class="edge"><title>Node20&#45;&gt;Node6</title>
<path fill="none" stroke="midnightblue" d="M635.51,-224.444C615.358,-215.596 583.677,-201.687 560.669,-191.586"/>
<polygon fill="midnightblue" stroke="midnightblue" points="561.962,-188.332 551.399,-187.516 559.148,-194.741 561.962,-188.332"/>
</g>
<!-- Node20&#45;&gt;Node9 -->
<g id="edge33" class="edge"><title>Node20&#45;&gt;Node9</title>
<path fill="none" stroke="midnightblue" d="M667.138,-224.343C677.796,-216.134 692.97,-202.87 702,-188 710.677,-173.712 715.577,-155.243 718.218,-141.646"/>
<polygon fill="midnightblue" stroke="midnightblue" points="721.706,-142.016 719.939,-131.569 714.806,-140.837 721.706,-142.016"/>
</g>
<!-- Node20&#45;&gt;Node14 -->
<g id="edge35" class="edge"><title>Node20&#45;&gt;Node14</title>
<path fill="none" stroke="midnightblue" d="M655.165,-224.083C655.296,-217.006 655.484,-206.861 655.648,-197.986"/>
<polygon fill="midnightblue" stroke="midnightblue" points="659.152,-197.814 655.838,-187.751 652.153,-197.685 659.152,-197.814"/>
</g>
<!-- Node21&#45;&gt;Node6 -->
<g id="edge38" class="edge"><title>Node21&#45;&gt;Node6</title>
<path fill="none" stroke="midnightblue" d="M746.594,-224.444C699.232,-214.414 621.156,-197.88 573.378,-187.762"/>
<polygon fill="midnightblue" stroke="midnightblue" points="573.882,-184.292 563.374,-185.644 572.432,-191.14 573.882,-184.292"/>
</g>
<!-- Node21&#45;&gt;Node9 -->
<g id="edge37" class="edge"><title>Node21&#45;&gt;Node9</title>
<path fill="none" stroke="midnightblue" d="M781.821,-224.368C770.977,-206.296 745.706,-164.176 731.384,-140.307"/>
<polygon fill="midnightblue" stroke="midnightblue" points="734.301,-138.366 726.155,-131.591 728.299,-141.967 734.301,-138.366"/>
</g>
<!-- Node21&#45;&gt;Node14 -->
<g id="edge39" class="edge"><title>Node21&#45;&gt;Node14</title>
<path fill="none" stroke="midnightblue" d="M766.243,-224.444C744.684,-215.557 710.737,-201.563 686.206,-191.451"/>
<polygon fill="midnightblue" stroke="midnightblue" points="687.239,-188.092 676.66,-187.516 684.572,-194.563 687.239,-188.092"/>
</g>
</g>
</svg>
