<?xml version="1.0" encoding="UTF-8" standalone="no"?>
<!DOCTYPE svg PUBLIC "-//W3C//DTD SVG 1.1//EN"
 "http://www.w3.org/Graphics/SVG/1.1/DTD/svg11.dtd">
<!-- Generated by graphviz version 2.38.0 (20140413.2041)
 -->
<!-- Title: testEquality Pages: 1 -->
<svg width="383pt" height="47pt"
 viewBox="0.00 0.00 383.00 47.00" xmlns="http://www.w3.org/2000/svg" xmlns:xlink="http://www.w3.org/1999/xlink">
<g id="graph0" class="graph" transform="scale(1 1) rotate(0) translate(4 43)">
<title>testEquality</title>
<!-- Node36 -->
<g id="node1" class="node"><title>Node36</title>
<polygon fill="#bfbfbf" stroke="black" points="0,-0.5 0,-19.5 68,-19.5 68,-0.5 0,-0.5"/>
<text text-anchor="middle" x="34" y="-7.5" font-family="Helvetica,sans-Serif" font-size="10.00">testEquality</text>
</g>
<!-- Node37 -->
<g id="node2" class="node"><title>Node37</title>
<g id="a_node2"><a xlink:href="classGameState.html#a75e2a00378cd25343d7ff72e5a61a319" target="_top" xlink:title="Inequality operator for GameState. ">
<polygon fill="none" stroke="black" points="104,-19.5 104,-38.5 220,-38.5 220,-19.5 104,-19.5"/>
<text text-anchor="middle" x="162" y="-26.5" font-family="Helvetica,sans-Serif" font-size="10.00">GameState::operator!=</text>
</a>
</g>
</g>
<!-- Node36&#45;&gt;Node37 -->
<g id="edge1" class="edge"><title>Node36&#45;&gt;Node37</title>
<path fill="none" stroke="midnightblue" d="M68.105,-14.992C76.0514,-16.1903 84.8239,-17.5131 93.7107,-18.8532"/>
<polygon fill="midnightblue" stroke="midnightblue" points="93.3448,-22.3375 103.755,-20.3678 94.3886,-15.4158 93.3448,-22.3375"/>
</g>
<!-- Node38 -->
<g id="node3" class="node"><title>Node38</title>
<g id="a_node3"><a xlink:href="classGameState.html#a61ca1dbd9b96e464565cda5018b36e9f" target="_top" xlink:title="Checks whether two GameState objects are equal. ">
<polygon fill="none" stroke="black" points="256,-0.5 256,-19.5 375,-19.5 375,-0.5 256,-0.5"/>
<text text-anchor="middle" x="315.5" y="-7.5" font-family="Helvetica,sans-Serif" font-size="10.00">GameState::operator==</text>
</a>
</g>
</g>
<!-- Node36&#45;&gt;Node38 -->
<g id="edge3" class="edge"><title>Node36&#45;&gt;Node38</title>
<path fill="none" stroke="midnightblue" d="M68.1599,-10C111.653,-10 189.06,-10 245.524,-10"/>
<polygon fill="midnightblue" stroke="midnightblue" points="245.811,-13.5001 255.811,-10 245.81,-6.5001 245.811,-13.5001"/>
</g>
<!-- Node37&#45;&gt;Node38 -->
<g id="edge2" class="edge"><title>Node37&#45;&gt;Node38</title>
<path fill="none" stroke="midnightblue" d="M220.276,-21.8169C228.647,-20.767 237.339,-19.6769 245.908,-18.6023"/>
<polygon fill="midnightblue" stroke="midnightblue" points="246.397,-22.0685 255.884,-17.3512 245.526,-15.1229 246.397,-22.0685"/>
</g>
</g>
</svg>
