<?xml version="1.0" encoding="UTF-8" standalone="no"?>
<!DOCTYPE svg PUBLIC "-//W3C//DTD SVG 1.1//EN"
 "http://www.w3.org/Graphics/SVG/1.1/DTD/svg11.dtd">
<!-- Generated by graphviz version 2.38.0 (20140413.2041)
 -->
<!-- Title: testAllSolvers Pages: 1 -->
<svg width="451pt" height="563pt"
 viewBox="0.00 0.00 451.00 563.00" xmlns="http://www.w3.org/2000/svg" xmlns:xlink="http://www.w3.org/1999/xlink">
<g id="graph0" class="graph" transform="scale(1 1) rotate(0) translate(4 559)">
<title>testAllSolvers</title>
<!-- Node20 -->
<g id="node1" class="node"><title>Node20</title>
<polygon fill="#bfbfbf" stroke="black" points="0,-266.5 0,-285.5 77,-285.5 77,-266.5 0,-266.5"/>
<text text-anchor="middle" x="38.5" y="-273.5" font-family="Helvetica,sans-Serif" font-size="10.00">testAllSolvers</text>
</g>
<!-- Node21 -->
<g id="node2" class="node"><title>Node21</title>
<g id="a_node2"><a xlink:href="classGame.html#ad3adcd1c4d46c6412e1fd2958bb2f72b" target="_top" xlink:title="Creates a game representation and keeps a GameState of the goal state. ">
<polygon fill="none" stroke="black" points="146.5,-516.5 146.5,-535.5 221.5,-535.5 221.5,-516.5 146.5,-516.5"/>
<text text-anchor="middle" x="184" y="-523.5" font-family="Helvetica,sans-Serif" font-size="10.00">Game::Game</text>
</a>
</g>
</g>
<!-- Node20&#45;&gt;Node21 -->
<g id="edge1" class="edge"><title>Node20&#45;&gt;Node21</title>
<path fill="none" stroke="midnightblue" d="M39.4982,-285.563C40.0316,-320.647 46.7458,-443.536 113,-507 119.541,-513.266 127.933,-517.51 136.618,-520.375"/>
<polygon fill="midnightblue" stroke="midnightblue" points="135.899,-523.806 146.467,-523.057 137.738,-517.052 135.899,-523.806"/>
</g>
<!-- Node24 -->
<g id="node5" class="node"><title>Node24</title>
<g id="a_node5"><a xlink:href="classGreedySolver.html#aa0b9496b8cee2a122b811bf76283d687" target="_top" xlink:title="Explores the game tree in search of the goal state. ">
<polygon fill="none" stroke="black" points="131.5,-460.5 131.5,-479.5 236.5,-479.5 236.5,-460.5 131.5,-460.5"/>
<text text-anchor="middle" x="184" y="-467.5" font-family="Helvetica,sans-Serif" font-size="10.00">GreedySolver::solve</text>
</a>
</g>
</g>
<!-- Node20&#45;&gt;Node24 -->
<g id="edge4" class="edge"><title>Node20&#45;&gt;Node24</title>
<path fill="none" stroke="midnightblue" d="M40.6092,-285.654C44.526,-315.168 60.4376,-404.982 113,-451 115.819,-453.468 118.928,-455.618 122.221,-457.493"/>
<polygon fill="midnightblue" stroke="midnightblue" points="120.767,-460.677 131.298,-461.835 123.788,-454.362 120.767,-460.677"/>
</g>
<!-- Node25 -->
<g id="node6" class="node"><title>Node25</title>
<g id="a_node6"><a xlink:href="classGreedySolver.html#ae282b193cc99888abfef70d8c02bf9bb" target="_top" xlink:title="Initializes the solver. ">
<polygon fill="none" stroke="black" points="113.5,-422.5 113.5,-441.5 254.5,-441.5 254.5,-422.5 113.5,-422.5"/>
<text text-anchor="middle" x="184" y="-429.5" font-family="Helvetica,sans-Serif" font-size="10.00">GreedySolver::GreedySolver</text>
</a>
</g>
</g>
<!-- Node20&#45;&gt;Node25 -->
<g id="edge6" class="edge"><title>Node20&#45;&gt;Node25</title>
<path fill="none" stroke="midnightblue" d="M41.8353,-285.677C48.4058,-310.773 69.4767,-378.397 113,-413 115.264,-414.8 117.685,-416.43 120.217,-417.906"/>
<polygon fill="midnightblue" stroke="midnightblue" points="118.672,-421.046 129.186,-422.354 121.782,-414.775 118.672,-421.046"/>
</g>
<!-- Node26 -->
<g id="node7" class="node"><title>Node26</title>
<g id="a_node7"><a xlink:href="classAStarSolver.html#a803f85665550cc1e87d5d74d7b568204" target="_top" xlink:title="Explores the game tree in search of the goal state. ">
<polygon fill="none" stroke="black" points="135,-366.5 135,-385.5 233,-385.5 233,-366.5 135,-366.5"/>
<text text-anchor="middle" x="184" y="-373.5" font-family="Helvetica,sans-Serif" font-size="10.00">AStarSolver::solve</text>
</a>
</g>
</g>
<!-- Node20&#45;&gt;Node26 -->
<g id="edge7" class="edge"><title>Node20&#45;&gt;Node26</title>
<path fill="none" stroke="midnightblue" d="M45.5018,-285.618C56.6482,-302.666 82.2318,-338.158 113,-357 116.849,-359.357 120.993,-361.427 125.273,-363.243"/>
<polygon fill="midnightblue" stroke="midnightblue" points="124.208,-366.582 134.8,-366.828 126.673,-360.03 124.208,-366.582"/>
</g>
<!-- Node27 -->
<g id="node8" class="node"><title>Node27</title>
<g id="a_node8"><a xlink:href="classAStarSolver.html#ae8d48eac750a478780092c134b2d503b" target="_top" xlink:title="AStarSolver::AStarSolver">
<polygon fill="none" stroke="black" points="120,-328.5 120,-347.5 248,-347.5 248,-328.5 120,-328.5"/>
<text text-anchor="middle" x="184" y="-335.5" font-family="Helvetica,sans-Serif" font-size="10.00">AStarSolver::AStarSolver</text>
</a>
</g>
</g>
<!-- Node20&#45;&gt;Node27 -->
<g id="edge9" class="edge"><title>Node20&#45;&gt;Node27</title>
<path fill="none" stroke="midnightblue" d="M53.2852,-285.566C67.6389,-295.159 91.0512,-309.793 113,-319 118.715,-321.398 124.821,-323.575 130.954,-325.53"/>
<polygon fill="midnightblue" stroke="midnightblue" points="129.981,-328.892 140.565,-328.416 131.994,-322.187 129.981,-328.892"/>
</g>
<!-- Node28 -->
<g id="node9" class="node"><title>Node28</title>
<g id="a_node9"><a xlink:href="classHillClimbingSolver.html#a6c79ab5d993d3748c8e56dfa1e6d24e1" target="_top" xlink:title="Explores the game tree in search of the goal state. ">
<polygon fill="none" stroke="black" points="135.5,-261 135.5,-291 232.5,-291 232.5,-261 135.5,-261"/>
<text text-anchor="start" x="143.5" y="-279" font-family="Helvetica,sans-Serif" font-size="10.00">HillClimbingSolver</text>
<text text-anchor="middle" x="184" y="-268" font-family="Helvetica,sans-Serif" font-size="10.00">::solve</text>
</a>
</g>
</g>
<!-- Node20&#45;&gt;Node28 -->
<g id="edge10" class="edge"><title>Node20&#45;&gt;Node28</title>
<path fill="none" stroke="midnightblue" d="M77.2029,-276C91.7804,-276 108.799,-276 124.871,-276"/>
<polygon fill="midnightblue" stroke="midnightblue" points="125.26,-279.5 135.26,-276 125.26,-272.5 125.26,-279.5"/>
</g>
<!-- Node29 -->
<g id="node10" class="node"><title>Node29</title>
<g id="a_node10"><a xlink:href="classHillClimbingSolver.html#abea010329f62ba6488a9450b4f65961e" target="_top" xlink:title="Initializes a regular hill&#45;climbing 8&#45;puzzle solver. ">
<polygon fill="none" stroke="black" points="132.5,-212 132.5,-242 235.5,-242 235.5,-212 132.5,-212"/>
<text text-anchor="start" x="140.5" y="-230" font-family="Helvetica,sans-Serif" font-size="10.00">HillClimbingSolver</text>
<text text-anchor="middle" x="184" y="-219" font-family="Helvetica,sans-Serif" font-size="10.00">::HillClimbingSolver</text>
</a>
</g>
</g>
<!-- Node20&#45;&gt;Node29 -->
<g id="edge12" class="edge"><title>Node20&#45;&gt;Node29</title>
<path fill="none" stroke="midnightblue" d="M67.5089,-266.436C85.1211,-260.422 108.419,-252.467 129.475,-245.277"/>
<polygon fill="midnightblue" stroke="midnightblue" points="130.631,-248.581 138.963,-242.037 128.369,-241.956 130.631,-248.581"/>
</g>
<!-- Node30 -->
<g id="node11" class="node"><title>Node30</title>
<g id="a_node11"><a xlink:href="classBreadthFirstSolver.html#aa8003debc55fb72ac077ef0d0489071b" target="_top" xlink:title="Explores the game tree in search of the goal state. ">
<polygon fill="none" stroke="black" points="135,-145 135,-175 233,-175 233,-145 135,-145"/>
<text text-anchor="start" x="143" y="-163" font-family="Helvetica,sans-Serif" font-size="10.00">BreadthFirstSolver</text>
<text text-anchor="middle" x="184" y="-152" font-family="Helvetica,sans-Serif" font-size="10.00">::solve</text>
</a>
</g>
</g>
<!-- Node20&#45;&gt;Node30 -->
<g id="edge13" class="edge"><title>Node20&#45;&gt;Node30</title>
<path fill="none" stroke="midnightblue" d="M47.9244,-266.3C60.9763,-251.594 87.2713,-223.234 113,-203 123.35,-194.86 135.339,-186.999 146.438,-180.274"/>
<polygon fill="midnightblue" stroke="midnightblue" points="148.282,-183.25 155.1,-175.141 144.713,-177.228 148.282,-183.25"/>
</g>
<!-- Node31 -->
<g id="node12" class="node"><title>Node31</title>
<g id="a_node12"><a xlink:href="classDepthFirstSolver.html#a2809ff4fd495d915f4c02a1e1927ee15" target="_top" xlink:title="Explores the game tree in search of the goal state. ">
<polygon fill="none" stroke="black" points="124.5,-88.5 124.5,-107.5 243.5,-107.5 243.5,-88.5 124.5,-88.5"/>
<text text-anchor="middle" x="184" y="-95.5" font-family="Helvetica,sans-Serif" font-size="10.00">DepthFirstSolver::solve</text>
</a>
</g>
</g>
<!-- Node20&#45;&gt;Node31 -->
<g id="edge15" class="edge"><title>Node20&#45;&gt;Node31</title>
<path fill="none" stroke="midnightblue" d="M42.3841,-266.316C50.1236,-241.74 73.4845,-176.068 113,-136 122.904,-125.958 136.028,-117.885 148.235,-111.807"/>
<polygon fill="midnightblue" stroke="midnightblue" points="149.752,-114.961 157.321,-107.548 146.781,-108.623 149.752,-114.961"/>
</g>
<!-- Node32 -->
<g id="node13" class="node"><title>Node32</title>
<g id="a_node13"><a xlink:href="classDepthFirstSolver.html#a1305bcda181d52d52285f904b4a9007c" target="_top" xlink:title="DepthFirstSolver::DepthFirst\lSolver">
<polygon fill="none" stroke="black" points="113,-39 113,-69 255,-69 255,-39 113,-39"/>
<text text-anchor="start" x="121" y="-57" font-family="Helvetica,sans-Serif" font-size="10.00">DepthFirstSolver::DepthFirst</text>
<text text-anchor="middle" x="184" y="-46" font-family="Helvetica,sans-Serif" font-size="10.00">Solver</text>
</a>
</g>
</g>
<!-- Node20&#45;&gt;Node32 -->
<g id="edge17" class="edge"><title>Node20&#45;&gt;Node32</title>
<path fill="none" stroke="midnightblue" d="M40.2942,-266.261C43.3865,-234.659 57.374,-133.848 113,-79 114.605,-77.4173 116.317,-75.9341 118.114,-74.5443"/>
<polygon fill="midnightblue" stroke="midnightblue" points="120.05,-77.46 126.467,-69.0296 116.194,-71.6183 120.05,-77.46"/>
</g>
<!-- Node33 -->
<g id="node14" class="node"><title>Node33</title>
<g id="a_node14"><a xlink:href="main_8cpp.html#ab5ab5ac71f432f7a8ec5a553a3116091" target="_top" xlink:title="Generic function to test a single solver and print its output. ">
<polygon fill="none" stroke="black" points="140,-0.5 140,-19.5 228,-19.5 228,-0.5 140,-0.5"/>
<text text-anchor="middle" x="184" y="-7.5" font-family="Helvetica,sans-Serif" font-size="10.00">testSingleSolver</text>
</a>
</g>
</g>
<!-- Node20&#45;&gt;Node33 -->
<g id="edge18" class="edge"><title>Node20&#45;&gt;Node33</title>
<path fill="none" stroke="midnightblue" d="M39.3106,-266.369C39.1383,-229.862 43.5603,-98.6088 113,-30 117.893,-25.1656 123.869,-21.4828 130.247,-18.6804"/>
<polygon fill="midnightblue" stroke="midnightblue" points="131.618,-21.9055 139.798,-15.173 129.205,-15.3345 131.618,-21.9055"/>
</g>
<!-- Node22 -->
<g id="node3" class="node"><title>Node22</title>
<g id="a_node3"><a xlink:href="classGameState.html#a4fa0a2bf50315c4a35a3890a0adcee5c" target="_top" xlink:title="Default constructor, everything starts as 0 or NULL. ">
<polygon fill="none" stroke="black" points="306,-535.5 306,-554.5 428,-554.5 428,-535.5 306,-535.5"/>
<text text-anchor="middle" x="367" y="-542.5" font-family="Helvetica,sans-Serif" font-size="10.00">GameState::GameState</text>
</a>
</g>
</g>
<!-- Node21&#45;&gt;Node22 -->
<g id="edge2" class="edge"><title>Node21&#45;&gt;Node22</title>
<path fill="none" stroke="midnightblue" d="M221.628,-529.845C242.967,-532.085 270.589,-534.985 295.95,-537.647"/>
<polygon fill="midnightblue" stroke="midnightblue" points="295.6,-541.129 305.91,-538.692 296.33,-534.167 295.6,-541.129"/>
</g>
<!-- Node23 -->
<g id="node4" class="node"><title>Node23</title>
<g id="a_node4"><a xlink:href="classGameState.html#a6fab869a6c4f80df3837849b8252aa1d" target="_top" xlink:title="GameState::setRepresentation">
<polygon fill="none" stroke="black" points="291,-497.5 291,-516.5 443,-516.5 443,-497.5 291,-497.5"/>
<text text-anchor="middle" x="367" y="-504.5" font-family="Helvetica,sans-Serif" font-size="10.00">GameState::setRepresentation</text>
</a>
</g>
</g>
<!-- Node21&#45;&gt;Node23 -->
<g id="edge3" class="edge"><title>Node21&#45;&gt;Node23</title>
<path fill="none" stroke="midnightblue" d="M221.628,-522.155C238.761,-520.357 259.944,-518.133 280.755,-515.948"/>
<polygon fill="midnightblue" stroke="midnightblue" points="281.343,-519.406 290.923,-514.881 280.612,-512.444 281.343,-519.406"/>
</g>
<!-- Node24&#45;&gt;Node24 -->
<g id="edge5" class="edge"><title>Node24&#45;&gt;Node24</title>
<path fill="none" stroke="midnightblue" d="M161.805,-479.757C151.008,-488.565 158.406,-498 184,-498 200.796,-498 209.756,-493.937 210.879,-488.654"/>
<polygon fill="midnightblue" stroke="midnightblue" points="213.951,-486.975 206.195,-479.757 207.757,-490.236 213.951,-486.975"/>
</g>
<!-- Node26&#45;&gt;Node26 -->
<g id="edge8" class="edge"><title>Node26&#45;&gt;Node26</title>
<path fill="none" stroke="midnightblue" d="M161.805,-385.757C151.008,-394.565 158.406,-404 184,-404 200.796,-404 209.756,-399.937 210.879,-394.654"/>
<polygon fill="midnightblue" stroke="midnightblue" points="213.951,-392.975 206.195,-385.757 207.757,-396.236 213.951,-392.975"/>
</g>
<!-- Node28&#45;&gt;Node28 -->
<g id="edge11" class="edge"><title>Node28&#45;&gt;Node28</title>
<path fill="none" stroke="midnightblue" d="M158.905,-291.159C152.854,-300.557 161.219,-309.5 184,-309.5 197.882,-309.5 206.411,-306.179 209.587,-301.458"/>
<polygon fill="midnightblue" stroke="midnightblue" points="213.068,-300.981 209.095,-291.159 206.076,-301.315 213.068,-300.981"/>
</g>
<!-- Node30&#45;&gt;Node30 -->
<g id="edge14" class="edge"><title>Node30&#45;&gt;Node30</title>
<path fill="none" stroke="midnightblue" d="M158.905,-175.159C152.854,-184.557 161.219,-193.5 184,-193.5 197.882,-193.5 206.411,-190.179 209.587,-185.458"/>
<polygon fill="midnightblue" stroke="midnightblue" points="213.068,-184.981 209.095,-175.159 206.076,-185.315 213.068,-184.981"/>
</g>
<!-- Node31&#45;&gt;Node31 -->
<g id="edge16" class="edge"><title>Node31&#45;&gt;Node31</title>
<path fill="none" stroke="midnightblue" d="M161.805,-107.757C151.008,-116.565 158.406,-126 184,-126 200.796,-126 209.756,-121.937 210.879,-116.654"/>
<polygon fill="midnightblue" stroke="midnightblue" points="213.951,-114.975 206.195,-107.757 207.757,-118.236 213.951,-114.975"/>
</g>
</g>
</svg>
