<?xml version="1.0" encoding="UTF-8" standalone="no"?>
<!DOCTYPE svg PUBLIC "-//W3C//DTD SVG 1.1//EN"
 "http://www.w3.org/Graphics/SVG/1.1/DTD/svg11.dtd">
<!-- Generated by graphviz version 2.38.0 (20140413.2041)
 -->
<!-- Title: include/MonteCarloSolver.hpp Pages: 1 -->
<svg width="412pt" height="252pt"
 viewBox="0.00 0.00 411.50 252.00" xmlns="http://www.w3.org/2000/svg" xmlns:xlink="http://www.w3.org/1999/xlink">
<g id="graph0" class="graph" transform="scale(1 1) rotate(0) translate(4 248)">
<title>include/MonteCarloSolver.hpp</title>
<!-- Node0 -->
<g id="node1" class="node"><title>Node0</title>
<polygon fill="#bfbfbf" stroke="black" points="132.5,-224.5 132.5,-243.5 279.5,-243.5 279.5,-224.5 132.5,-224.5"/>
<text text-anchor="middle" x="206" y="-231.5" font-family="Helvetica,sans-Serif" font-size="10.00">include/MonteCarloSolver.hpp</text>
</g>
<!-- Node1 -->
<g id="node2" class="node"><title>Node1</title>
<polygon fill="none" stroke="#bfbfbf" points="0,-112.5 0,-131.5 86,-131.5 86,-112.5 0,-112.5"/>
<text text-anchor="middle" x="43" y="-119.5" font-family="Helvetica,sans-Serif" font-size="10.00">OrderedList.hpp</text>
</g>
<!-- Node0&#45;&gt;Node1 -->
<g id="edge1" class="edge"><title>Node0&#45;&gt;Node1</title>
<path fill="none" stroke="midnightblue" d="M193.21,-224.368C165.239,-205.492 98.3977,-160.385 64.0962,-137.237"/>
<polygon fill="midnightblue" stroke="midnightblue" points="65.9779,-134.284 55.7309,-131.591 62.0622,-140.087 65.9779,-134.284"/>
</g>
<!-- Node2 -->
<g id="node3" class="node"><title>Node2</title>
<g id="a_node3"><a xlink:href="Solver_8hpp.html" target="_top" xlink:title="Solver.hpp">
<polygon fill="none" stroke="black" points="175,-168.5 175,-187.5 237,-187.5 237,-168.5 175,-168.5"/>
<text text-anchor="middle" x="206" y="-175.5" font-family="Helvetica,sans-Serif" font-size="10.00">Solver.hpp</text>
</a>
</g>
</g>
<!-- Node0&#45;&gt;Node2 -->
<g id="edge2" class="edge"><title>Node0&#45;&gt;Node2</title>
<path fill="none" stroke="midnightblue" d="M206,-224.083C206,-217.006 206,-206.861 206,-197.986"/>
<polygon fill="midnightblue" stroke="midnightblue" points="209.5,-197.751 206,-187.751 202.5,-197.751 209.5,-197.751"/>
</g>
<!-- Node10 -->
<g id="node11" class="node"><title>Node10</title>
<g id="a_node11"><a xlink:href="Heuristic_8hpp.html" target="_top" xlink:title="Heuristic.hpp">
<polygon fill="none" stroke="black" points="275,-168.5 275,-187.5 349,-187.5 349,-168.5 275,-168.5"/>
<text text-anchor="middle" x="312" y="-175.5" font-family="Helvetica,sans-Serif" font-size="10.00">Heuristic.hpp</text>
</a>
</g>
</g>
<!-- Node0&#45;&gt;Node10 -->
<g id="edge13" class="edge"><title>Node0&#45;&gt;Node10</title>
<path fill="none" stroke="midnightblue" d="M223.031,-224.324C240.03,-215.664 266.376,-202.242 285.993,-192.249"/>
<polygon fill="midnightblue" stroke="midnightblue" points="287.69,-195.312 295.012,-187.655 284.512,-189.075 287.69,-195.312"/>
</g>
<!-- Node2&#45;&gt;Node1 -->
<g id="edge5" class="edge"><title>Node2&#45;&gt;Node1</title>
<path fill="none" stroke="midnightblue" d="M180.172,-168.444C152.751,-159.359 109.223,-144.939 78.5676,-134.783"/>
<polygon fill="midnightblue" stroke="midnightblue" points="79.3003,-131.339 68.707,-131.516 77.0989,-137.984 79.3003,-131.339"/>
</g>
<!-- Node3 -->
<g id="node4" class="node"><title>Node3</title>
<polygon fill="none" stroke="#bfbfbf" points="104,-112.5 104,-131.5 148,-131.5 148,-112.5 104,-112.5"/>
<text text-anchor="middle" x="126" y="-119.5" font-family="Helvetica,sans-Serif" font-size="10.00">time.h</text>
</g>
<!-- Node2&#45;&gt;Node3 -->
<g id="edge3" class="edge"><title>Node2&#45;&gt;Node3</title>
<path fill="none" stroke="midnightblue" d="M193.147,-168.324C180.784,-159.979 161.87,-147.212 147.263,-137.352"/>
<polygon fill="midnightblue" stroke="midnightblue" points="149.068,-134.348 138.821,-131.655 145.152,-140.15 149.068,-134.348"/>
</g>
<!-- Node4 -->
<g id="node5" class="node"><title>Node4</title>
<polygon fill="none" stroke="#bfbfbf" points="166,-112.5 166,-131.5 246,-131.5 246,-112.5 166,-112.5"/>
<text text-anchor="middle" x="206" y="-119.5" font-family="Helvetica,sans-Serif" font-size="10.00">LinkedList.hpp</text>
</g>
<!-- Node2&#45;&gt;Node4 -->
<g id="edge4" class="edge"><title>Node2&#45;&gt;Node4</title>
<path fill="none" stroke="midnightblue" d="M206,-168.083C206,-161.006 206,-150.861 206,-141.986"/>
<polygon fill="midnightblue" stroke="midnightblue" points="209.5,-141.751 206,-131.751 202.5,-141.751 209.5,-141.751"/>
</g>
<!-- Node5 -->
<g id="node6" class="node"><title>Node5</title>
<g id="a_node6"><a xlink:href="GameState_8hpp.html" target="_top" xlink:title="GameState.hpp">
<polygon fill="none" stroke="black" points="231.5,-56.5 231.5,-75.5 316.5,-75.5 316.5,-56.5 231.5,-56.5"/>
<text text-anchor="middle" x="274" y="-63.5" font-family="Helvetica,sans-Serif" font-size="10.00">GameState.hpp</text>
</a>
</g>
</g>
<!-- Node2&#45;&gt;Node5 -->
<g id="edge6" class="edge"><title>Node2&#45;&gt;Node5</title>
<path fill="none" stroke="midnightblue" d="M218.666,-168.456C229.785,-160.322 245.61,-147.106 255,-132 263.825,-117.802 268.708,-99.3242 271.306,-85.7002"/>
<polygon fill="midnightblue" stroke="midnightblue" points="274.798,-86.0372 272.987,-75.5983 267.893,-84.8882 274.798,-86.0372"/>
</g>
<!-- Node9 -->
<g id="node10" class="node"><title>Node9</title>
<g id="a_node10"><a xlink:href="Game_8hpp.html" target="_top" xlink:title="Game.hpp">
<polygon fill="none" stroke="black" points="302,-112.5 302,-131.5 364,-131.5 364,-112.5 302,-112.5"/>
<text text-anchor="middle" x="333" y="-119.5" font-family="Helvetica,sans-Serif" font-size="10.00">Game.hpp</text>
</a>
</g>
</g>
<!-- Node2&#45;&gt;Node9 -->
<g id="edge10" class="edge"><title>Node2&#45;&gt;Node9</title>
<path fill="none" stroke="midnightblue" d="M226.124,-168.444C247.024,-159.557 279.935,-145.563 303.716,-135.451"/>
<polygon fill="midnightblue" stroke="midnightblue" points="305.138,-138.65 312.971,-131.516 302.398,-132.208 305.138,-138.65"/>
</g>
<!-- Node6 -->
<g id="node7" class="node"><title>Node6</title>
<polygon fill="none" stroke="#bfbfbf" points="182.5,-0.5 182.5,-19.5 223.5,-19.5 223.5,-0.5 182.5,-0.5"/>
<text text-anchor="middle" x="203" y="-7.5" font-family="Helvetica,sans-Serif" font-size="10.00">string</text>
</g>
<!-- Node5&#45;&gt;Node6 -->
<g id="edge7" class="edge"><title>Node5&#45;&gt;Node6</title>
<path fill="none" stroke="midnightblue" d="M262.593,-56.324C251.891,-48.1849 235.659,-35.8395 222.837,-26.0874"/>
<polygon fill="midnightblue" stroke="midnightblue" points="224.693,-23.1018 214.615,-19.8339 220.456,-28.6734 224.693,-23.1018"/>
</g>
<!-- Node7 -->
<g id="node8" class="node"><title>Node7</title>
<polygon fill="none" stroke="#bfbfbf" points="242,-0.5 242,-19.5 296,-19.5 296,-0.5 242,-0.5"/>
<text text-anchor="middle" x="269" y="-7.5" font-family="Helvetica,sans-Serif" font-size="10.00">iostream</text>
</g>
<!-- Node5&#45;&gt;Node7 -->
<g id="edge8" class="edge"><title>Node5&#45;&gt;Node7</title>
<path fill="none" stroke="midnightblue" d="M273.174,-56.083C272.519,-49.0059 271.58,-38.8611 270.758,-29.9865"/>
<polygon fill="midnightblue" stroke="midnightblue" points="274.217,-29.3858 269.81,-19.7511 267.247,-30.0312 274.217,-29.3858"/>
</g>
<!-- Node8 -->
<g id="node9" class="node"><title>Node8</title>
<g id="a_node9"><a xlink:href="GameAction_8hpp.html" target="_top" xlink:title="GameAction.hpp">
<polygon fill="none" stroke="black" points="314.5,-0.5 314.5,-19.5 403.5,-19.5 403.5,-0.5 314.5,-0.5"/>
<text text-anchor="middle" x="359" y="-7.5" font-family="Helvetica,sans-Serif" font-size="10.00">GameAction.hpp</text>
</a>
</g>
</g>
<!-- Node5&#45;&gt;Node8 -->
<g id="edge9" class="edge"><title>Node5&#45;&gt;Node8</title>
<path fill="none" stroke="midnightblue" d="M287.657,-56.324C300.916,-47.9002 321.268,-34.9709 336.846,-25.0741"/>
<polygon fill="midnightblue" stroke="midnightblue" points="338.813,-27.9711 345.377,-19.6545 335.06,-22.0626 338.813,-27.9711"/>
</g>
<!-- Node9&#45;&gt;Node5 -->
<g id="edge11" class="edge"><title>Node9&#45;&gt;Node5</title>
<path fill="none" stroke="midnightblue" d="M323.521,-112.324C314.799,-104.341 301.657,-92.3128 291.102,-82.6529"/>
<polygon fill="midnightblue" stroke="midnightblue" points="293.392,-80.0036 283.652,-75.8339 288.666,-85.1674 293.392,-80.0036"/>
</g>
<!-- Node9&#45;&gt;Node8 -->
<g id="edge12" class="edge"><title>Node9&#45;&gt;Node8</title>
<path fill="none" stroke="midnightblue" d="M335.04,-112.368C339.236,-94.617 348.915,-53.6664 354.604,-29.5974"/>
<polygon fill="midnightblue" stroke="midnightblue" points="358.075,-30.1284 356.969,-19.5914 351.263,-28.5182 358.075,-30.1284"/>
</g>
<!-- Node10&#45;&gt;Node9 -->
<g id="edge14" class="edge"><title>Node10&#45;&gt;Node9</title>
<path fill="none" stroke="midnightblue" d="M315.468,-168.083C318.312,-160.77 322.429,-150.181 325.96,-141.103"/>
<polygon fill="midnightblue" stroke="midnightblue" points="329.234,-142.34 329.597,-131.751 322.71,-139.803 329.234,-142.34"/>
</g>
</g>
</svg>
