<?xml version="1.0" encoding="UTF-8" standalone="no"?>
<!DOCTYPE svg PUBLIC "-//W3C//DTD SVG 1.1//EN"
 "http://www.w3.org/Graphics/SVG/1.1/DTD/svg11.dtd">
<!-- Generated by graphviz version 2.38.0 (20140413.2041)
 -->
<!-- Title: include/Solver.hpp Pages: 1 -->
<svg width="412pt" height="196pt"
 viewBox="0.00 0.00 411.50 196.00" xmlns="http://www.w3.org/2000/svg" xmlns:xlink="http://www.w3.org/1999/xlink">
<g id="graph0" class="graph" transform="scale(1 1) rotate(0) translate(4 192)">
<title>include/Solver.hpp</title>
<!-- Node0 -->
<g id="node1" class="node"><title>Node0</title>
<polygon fill="#bfbfbf" stroke="black" points="155,-168.5 155,-187.5 251,-187.5 251,-168.5 155,-168.5"/>
<text text-anchor="middle" x="203" y="-175.5" font-family="Helvetica,sans-Serif" font-size="10.00">include/Solver.hpp</text>
</g>
<!-- Node1 -->
<g id="node2" class="node"><title>Node1</title>
<polygon fill="none" stroke="#bfbfbf" points="-3.55271e-15,-112.5 -3.55271e-15,-131.5 44,-131.5 44,-112.5 -3.55271e-15,-112.5"/>
<text text-anchor="middle" x="22" y="-119.5" font-family="Helvetica,sans-Serif" font-size="10.00">time.h</text>
</g>
<!-- Node0&#45;&gt;Node1 -->
<g id="edge1" class="edge"><title>Node0&#45;&gt;Node1</title>
<path fill="none" stroke="midnightblue" d="M174.32,-168.444C141.618,-158.687 88.2875,-142.776 54.1897,-132.604"/>
<polygon fill="midnightblue" stroke="midnightblue" points="54.8525,-129.149 44.2692,-129.644 52.8512,-135.857 54.8525,-129.149"/>
</g>
<!-- Node2 -->
<g id="node3" class="node"><title>Node2</title>
<polygon fill="none" stroke="#bfbfbf" points="62,-112.5 62,-131.5 142,-131.5 142,-112.5 62,-112.5"/>
<text text-anchor="middle" x="102" y="-119.5" font-family="Helvetica,sans-Serif" font-size="10.00">LinkedList.hpp</text>
</g>
<!-- Node0&#45;&gt;Node2 -->
<g id="edge2" class="edge"><title>Node0&#45;&gt;Node2</title>
<path fill="none" stroke="midnightblue" d="M186.773,-168.324C170.649,-159.703 145.7,-146.364 127.036,-136.386"/>
<polygon fill="midnightblue" stroke="midnightblue" points="128.656,-133.283 118.187,-131.655 125.356,-139.456 128.656,-133.283"/>
</g>
<!-- Node3 -->
<g id="node4" class="node"><title>Node3</title>
<polygon fill="none" stroke="#bfbfbf" points="160,-112.5 160,-131.5 246,-131.5 246,-112.5 160,-112.5"/>
<text text-anchor="middle" x="203" y="-119.5" font-family="Helvetica,sans-Serif" font-size="10.00">OrderedList.hpp</text>
</g>
<!-- Node0&#45;&gt;Node3 -->
<g id="edge3" class="edge"><title>Node0&#45;&gt;Node3</title>
<path fill="none" stroke="midnightblue" d="M203,-168.083C203,-161.006 203,-150.861 203,-141.986"/>
<polygon fill="midnightblue" stroke="midnightblue" points="206.5,-141.751 203,-131.751 199.5,-141.751 206.5,-141.751"/>
</g>
<!-- Node4 -->
<g id="node5" class="node"><title>Node4</title>
<g id="a_node5"><a xlink:href="GameState_8hpp.html" target="_top" xlink:title="GameState.hpp">
<polygon fill="none" stroke="black" points="231.5,-56.5 231.5,-75.5 316.5,-75.5 316.5,-56.5 231.5,-56.5"/>
<text text-anchor="middle" x="274" y="-63.5" font-family="Helvetica,sans-Serif" font-size="10.00">GameState.hpp</text>
</a>
</g>
</g>
<!-- Node0&#45;&gt;Node4 -->
<g id="edge4" class="edge"><title>Node0&#45;&gt;Node4</title>
<path fill="none" stroke="midnightblue" d="M216.918,-168.314C228.7,-160.27 245.193,-147.269 255,-132 264.034,-117.934 268.894,-99.4414 271.43,-85.7783"/>
<polygon fill="midnightblue" stroke="midnightblue" points="274.928,-86.0684 273.054,-75.6406 268.016,-84.961 274.928,-86.0684"/>
</g>
<!-- Node8 -->
<g id="node9" class="node"><title>Node8</title>
<g id="a_node9"><a xlink:href="Game_8hpp.html" target="_top" xlink:title="Game.hpp">
<polygon fill="none" stroke="black" points="302,-112.5 302,-131.5 364,-131.5 364,-112.5 302,-112.5"/>
<text text-anchor="middle" x="333" y="-119.5" font-family="Helvetica,sans-Serif" font-size="10.00">Game.hpp</text>
</a>
</g>
</g>
<!-- Node0&#45;&gt;Node8 -->
<g id="edge8" class="edge"><title>Node0&#45;&gt;Node8</title>
<path fill="none" stroke="midnightblue" d="M223.599,-168.444C244.993,-159.557 278.681,-145.563 303.024,-135.451"/>
<polygon fill="midnightblue" stroke="midnightblue" points="304.605,-138.585 312.497,-131.516 301.92,-132.12 304.605,-138.585"/>
</g>
<!-- Node5 -->
<g id="node6" class="node"><title>Node5</title>
<polygon fill="none" stroke="#bfbfbf" points="182.5,-0.5 182.5,-19.5 223.5,-19.5 223.5,-0.5 182.5,-0.5"/>
<text text-anchor="middle" x="203" y="-7.5" font-family="Helvetica,sans-Serif" font-size="10.00">string</text>
</g>
<!-- Node4&#45;&gt;Node5 -->
<g id="edge5" class="edge"><title>Node4&#45;&gt;Node5</title>
<path fill="none" stroke="midnightblue" d="M262.593,-56.324C251.891,-48.1849 235.659,-35.8395 222.837,-26.0874"/>
<polygon fill="midnightblue" stroke="midnightblue" points="224.693,-23.1018 214.615,-19.8339 220.456,-28.6734 224.693,-23.1018"/>
</g>
<!-- Node6 -->
<g id="node7" class="node"><title>Node6</title>
<polygon fill="none" stroke="#bfbfbf" points="242,-0.5 242,-19.5 296,-19.5 296,-0.5 242,-0.5"/>
<text text-anchor="middle" x="269" y="-7.5" font-family="Helvetica,sans-Serif" font-size="10.00">iostream</text>
</g>
<!-- Node4&#45;&gt;Node6 -->
<g id="edge6" class="edge"><title>Node4&#45;&gt;Node6</title>
<path fill="none" stroke="midnightblue" d="M273.174,-56.083C272.519,-49.0059 271.58,-38.8611 270.758,-29.9865"/>
<polygon fill="midnightblue" stroke="midnightblue" points="274.217,-29.3858 269.81,-19.7511 267.247,-30.0312 274.217,-29.3858"/>
</g>
<!-- Node7 -->
<g id="node8" class="node"><title>Node7</title>
<g id="a_node8"><a xlink:href="GameAction_8hpp.html" target="_top" xlink:title="GameAction.hpp">
<polygon fill="none" stroke="black" points="314.5,-0.5 314.5,-19.5 403.5,-19.5 403.5,-0.5 314.5,-0.5"/>
<text text-anchor="middle" x="359" y="-7.5" font-family="Helvetica,sans-Serif" font-size="10.00">GameAction.hpp</text>
</a>
</g>
</g>
<!-- Node4&#45;&gt;Node7 -->
<g id="edge7" class="edge"><title>Node4&#45;&gt;Node7</title>
<path fill="none" stroke="midnightblue" d="M287.657,-56.324C300.916,-47.9002 321.268,-34.9709 336.846,-25.0741"/>
<polygon fill="midnightblue" stroke="midnightblue" points="338.813,-27.9711 345.377,-19.6545 335.06,-22.0626 338.813,-27.9711"/>
</g>
<!-- Node8&#45;&gt;Node4 -->
<g id="edge9" class="edge"><title>Node8&#45;&gt;Node4</title>
<path fill="none" stroke="midnightblue" d="M323.521,-112.324C314.799,-104.341 301.657,-92.3128 291.102,-82.6529"/>
<polygon fill="midnightblue" stroke="midnightblue" points="293.392,-80.0036 283.652,-75.8339 288.666,-85.1674 293.392,-80.0036"/>
</g>
<!-- Node8&#45;&gt;Node7 -->
<g id="edge10" class="edge"><title>Node8&#45;&gt;Node7</title>
<path fill="none" stroke="midnightblue" d="M335.04,-112.368C339.236,-94.617 348.915,-53.6664 354.604,-29.5974"/>
<polygon fill="midnightblue" stroke="midnightblue" points="358.075,-30.1284 356.969,-19.5914 351.263,-28.5182 358.075,-30.1284"/>
</g>
</g>
</svg>
