<?xml version="1.0" encoding="UTF-8" standalone="no"?>
<!DOCTYPE svg PUBLIC "-//W3C//DTD SVG 1.1//EN"
 "http://www.w3.org/Graphics/SVG/1.1/DTD/svg11.dtd">
<!-- Generated by graphviz version 2.38.0 (20140413.2041)
 -->
<!-- Title: include/Solver.hpp Pages: 1 -->
<svg width="936pt" height="140pt"
 viewBox="0.00 0.00 936.00 140.00" xmlns="http://www.w3.org/2000/svg" xmlns:xlink="http://www.w3.org/1999/xlink">
<g id="graph0" class="graph" transform="scale(1 1) rotate(0) translate(4 136)">
<title>include/Solver.hpp</title>
<!-- Node9 -->
<g id="node1" class="node"><title>Node9</title>
<polygon fill="#bfbfbf" stroke="black" points="404.5,-112.5 404.5,-131.5 500.5,-131.5 500.5,-112.5 404.5,-112.5"/>
<text text-anchor="middle" x="452.5" y="-119.5" font-family="Helvetica,sans-Serif" font-size="10.00">include/Solver.hpp</text>
</g>
<!-- Node10 -->
<g id="node2" class="node"><title>Node10</title>
<g id="a_node2"><a xlink:href="AStarSolver_8hpp.html" target="_top" xlink:title="include/AStarSolver.hpp">
<polygon fill="none" stroke="black" points="0,-56.5 0,-75.5 121,-75.5 121,-56.5 0,-56.5"/>
<text text-anchor="middle" x="60.5" y="-63.5" font-family="Helvetica,sans-Serif" font-size="10.00">include/AStarSolver.hpp</text>
</a>
</g>
</g>
<!-- Node9&#45;&gt;Node10 -->
<g id="edge1" class="edge"><title>Node9&#45;&gt;Node10</title>
<path fill="none" stroke="midnightblue" d="M394.45,-113.003C321.166,-102.908 195.695,-85.6238 121.186,-75.3598"/>
<polygon fill="midnightblue" stroke="midnightblue" points="394.049,-116.481 404.433,-114.379 395.004,-109.547 394.049,-116.481"/>
</g>
<!-- Node12 -->
<g id="node4" class="node"><title>Node12</title>
<g id="a_node4"><a xlink:href="DepthFirstSolver_8hpp.html" target="_top" xlink:title="include/DepthFirstSolver.hpp">
<polygon fill="none" stroke="black" points="139.5,-56.5 139.5,-75.5 281.5,-75.5 281.5,-56.5 139.5,-56.5"/>
<text text-anchor="middle" x="210.5" y="-63.5" font-family="Helvetica,sans-Serif" font-size="10.00">include/DepthFirstSolver.hpp</text>
</a>
</g>
</g>
<!-- Node9&#45;&gt;Node12 -->
<g id="edge3" class="edge"><title>Node9&#45;&gt;Node12</title>
<path fill="none" stroke="midnightblue" d="M404.177,-110.217C358.449,-100.013 290.721,-84.9006 248.666,-75.5164"/>
<polygon fill="midnightblue" stroke="midnightblue" points="403.632,-113.682 414.154,-112.444 405.157,-106.85 403.632,-113.682"/>
</g>
<!-- Node13 -->
<g id="node5" class="node"><title>Node13</title>
<g id="a_node5"><a xlink:href="BreadthFirstSolver_8hpp.html" target="_top" xlink:title="include/BreadthFirstSolver.hpp">
<polygon fill="none" stroke="black" points="299.5,-56.5 299.5,-75.5 449.5,-75.5 449.5,-56.5 299.5,-56.5"/>
<text text-anchor="middle" x="374.5" y="-63.5" font-family="Helvetica,sans-Serif" font-size="10.00">include/BreadthFirstSolver.hpp</text>
</a>
</g>
</g>
<!-- Node9&#45;&gt;Node13 -->
<g id="edge5" class="edge"><title>Node9&#45;&gt;Node13</title>
<path fill="none" stroke="midnightblue" d="M431.732,-106.622C417.483,-96.7574 399.044,-83.9919 387.001,-75.6545"/>
<polygon fill="midnightblue" stroke="midnightblue" points="429.754,-109.51 439.968,-112.324 433.738,-103.754 429.754,-109.51"/>
</g>
<!-- Node14 -->
<g id="node6" class="node"><title>Node14</title>
<g id="a_node6"><a xlink:href="GreedySolver_8hpp.html" target="_top" xlink:title="include/GreedySolver.hpp">
<polygon fill="none" stroke="black" points="467.5,-56.5 467.5,-75.5 595.5,-75.5 595.5,-56.5 467.5,-56.5"/>
<text text-anchor="middle" x="531.5" y="-63.5" font-family="Helvetica,sans-Serif" font-size="10.00">include/GreedySolver.hpp</text>
</a>
</g>
</g>
<!-- Node9&#45;&gt;Node14 -->
<g id="edge7" class="edge"><title>Node9&#45;&gt;Node14</title>
<path fill="none" stroke="midnightblue" d="M473.534,-106.622C487.966,-96.7574 506.641,-83.9919 518.839,-75.6545"/>
<polygon fill="midnightblue" stroke="midnightblue" points="471.473,-103.791 465.193,-112.324 475.423,-109.57 471.473,-103.791"/>
</g>
<!-- Node15 -->
<g id="node7" class="node"><title>Node15</title>
<g id="a_node7"><a xlink:href="HillClimbingSolver_8hpp.html" target="_top" xlink:title="include/HillClimbingSolver.hpp">
<polygon fill="none" stroke="black" points="614,-56.5 614,-75.5 763,-75.5 763,-56.5 614,-56.5"/>
<text text-anchor="middle" x="688.5" y="-63.5" font-family="Helvetica,sans-Serif" font-size="10.00">include/HillClimbingSolver.hpp</text>
</a>
</g>
</g>
<!-- Node9&#45;&gt;Node15 -->
<g id="edge9" class="edge"><title>Node9&#45;&gt;Node15</title>
<path fill="none" stroke="midnightblue" d="M499.906,-110.153C544.497,-99.95 610.354,-84.8809 651.28,-75.5164"/>
<polygon fill="midnightblue" stroke="midnightblue" points="498.862,-106.801 489.895,-112.444 500.424,-113.625 498.862,-106.801"/>
</g>
<!-- Node16 -->
<g id="node8" class="node"><title>Node16</title>
<g id="a_node8"><a xlink:href="MonteCarloSolver_8hpp.html" target="_top" xlink:title="include/MonteCarloSolver.hpp">
<polygon fill="none" stroke="black" points="781,-56.5 781,-75.5 928,-75.5 928,-56.5 781,-56.5"/>
<text text-anchor="middle" x="854.5" y="-63.5" font-family="Helvetica,sans-Serif" font-size="10.00">include/MonteCarloSolver.hpp</text>
</a>
</g>
</g>
<!-- Node9&#45;&gt;Node16 -->
<g id="edge11" class="edge"><title>Node9&#45;&gt;Node16</title>
<path fill="none" stroke="midnightblue" d="M510.747,-113.176C585.349,-103.155 714.171,-85.8502 791.152,-75.5095"/>
<polygon fill="midnightblue" stroke="midnightblue" points="510.036,-109.74 500.591,-114.54 510.968,-116.677 510.036,-109.74"/>
</g>
<!-- Node11 -->
<g id="node3" class="node"><title>Node11</title>
<g id="a_node3"><a xlink:href="main_8cpp.html" target="_top" xlink:title="test/main.cpp">
<polygon fill="none" stroke="black" points="414.5,-0.5 414.5,-19.5 490.5,-19.5 490.5,-0.5 414.5,-0.5"/>
<text text-anchor="middle" x="452.5" y="-7.5" font-family="Helvetica,sans-Serif" font-size="10.00">test/main.cpp</text>
</a>
</g>
</g>
<!-- Node10&#45;&gt;Node11 -->
<g id="edge2" class="edge"><title>Node10&#45;&gt;Node11</title>
<path fill="none" stroke="midnightblue" d="M131.435,-55.2284C214.486,-43.7876 348.988,-25.2594 414.376,-16.2518"/>
<polygon fill="midnightblue" stroke="midnightblue" points="130.749,-51.7897 121.32,-56.6217 131.704,-58.7243 130.749,-51.7897"/>
</g>
<!-- Node12&#45;&gt;Node11 -->
<g id="edge4" class="edge"><title>Node12&#45;&gt;Node11</title>
<path fill="none" stroke="midnightblue" d="M258.823,-54.2172C304.551,-44.0134 372.279,-28.9006 414.334,-19.5164"/>
<polygon fill="midnightblue" stroke="midnightblue" points="257.843,-50.8496 248.846,-56.4435 259.368,-57.6816 257.843,-50.8496"/>
</g>
<!-- Node13&#45;&gt;Node11 -->
<g id="edge6" class="edge"><title>Node13&#45;&gt;Node11</title>
<path fill="none" stroke="midnightblue" d="M395.268,-50.6221C409.517,-40.7574 427.956,-27.9919 439.999,-19.6545"/>
<polygon fill="midnightblue" stroke="midnightblue" points="393.262,-47.7541 387.032,-56.324 397.246,-53.5095 393.262,-47.7541"/>
</g>
<!-- Node14&#45;&gt;Node11 -->
<g id="edge8" class="edge"><title>Node14&#45;&gt;Node11</title>
<path fill="none" stroke="midnightblue" d="M510.466,-50.6221C496.034,-40.7574 477.359,-27.9919 465.161,-19.6545"/>
<polygon fill="midnightblue" stroke="midnightblue" points="508.577,-53.5703 518.807,-56.324 512.527,-47.7914 508.577,-53.5703"/>
</g>
<!-- Node15&#45;&gt;Node11 -->
<g id="edge10" class="edge"><title>Node15&#45;&gt;Node11</title>
<path fill="none" stroke="midnightblue" d="M641.094,-54.1529C596.503,-43.95 530.646,-28.8809 489.72,-19.5164"/>
<polygon fill="midnightblue" stroke="midnightblue" points="640.576,-57.6248 651.105,-56.4435 642.138,-50.8011 640.576,-57.6248"/>
</g>
<!-- Node16&#45;&gt;Node11 -->
<g id="edge12" class="edge"><title>Node16&#45;&gt;Node11</title>
<path fill="none" stroke="midnightblue" d="M780.89,-55.112C695.3,-43.6149 557.288,-25.0759 490.769,-16.1406"/>
<polygon fill="midnightblue" stroke="midnightblue" points="780.425,-58.581 790.802,-56.4435 781.357,-51.6433 780.425,-58.581"/>
</g>
</g>
</svg>
